<svg width="299" height="215" viewBox="0 0 299 215" fill="none" xmlns="http://www.w3.org/2000/svg">
<mask id="mask0" mask-type="alpha" maskUnits="userSpaceOnUse" x="36" y="0" width="186" height="191">
<path opacity="0.69" d="M77.7821 59.0536C179.392 -38.0015 217.106 12.2021 221.546 19.0782C221.859 19.563 221.997 20.1233 221.992 20.7004V20.7004C220.947 143.346 76.366 258.636 39.6198 141.62V141.62C22.8344 88.1682 69.4032 67.057 77.7821 59.0536Z" fill="white" fill-opacity="0.33"/>
</mask>
<g mask="url(#mask0)">
<ellipse rx="3.47476" ry="3.39181" transform="matrix(-1 0 0 1 220.534 7.23458)" fill="white" fill-opacity="0.33"/>
<ellipse rx="3.47476" ry="3.39181" transform="matrix(-1 0 0 1 208.952 7.23458)" fill="white" fill-opacity="0.33"/>
<ellipse rx="3.47476" ry="3.39181" transform="matrix(-1 0 0 1 197.369 7.23458)" fill="white" fill-opacity="0.33"/>
<ellipse rx="3.47476" ry="3.39181" transform="matrix(-1 0 0 1 185.786 7.23458)" fill="white" fill-opacity="0.33"/>
<ellipse rx="3.47476" ry="3.39181" transform="matrix(-1 0 0 1 174.204 7.23458)" fill="white" fill-opacity="0.33"/>
<ellipse rx="3.47476" ry="3.39181" transform="matrix(-1 0 0 1 162.621 7.23458)" fill="white" fill-opacity="0.33"/>
<ellipse rx="3.47476" ry="3.39181" transform="matrix(-1 0 0 1 151.039 7.23458)" fill="white" fill-opacity="0.33"/>
<ellipse rx="3.47476" ry="3.39181" transform="matrix(-1 0 0 1 139.456 7.23458)" fill="white" fill-opacity="0.33"/>
<ellipse rx="3.47476" ry="3.39181" transform="matrix(-1 0 0 1 127.874 7.23458)" fill="white" fill-opacity="0.33"/>
<ellipse rx="3.47476" ry="3.39181" transform="matrix(-1 0 0 1 116.291 7.23458)" fill="white" fill-opacity="0.33"/>
<ellipse rx="3.47476" ry="3.39181" transform="matrix(-1 0 0 1 104.709 7.23458)" fill="white" fill-opacity="0.33"/>
<ellipse rx="3.47476" ry="3.39181" transform="matrix(-1 0 0 1 93.1261 7.23458)" fill="white" fill-opacity="0.33"/>
<ellipse rx="3.47476" ry="3.39181" transform="matrix(-1 0 0 1 81.5435 7.23458)" fill="white" fill-opacity="0.33"/>
<ellipse rx="3.47476" ry="3.39181" transform="matrix(-1 0 0 1 69.961 7.23458)" fill="white" fill-opacity="0.33"/>
<ellipse rx="3.47476" ry="3.39181" transform="matrix(-1 0 0 1 58.3785 7.23458)" fill="white" fill-opacity="0.33"/>
<ellipse rx="3.47476" ry="3.39181" transform="matrix(-1 0 0 1 35.2132 7.23458)" fill="white" fill-opacity="0.33"/>
<ellipse rx="3.47476" ry="3.39181" transform="matrix(-1 0 0 1 220.534 18.5407)" fill="white" fill-opacity="0.33"/>
<ellipse rx="3.47476" ry="3.39181" transform="matrix(-1 0 0 1 208.952 18.5407)" fill="white" fill-opacity="0.33"/>
<ellipse rx="3.47476" ry="3.39181" transform="matrix(-1 0 0 1 197.369 18.5407)" fill="white" fill-opacity="0.33"/>
<ellipse rx="3.47476" ry="3.39181" transform="matrix(-1 0 0 1 185.786 18.5407)" fill="white" fill-opacity="0.33"/>
<ellipse rx="3.47476" ry="3.39181" transform="matrix(-1 0 0 1 174.204 18.5407)" fill="white" fill-opacity="0.33"/>
<ellipse rx="3.47476" ry="3.39181" transform="matrix(-1 0 0 1 162.621 18.5407)" fill="white" fill-opacity="0.33"/>
<ellipse rx="3.47476" ry="3.39181" transform="matrix(-1 0 0 1 151.039 18.5407)" fill="white" fill-opacity="0.33"/>
<ellipse rx="3.47476" ry="3.39181" transform="matrix(-1 0 0 1 139.456 18.5407)" fill="white" fill-opacity="0.33"/>
<ellipse rx="3.47476" ry="3.39181" transform="matrix(-1 0 0 1 127.874 18.5407)" fill="white" fill-opacity="0.33"/>
<ellipse rx="3.47476" ry="3.39181" transform="matrix(-1 0 0 1 116.291 18.5407)" fill="white" fill-opacity="0.33"/>
<ellipse rx="3.47476" ry="3.39181" transform="matrix(-1 0 0 1 104.709 18.5407)" fill="white" fill-opacity="0.33"/>
<ellipse rx="3.47476" ry="3.39181" transform="matrix(-1 0 0 1 93.1261 18.5407)" fill="white" fill-opacity="0.33"/>
<ellipse rx="3.47476" ry="3.39181" transform="matrix(-1 0 0 1 81.5435 18.5407)" fill="white" fill-opacity="0.33"/>
<ellipse rx="3.47476" ry="3.39181" transform="matrix(-1 0 0 1 69.961 18.5407)" fill="white" fill-opacity="0.33"/>
<ellipse rx="3.47476" ry="3.39181" transform="matrix(-1 0 0 1 58.3785 18.5407)" fill="white" fill-opacity="0.33"/>
<ellipse rx="3.47476" ry="3.39181" transform="matrix(-1 0 0 1 46.796 18.5407)" fill="white" fill-opacity="0.33"/>
<ellipse rx="3.47476" ry="3.39181" transform="matrix(-1 0 0 1 220.534 29.8469)" fill="white" fill-opacity="0.33"/>
<ellipse rx="3.47476" ry="3.39181" transform="matrix(-1 0 0 1 208.952 29.8469)" fill="white" fill-opacity="0.33"/>
<ellipse rx="3.47476" ry="3.39181" transform="matrix(-1 0 0 1 197.369 29.8469)" fill="white" fill-opacity="0.33"/>
<ellipse rx="3.47476" ry="3.39181" transform="matrix(-1 0 0 1 185.786 29.8469)" fill="white" fill-opacity="0.33"/>
<ellipse rx="3.47476" ry="3.39181" transform="matrix(-1 0 0 1 174.204 29.8469)" fill="white" fill-opacity="0.33"/>
<ellipse rx="3.47476" ry="3.39181" transform="matrix(-1 0 0 1 162.621 29.8469)" fill="white" fill-opacity="0.33"/>
<ellipse rx="3.47476" ry="3.39181" transform="matrix(-1 0 0 1 151.039 29.8469)" fill="white" fill-opacity="0.33"/>
<ellipse rx="3.47476" ry="3.39181" transform="matrix(-1 0 0 1 139.456 29.8469)" fill="white" fill-opacity="0.33"/>
<ellipse rx="3.47476" ry="3.39181" transform="matrix(-1 0 0 1 127.874 29.8469)" fill="white" fill-opacity="0.33"/>
<ellipse rx="3.47476" ry="3.39181" transform="matrix(-1 0 0 1 116.291 29.8469)" fill="white" fill-opacity="0.33"/>
<ellipse rx="3.47476" ry="3.39181" transform="matrix(-1 0 0 1 104.709 29.8469)" fill="white" fill-opacity="0.33"/>
<ellipse rx="3.47476" ry="3.39181" transform="matrix(-1 0 0 1 93.1261 29.8469)" fill="white" fill-opacity="0.33"/>
<ellipse rx="3.47476" ry="3.39181" transform="matrix(-1 0 0 1 81.5435 29.8469)" fill="white" fill-opacity="0.33"/>
<ellipse rx="3.47476" ry="3.39181" transform="matrix(-1 0 0 1 69.961 29.8469)" fill="white" fill-opacity="0.33"/>
<ellipse rx="3.47476" ry="3.39181" transform="matrix(-1 0 0 1 58.3785 29.8469)" fill="white" fill-opacity="0.33"/>
<ellipse rx="3.47476" ry="3.39181" transform="matrix(-1 0 0 1 46.796 29.8469)" fill="white" fill-opacity="0.33"/>
<ellipse rx="3.47476" ry="3.39181" transform="matrix(-1 0 0 1 35.2132 29.8469)" fill="white" fill-opacity="0.33"/>
<ellipse rx="3.47476" ry="3.39181" transform="matrix(-1 0 0 1 220.534 41.153)" fill="white" fill-opacity="0.33"/>
<ellipse rx="3.47476" ry="3.39181" transform="matrix(-1 0 0 1 208.952 41.153)" fill="white" fill-opacity="0.33"/>
<ellipse rx="3.47476" ry="3.39181" transform="matrix(-1 0 0 1 197.369 41.153)" fill="white" fill-opacity="0.33"/>
<ellipse rx="3.47476" ry="3.39181" transform="matrix(-1 0 0 1 185.786 41.153)" fill="white" fill-opacity="0.33"/>
<ellipse rx="3.47476" ry="3.39181" transform="matrix(-1 0 0 1 174.204 41.153)" fill="white" fill-opacity="0.33"/>
<ellipse rx="3.47476" ry="3.39181" transform="matrix(-1 0 0 1 162.621 41.153)" fill="white" fill-opacity="0.33"/>
<ellipse rx="3.47476" ry="3.39181" transform="matrix(-1 0 0 1 151.039 41.153)" fill="white" fill-opacity="0.33"/>
<ellipse rx="3.47476" ry="3.39181" transform="matrix(-1 0 0 1 139.456 41.153)" fill="white" fill-opacity="0.33"/>
<ellipse rx="3.47476" ry="3.39181" transform="matrix(-1 0 0 1 127.874 41.153)" fill="white" fill-opacity="0.33"/>
<ellipse rx="3.47476" ry="3.39181" transform="matrix(-1 0 0 1 116.291 41.153)" fill="white" fill-opacity="0.33"/>
<ellipse rx="3.47476" ry="3.39181" transform="matrix(-1 0 0 1 104.709 41.153)" fill="white" fill-opacity="0.33"/>
<ellipse rx="3.47476" ry="3.39181" transform="matrix(-1 0 0 1 93.1261 41.153)" fill="white" fill-opacity="0.33"/>
<ellipse rx="3.47476" ry="3.39181" transform="matrix(-1 0 0 1 81.5435 41.153)" fill="white" fill-opacity="0.33"/>
<ellipse rx="3.47476" ry="3.39181" transform="matrix(-1 0 0 1 69.961 41.153)" fill="white" fill-opacity="0.33"/>
<ellipse rx="3.47476" ry="3.39181" transform="matrix(-1 0 0 1 58.3785 41.153)" fill="white" fill-opacity="0.33"/>
<ellipse rx="3.47476" ry="3.39181" transform="matrix(-1 0 0 1 46.796 41.153)" fill="white" fill-opacity="0.33"/>
<ellipse rx="3.47476" ry="3.39181" transform="matrix(-1 0 0 1 35.2132 41.153)" fill="white" fill-opacity="0.33"/>
<ellipse rx="3.47476" ry="3.39181" transform="matrix(-1 0 0 1 220.534 52.4592)" fill="white" fill-opacity="0.33"/>
<ellipse rx="3.47476" ry="3.39181" transform="matrix(-1 0 0 1 208.952 52.4592)" fill="white" fill-opacity="0.33"/>
<ellipse rx="3.47476" ry="3.39181" transform="matrix(-1 0 0 1 197.369 52.4592)" fill="white" fill-opacity="0.33"/>
<ellipse rx="3.47476" ry="3.39181" transform="matrix(-1 0 0 1 185.786 52.4592)" fill="white" fill-opacity="0.33"/>
<ellipse rx="3.47476" ry="3.39181" transform="matrix(-1 0 0 1 174.204 52.4592)" fill="white" fill-opacity="0.33"/>
<ellipse rx="3.47476" ry="3.39181" transform="matrix(-1 0 0 1 162.621 52.4592)" fill="white" fill-opacity="0.33"/>
<ellipse rx="3.47476" ry="3.39181" transform="matrix(-1 0 0 1 151.039 52.4592)" fill="white" fill-opacity="0.33"/>
<ellipse rx="3.47476" ry="3.39181" transform="matrix(-1 0 0 1 139.456 52.4592)" fill="white" fill-opacity="0.33"/>
<ellipse rx="3.47476" ry="3.39181" transform="matrix(-1 0 0 1 127.874 52.4592)" fill="white" fill-opacity="0.33"/>
<ellipse rx="3.47476" ry="3.39181" transform="matrix(-1 0 0 1 116.291 52.4592)" fill="white" fill-opacity="0.33"/>
<ellipse rx="3.47476" ry="3.39181" transform="matrix(-1 0 0 1 104.709 52.4592)" fill="white" fill-opacity="0.33"/>
<ellipse rx="3.47476" ry="3.39181" transform="matrix(-1 0 0 1 93.1261 52.4592)" fill="white" fill-opacity="0.33"/>
<ellipse rx="3.47476" ry="3.39181" transform="matrix(-1 0 0 1 81.5435 52.4592)" fill="white" fill-opacity="0.33"/>
<ellipse rx="3.47476" ry="3.39181" transform="matrix(-1 0 0 1 69.961 52.4592)" fill="white" fill-opacity="0.33"/>
<ellipse rx="3.47476" ry="3.39181" transform="matrix(-1 0 0 1 58.3785 52.4592)" fill="white" fill-opacity="0.33"/>
<ellipse rx="3.47476" ry="3.39181" transform="matrix(-1 0 0 1 46.796 52.4592)" fill="white" fill-opacity="0.33"/>
<ellipse rx="3.47476" ry="3.39181" transform="matrix(-1 0 0 1 35.2132 52.4592)" fill="white" fill-opacity="0.33"/>
<ellipse rx="3.47476" ry="3.39181" transform="matrix(-1 0 0 1 220.534 63.7649)" fill="white" fill-opacity="0.33"/>
<ellipse rx="3.47476" ry="3.39181" transform="matrix(-1 0 0 1 208.952 63.7649)" fill="white" fill-opacity="0.33"/>
<ellipse rx="3.47476" ry="3.39181" transform="matrix(-1 0 0 1 197.369 63.7649)" fill="white" fill-opacity="0.33"/>
<ellipse rx="3.47476" ry="3.39181" transform="matrix(-1 0 0 1 185.786 63.7649)" fill="white" fill-opacity="0.33"/>
<ellipse rx="3.47476" ry="3.39181" transform="matrix(-1 0 0 1 174.204 63.7649)" fill="white" fill-opacity="0.33"/>
<ellipse rx="3.47476" ry="3.39181" transform="matrix(-1 0 0 1 162.621 63.7649)" fill="white" fill-opacity="0.33"/>
<ellipse rx="3.47476" ry="3.39181" transform="matrix(-1 0 0 1 151.039 63.7649)" fill="white" fill-opacity="0.33"/>
<ellipse rx="3.47476" ry="3.39181" transform="matrix(-1 0 0 1 139.456 63.7649)" fill="white" fill-opacity="0.33"/>
<ellipse rx="3.47476" ry="3.39181" transform="matrix(-1 0 0 1 127.874 63.7649)" fill="white" fill-opacity="0.33"/>
<ellipse rx="3.47476" ry="3.39181" transform="matrix(-1 0 0 1 116.291 63.7649)" fill="white" fill-opacity="0.33"/>
<ellipse rx="3.47476" ry="3.39181" transform="matrix(-1 0 0 1 104.709 63.7649)" fill="white" fill-opacity="0.33"/>
<ellipse rx="3.47476" ry="3.39181" transform="matrix(-1 0 0 1 93.1261 63.7649)" fill="white" fill-opacity="0.33"/>
<ellipse rx="3.47476" ry="3.39181" transform="matrix(-1 0 0 1 81.5435 63.7649)" fill="white" fill-opacity="0.33"/>
<ellipse rx="3.47476" ry="3.39181" transform="matrix(-1 0 0 1 69.961 63.7649)" fill="white" fill-opacity="0.33"/>
<ellipse rx="3.47476" ry="3.39181" transform="matrix(-1 0 0 1 58.3785 63.7649)" fill="white" fill-opacity="0.33"/>
<ellipse rx="3.47476" ry="3.39181" transform="matrix(-1 0 0 1 46.796 63.7649)" fill="white" fill-opacity="0.33"/>
<ellipse rx="3.47476" ry="3.39181" transform="matrix(-1 0 0 1 35.2132 63.7649)" fill="white" fill-opacity="0.33"/>
<ellipse rx="3.47476" ry="3.39181" transform="matrix(-1 0 0 1 220.534 75.071)" fill="white" fill-opacity="0.33"/>
<ellipse rx="3.47476" ry="3.39181" transform="matrix(-1 0 0 1 208.952 75.071)" fill="white" fill-opacity="0.33"/>
<ellipse rx="3.47476" ry="3.39181" transform="matrix(-1 0 0 1 197.369 75.071)" fill="white" fill-opacity="0.33"/>
<ellipse rx="3.47476" ry="3.39181" transform="matrix(-1 0 0 1 185.786 75.071)" fill="white" fill-opacity="0.33"/>
<ellipse rx="3.47476" ry="3.39181" transform="matrix(-1 0 0 1 174.204 75.071)" fill="white" fill-opacity="0.33"/>
<ellipse rx="3.47476" ry="3.39181" transform="matrix(-1 0 0 1 162.621 75.071)" fill="white" fill-opacity="0.33"/>
<ellipse rx="3.47476" ry="3.39181" transform="matrix(-1 0 0 1 151.039 75.071)" fill="white" fill-opacity="0.33"/>
<ellipse rx="3.47476" ry="3.39181" transform="matrix(-1 0 0 1 139.456 75.071)" fill="white" fill-opacity="0.33"/>
<ellipse rx="3.47476" ry="3.39181" transform="matrix(-1 0 0 1 127.874 75.071)" fill="white" fill-opacity="0.33"/>
<ellipse rx="3.47476" ry="3.39181" transform="matrix(-1 0 0 1 116.291 75.071)" fill="white" fill-opacity="0.33"/>
<ellipse rx="3.47476" ry="3.39181" transform="matrix(-1 0 0 1 104.709 75.071)" fill="white" fill-opacity="0.33"/>
<ellipse rx="3.47476" ry="3.39181" transform="matrix(-1 0 0 1 93.1261 75.071)" fill="white" fill-opacity="0.33"/>
<ellipse rx="3.47476" ry="3.39181" transform="matrix(-1 0 0 1 81.5435 75.071)" fill="white" fill-opacity="0.33"/>
<ellipse rx="3.47476" ry="3.39181" transform="matrix(-1 0 0 1 69.961 75.071)" fill="white" fill-opacity="0.33"/>
<ellipse rx="3.47476" ry="3.39181" transform="matrix(-1 0 0 1 58.3785 75.071)" fill="white" fill-opacity="0.33"/>
<ellipse rx="3.47476" ry="3.39181" transform="matrix(-1 0 0 1 46.796 75.071)" fill="white" fill-opacity="0.33"/>
<ellipse rx="3.47476" ry="3.39181" transform="matrix(-1 0 0 1 35.2132 75.071)" fill="white" fill-opacity="0.33"/>
<ellipse rx="3.47476" ry="3.39181" transform="matrix(-1 0 0 1 220.534 86.3769)" fill="white" fill-opacity="0.33"/>
<ellipse rx="3.47476" ry="3.39181" transform="matrix(-1 0 0 1 208.952 86.3769)" fill="white" fill-opacity="0.33"/>
<ellipse rx="3.47476" ry="3.39181" transform="matrix(-1 0 0 1 197.369 86.3769)" fill="white" fill-opacity="0.33"/>
<ellipse rx="3.47476" ry="3.39181" transform="matrix(-1 0 0 1 185.786 86.3769)" fill="white" fill-opacity="0.33"/>
<ellipse rx="3.47476" ry="3.39181" transform="matrix(-1 0 0 1 174.204 86.3769)" fill="white" fill-opacity="0.33"/>
<ellipse rx="3.47476" ry="3.39181" transform="matrix(-1 0 0 1 162.621 86.3769)" fill="white" fill-opacity="0.33"/>
<ellipse rx="3.47476" ry="3.39181" transform="matrix(-1 0 0 1 151.039 86.3769)" fill="white" fill-opacity="0.33"/>
<ellipse rx="3.47476" ry="3.39181" transform="matrix(-1 0 0 1 139.456 86.3769)" fill="white" fill-opacity="0.33"/>
<ellipse rx="3.47476" ry="3.39181" transform="matrix(-1 0 0 1 127.874 86.3769)" fill="white" fill-opacity="0.33"/>
<ellipse rx="3.47476" ry="3.39181" transform="matrix(-1 0 0 1 116.291 86.3769)" fill="white" fill-opacity="0.33"/>
<ellipse rx="3.47476" ry="3.39181" transform="matrix(-1 0 0 1 104.709 86.3769)" fill="white" fill-opacity="0.33"/>
<ellipse rx="3.47476" ry="3.39181" transform="matrix(-1 0 0 1 93.1261 86.3769)" fill="white" fill-opacity="0.33"/>
<ellipse rx="3.47476" ry="3.39181" transform="matrix(-1 0 0 1 81.5435 86.3769)" fill="white" fill-opacity="0.33"/>
<ellipse rx="3.47476" ry="3.39181" transform="matrix(-1 0 0 1 69.961 86.3769)" fill="white" fill-opacity="0.33"/>
<ellipse rx="3.47476" ry="3.39181" transform="matrix(-1 0 0 1 58.3785 86.3769)" fill="white" fill-opacity="0.33"/>
<ellipse rx="3.47476" ry="3.39181" transform="matrix(-1 0 0 1 46.796 86.3769)" fill="white" fill-opacity="0.33"/>
<ellipse rx="3.47476" ry="3.39181" transform="matrix(-1 0 0 1 35.2132 86.3769)" fill="white" fill-opacity="0.33"/>
<ellipse rx="3.47476" ry="3.39181" transform="matrix(-1 0 0 1 220.534 97.6831)" fill="white" fill-opacity="0.33"/>
<ellipse rx="3.47476" ry="3.39181" transform="matrix(-1 0 0 1 208.952 97.6831)" fill="white" fill-opacity="0.33"/>
<ellipse rx="3.47476" ry="3.39181" transform="matrix(-1 0 0 1 197.369 97.6831)" fill="white" fill-opacity="0.33"/>
<ellipse rx="3.47476" ry="3.39181" transform="matrix(-1 0 0 1 185.786 97.6831)" fill="white" fill-opacity="0.33"/>
<ellipse rx="3.47476" ry="3.39181" transform="matrix(-1 0 0 1 174.204 97.6831)" fill="white" fill-opacity="0.33"/>
<ellipse rx="3.47476" ry="3.39181" transform="matrix(-1 0 0 1 162.621 97.6831)" fill="white" fill-opacity="0.33"/>
<ellipse rx="3.47476" ry="3.39181" transform="matrix(-1 0 0 1 151.039 97.6831)" fill="white" fill-opacity="0.33"/>
<ellipse rx="3.47476" ry="3.39181" transform="matrix(-1 0 0 1 139.456 97.6831)" fill="white" fill-opacity="0.33"/>
<ellipse rx="3.47476" ry="3.39181" transform="matrix(-1 0 0 1 127.874 97.6831)" fill="white" fill-opacity="0.33"/>
<ellipse rx="3.47476" ry="3.39181" transform="matrix(-1 0 0 1 116.291 97.6831)" fill="white" fill-opacity="0.33"/>
<ellipse rx="3.47476" ry="3.39181" transform="matrix(-1 0 0 1 104.709 97.6831)" fill="white" fill-opacity="0.33"/>
<ellipse rx="3.47476" ry="3.39181" transform="matrix(-1 0 0 1 93.1261 97.6831)" fill="white" fill-opacity="0.33"/>
<ellipse rx="3.47476" ry="3.39181" transform="matrix(-1 0 0 1 81.5435 97.6831)" fill="white" fill-opacity="0.33"/>
<ellipse rx="3.47476" ry="3.39181" transform="matrix(-1 0 0 1 69.961 97.6831)" fill="white" fill-opacity="0.33"/>
<ellipse rx="3.47476" ry="3.39181" transform="matrix(-1 0 0 1 58.3785 97.6831)" fill="white" fill-opacity="0.33"/>
<ellipse rx="3.47476" ry="3.39181" transform="matrix(-1 0 0 1 46.796 97.6831)" fill="white" fill-opacity="0.33"/>
<ellipse rx="3.47476" ry="3.39181" transform="matrix(-1 0 0 1 35.2132 97.6831)" fill="white" fill-opacity="0.33"/>
<ellipse rx="3.47476" ry="3.39181" transform="matrix(-1 0 0 1 220.534 108.989)" fill="white" fill-opacity="0.33"/>
<ellipse rx="3.47476" ry="3.39181" transform="matrix(-1 0 0 1 208.952 108.989)" fill="white" fill-opacity="0.33"/>
<ellipse rx="3.47476" ry="3.39181" transform="matrix(-1 0 0 1 197.369 108.989)" fill="white" fill-opacity="0.33"/>
<ellipse rx="3.47476" ry="3.39181" transform="matrix(-1 0 0 1 185.786 108.989)" fill="white" fill-opacity="0.33"/>
<ellipse rx="3.47476" ry="3.39181" transform="matrix(-1 0 0 1 174.204 108.989)" fill="white" fill-opacity="0.33"/>
<ellipse rx="3.47476" ry="3.39181" transform="matrix(-1 0 0 1 162.621 108.989)" fill="white" fill-opacity="0.33"/>
<ellipse rx="3.47476" ry="3.39181" transform="matrix(-1 0 0 1 151.039 108.989)" fill="white" fill-opacity="0.33"/>
<ellipse rx="3.47476" ry="3.39181" transform="matrix(-1 0 0 1 139.456 108.989)" fill="white" fill-opacity="0.33"/>
<ellipse rx="3.47476" ry="3.39181" transform="matrix(-1 0 0 1 127.874 108.989)" fill="white" fill-opacity="0.33"/>
<ellipse rx="3.47476" ry="3.39181" transform="matrix(-1 0 0 1 116.291 108.989)" fill="white" fill-opacity="0.33"/>
<ellipse rx="3.47476" ry="3.39181" transform="matrix(-1 0 0 1 104.709 108.989)" fill="white" fill-opacity="0.33"/>
<ellipse rx="3.47476" ry="3.39181" transform="matrix(-1 0 0 1 93.1261 108.989)" fill="white" fill-opacity="0.33"/>
<ellipse rx="3.47476" ry="3.39181" transform="matrix(-1 0 0 1 81.5435 108.989)" fill="white" fill-opacity="0.33"/>
<ellipse rx="3.47476" ry="3.39181" transform="matrix(-1 0 0 1 69.961 108.989)" fill="white" fill-opacity="0.33"/>
<ellipse rx="3.47476" ry="3.39181" transform="matrix(-1 0 0 1 58.3785 108.989)" fill="white" fill-opacity="0.33"/>
<ellipse rx="3.47476" ry="3.39181" transform="matrix(-1 0 0 1 46.796 108.989)" fill="white" fill-opacity="0.33"/>
<ellipse rx="3.47476" ry="3.39181" transform="matrix(-1 0 0 1 35.2132 108.989)" fill="white" fill-opacity="0.33"/>
<ellipse rx="3.47476" ry="3.39181" transform="matrix(-1 0 0 1 220.534 120.295)" fill="white" fill-opacity="0.33"/>
<ellipse rx="3.47476" ry="3.39181" transform="matrix(-1 0 0 1 208.952 120.295)" fill="white" fill-opacity="0.33"/>
<ellipse rx="3.47476" ry="3.39181" transform="matrix(-1 0 0 1 197.369 120.295)" fill="white" fill-opacity="0.33"/>
<ellipse rx="3.47476" ry="3.39181" transform="matrix(-1 0 0 1 185.786 120.295)" fill="white" fill-opacity="0.33"/>
<ellipse rx="3.47476" ry="3.39181" transform="matrix(-1 0 0 1 174.204 120.295)" fill="white" fill-opacity="0.33"/>
<ellipse rx="3.47476" ry="3.39181" transform="matrix(-1 0 0 1 162.621 120.295)" fill="white" fill-opacity="0.33"/>
<ellipse rx="3.47476" ry="3.39181" transform="matrix(-1 0 0 1 151.039 120.295)" fill="white" fill-opacity="0.33"/>
<ellipse rx="3.47476" ry="3.39181" transform="matrix(-1 0 0 1 139.456 120.295)" fill="white" fill-opacity="0.33"/>
<ellipse rx="3.47476" ry="3.39181" transform="matrix(-1 0 0 1 127.874 120.295)" fill="white" fill-opacity="0.33"/>
<ellipse rx="3.47476" ry="3.39181" transform="matrix(-1 0 0 1 116.291 120.295)" fill="white" fill-opacity="0.33"/>
<ellipse rx="3.47476" ry="3.39181" transform="matrix(-1 0 0 1 104.709 120.295)" fill="white" fill-opacity="0.33"/>
<ellipse rx="3.47476" ry="3.39181" transform="matrix(-1 0 0 1 93.1261 120.295)" fill="white" fill-opacity="0.33"/>
<ellipse rx="3.47476" ry="3.39181" transform="matrix(-1 0 0 1 81.5435 120.295)" fill="white" fill-opacity="0.33"/>
<ellipse rx="3.47476" ry="3.39181" transform="matrix(-1 0 0 1 69.961 120.295)" fill="white" fill-opacity="0.33"/>
<ellipse rx="3.47476" ry="3.39181" transform="matrix(-1 0 0 1 58.3785 120.295)" fill="white" fill-opacity="0.33"/>
<ellipse rx="3.47476" ry="3.39181" transform="matrix(-1 0 0 1 46.796 120.295)" fill="white" fill-opacity="0.33"/>
<ellipse rx="3.47476" ry="3.39181" transform="matrix(-1 0 0 1 35.2132 120.295)" fill="white" fill-opacity="0.33"/>
<ellipse rx="3.47476" ry="3.39181" transform="matrix(-1 0 0 1 220.534 131.601)" fill="white" fill-opacity="0.33"/>
<ellipse rx="3.47476" ry="3.39181" transform="matrix(-1 0 0 1 208.952 131.601)" fill="white" fill-opacity="0.33"/>
<ellipse rx="3.47476" ry="3.39181" transform="matrix(-1 0 0 1 197.369 131.601)" fill="white" fill-opacity="0.33"/>
<ellipse rx="3.47476" ry="3.39181" transform="matrix(-1 0 0 1 185.786 131.601)" fill="white" fill-opacity="0.33"/>
<ellipse rx="3.47476" ry="3.39181" transform="matrix(-1 0 0 1 174.204 131.601)" fill="white" fill-opacity="0.33"/>
<ellipse rx="3.47476" ry="3.39181" transform="matrix(-1 0 0 1 162.621 131.601)" fill="white" fill-opacity="0.33"/>
<ellipse rx="3.47476" ry="3.39181" transform="matrix(-1 0 0 1 151.039 131.601)" fill="white" fill-opacity="0.33"/>
<ellipse rx="3.47476" ry="3.39181" transform="matrix(-1 0 0 1 139.456 131.601)" fill="white" fill-opacity="0.33"/>
<ellipse rx="3.47476" ry="3.39181" transform="matrix(-1 0 0 1 127.874 131.601)" fill="white" fill-opacity="0.33"/>
<ellipse rx="3.47476" ry="3.39181" transform="matrix(-1 0 0 1 116.291 131.601)" fill="white" fill-opacity="0.33"/>
<ellipse rx="3.47476" ry="3.39181" transform="matrix(-1 0 0 1 104.709 131.601)" fill="white" fill-opacity="0.33"/>
<ellipse rx="3.47476" ry="3.39181" transform="matrix(-1 0 0 1 93.1261 131.601)" fill="white" fill-opacity="0.33"/>
<ellipse rx="3.47476" ry="3.39181" transform="matrix(-1 0 0 1 81.5435 131.601)" fill="white" fill-opacity="0.33"/>
<ellipse rx="3.47476" ry="3.39181" transform="matrix(-1 0 0 1 69.961 131.601)" fill="white" fill-opacity="0.33"/>
<ellipse rx="3.47476" ry="3.39181" transform="matrix(-1 0 0 1 58.3785 131.601)" fill="white" fill-opacity="0.33"/>
<ellipse rx="3.47476" ry="3.39181" transform="matrix(-1 0 0 1 46.796 131.601)" fill="white" fill-opacity="0.33"/>
<ellipse rx="3.47476" ry="3.39181" transform="matrix(-1 0 0 1 35.2132 131.601)" fill="white" fill-opacity="0.33"/>
<ellipse rx="3.47476" ry="3.39181" transform="matrix(-1 0 0 1 220.534 142.907)" fill="white" fill-opacity="0.33"/>
<ellipse rx="3.47476" ry="3.39181" transform="matrix(-1 0 0 1 208.952 142.907)" fill="white" fill-opacity="0.33"/>
<ellipse rx="3.47476" ry="3.39181" transform="matrix(-1 0 0 1 197.369 142.907)" fill="white" fill-opacity="0.33"/>
<ellipse rx="3.47476" ry="3.39181" transform="matrix(-1 0 0 1 185.786 142.907)" fill="white" fill-opacity="0.33"/>
<ellipse rx="3.47476" ry="3.39181" transform="matrix(-1 0 0 1 174.204 142.907)" fill="white" fill-opacity="0.33"/>
<ellipse rx="3.47476" ry="3.39181" transform="matrix(-1 0 0 1 162.621 142.907)" fill="white" fill-opacity="0.33"/>
<ellipse rx="3.47476" ry="3.39181" transform="matrix(-1 0 0 1 151.039 142.907)" fill="white" fill-opacity="0.33"/>
<ellipse rx="3.47476" ry="3.39181" transform="matrix(-1 0 0 1 139.456 142.907)" fill="white" fill-opacity="0.33"/>
<ellipse rx="3.47476" ry="3.39181" transform="matrix(-1 0 0 1 127.874 142.907)" fill="white" fill-opacity="0.33"/>
<ellipse rx="3.47476" ry="3.39181" transform="matrix(-1 0 0 1 116.291 142.907)" fill="white" fill-opacity="0.33"/>
<ellipse rx="3.47476" ry="3.39181" transform="matrix(-1 0 0 1 104.709 142.907)" fill="white" fill-opacity="0.33"/>
<ellipse rx="3.47476" ry="3.39181" transform="matrix(-1 0 0 1 93.1261 142.907)" fill="white" fill-opacity="0.33"/>
<ellipse rx="3.47476" ry="3.39181" transform="matrix(-1 0 0 1 81.5435 142.907)" fill="white" fill-opacity="0.33"/>
<ellipse rx="3.47476" ry="3.39181" transform="matrix(-1 0 0 1 69.961 142.907)" fill="white" fill-opacity="0.33"/>
<ellipse rx="3.47476" ry="3.39181" transform="matrix(-1 0 0 1 58.3785 142.907)" fill="white" fill-opacity="0.33"/>
<ellipse rx="3.47476" ry="3.39181" transform="matrix(-1 0 0 1 46.796 142.907)" fill="white" fill-opacity="0.33"/>
<ellipse rx="3.47476" ry="3.39181" transform="matrix(-1 0 0 1 35.2132 142.907)" fill="white" fill-opacity="0.33"/>
<ellipse rx="3.47476" ry="3.39181" transform="matrix(-1 0 0 1 220.534 154.213)" fill="white" fill-opacity="0.33"/>
<ellipse rx="3.47476" ry="3.39181" transform="matrix(-1 0 0 1 208.952 154.213)" fill="white" fill-opacity="0.33"/>
<ellipse rx="3.47476" ry="3.39181" transform="matrix(-1 0 0 1 197.369 154.213)" fill="white" fill-opacity="0.33"/>
<ellipse rx="3.47476" ry="3.39181" transform="matrix(-1 0 0 1 185.786 154.213)" fill="white" fill-opacity="0.33"/>
<ellipse rx="3.47476" ry="3.39181" transform="matrix(-1 0 0 1 174.204 154.213)" fill="white" fill-opacity="0.33"/>
<ellipse rx="3.47476" ry="3.39181" transform="matrix(-1 0 0 1 162.621 154.213)" fill="white" fill-opacity="0.33"/>
<ellipse rx="3.47476" ry="3.39181" transform="matrix(-1 0 0 1 151.039 154.213)" fill="white" fill-opacity="0.33"/>
<ellipse rx="3.47476" ry="3.39181" transform="matrix(-1 0 0 1 139.456 154.213)" fill="white" fill-opacity="0.33"/>
<ellipse rx="3.47476" ry="3.39181" transform="matrix(-1 0 0 1 127.874 154.213)" fill="white" fill-opacity="0.33"/>
<ellipse rx="3.47476" ry="3.39181" transform="matrix(-1 0 0 1 116.291 154.213)" fill="white" fill-opacity="0.33"/>
<ellipse rx="3.47476" ry="3.39181" transform="matrix(-1 0 0 1 104.709 154.213)" fill="white" fill-opacity="0.33"/>
<ellipse rx="3.47476" ry="3.39181" transform="matrix(-1 0 0 1 93.1261 154.213)" fill="white" fill-opacity="0.33"/>
<ellipse rx="3.47476" ry="3.39181" transform="matrix(-1 0 0 1 81.5435 154.213)" fill="white" fill-opacity="0.33"/>
<ellipse rx="3.47476" ry="3.39181" transform="matrix(-1 0 0 1 69.961 154.213)" fill="white" fill-opacity="0.33"/>
<ellipse rx="3.47476" ry="3.39181" transform="matrix(-1 0 0 1 58.3785 154.213)" fill="white" fill-opacity="0.33"/>
<ellipse rx="3.47476" ry="3.39181" transform="matrix(-1 0 0 1 46.796 154.213)" fill="white" fill-opacity="0.33"/>
<ellipse rx="3.47476" ry="3.39181" transform="matrix(-1 0 0 1 35.2132 154.213)" fill="white" fill-opacity="0.33"/>
<ellipse rx="3.47476" ry="3.39181" transform="matrix(-1 0 0 1 220.534 165.519)" fill="white" fill-opacity="0.33"/>
<ellipse rx="3.47476" ry="3.39181" transform="matrix(-1 0 0 1 208.952 165.519)" fill="white" fill-opacity="0.33"/>
<ellipse rx="3.47476" ry="3.39181" transform="matrix(-1 0 0 1 197.369 165.519)" fill="white" fill-opacity="0.33"/>
<ellipse rx="3.47476" ry="3.39181" transform="matrix(-1 0 0 1 185.786 165.519)" fill="white" fill-opacity="0.33"/>
<ellipse rx="3.47476" ry="3.39181" transform="matrix(-1 0 0 1 174.204 165.519)" fill="white" fill-opacity="0.33"/>
<ellipse rx="3.47476" ry="3.39181" transform="matrix(-1 0 0 1 162.621 165.519)" fill="white" fill-opacity="0.33"/>
<ellipse rx="3.47476" ry="3.39181" transform="matrix(-1 0 0 1 151.039 165.519)" fill="white" fill-opacity="0.33"/>
<ellipse rx="3.47476" ry="3.39181" transform="matrix(-1 0 0 1 139.456 165.519)" fill="white" fill-opacity="0.33"/>
<ellipse rx="3.47476" ry="3.39181" transform="matrix(-1 0 0 1 127.874 165.519)" fill="white" fill-opacity="0.33"/>
<ellipse rx="3.47476" ry="3.39181" transform="matrix(-1 0 0 1 116.291 165.519)" fill="white" fill-opacity="0.33"/>
<ellipse rx="3.47476" ry="3.39181" transform="matrix(-1 0 0 1 104.709 165.519)" fill="white" fill-opacity="0.33"/>
<ellipse rx="3.47476" ry="3.39181" transform="matrix(-1 0 0 1 93.1261 165.519)" fill="white" fill-opacity="0.33"/>
<ellipse rx="3.47476" ry="3.39181" transform="matrix(-1 0 0 1 81.5435 165.519)" fill="white" fill-opacity="0.33"/>
<ellipse rx="3.47476" ry="3.39181" transform="matrix(-1 0 0 1 69.961 165.519)" fill="white" fill-opacity="0.33"/>
<ellipse rx="3.47476" ry="3.39181" transform="matrix(-1 0 0 1 58.3785 165.519)" fill="white" fill-opacity="0.33"/>
<ellipse rx="3.47476" ry="3.39181" transform="matrix(-1 0 0 1 46.796 165.519)" fill="white" fill-opacity="0.33"/>
<ellipse rx="3.47476" ry="3.39181" transform="matrix(-1 0 0 1 35.2132 165.519)" fill="white" fill-opacity="0.33"/>
<ellipse rx="3.47476" ry="3.39181" transform="matrix(-1 0 0 1 220.534 176.825)" fill="white" fill-opacity="0.33"/>
<ellipse rx="3.47476" ry="3.39181" transform="matrix(-1 0 0 1 208.952 176.825)" fill="white" fill-opacity="0.33"/>
<ellipse rx="3.47476" ry="3.39181" transform="matrix(-1 0 0 1 197.369 176.825)" fill="white" fill-opacity="0.33"/>
<ellipse rx="3.47476" ry="3.39181" transform="matrix(-1 0 0 1 185.786 176.825)" fill="white" fill-opacity="0.33"/>
<ellipse rx="3.47476" ry="3.39181" transform="matrix(-1 0 0 1 174.204 176.825)" fill="white" fill-opacity="0.33"/>
<ellipse rx="3.47476" ry="3.39181" transform="matrix(-1 0 0 1 162.621 176.825)" fill="white" fill-opacity="0.33"/>
<ellipse rx="3.47476" ry="3.39181" transform="matrix(-1 0 0 1 151.039 176.825)" fill="white" fill-opacity="0.33"/>
<ellipse rx="3.47476" ry="3.39181" transform="matrix(-1 0 0 1 139.456 176.825)" fill="white" fill-opacity="0.33"/>
<ellipse rx="3.47476" ry="3.39181" transform="matrix(-1 0 0 1 127.874 176.825)" fill="white" fill-opacity="0.33"/>
<ellipse rx="3.47476" ry="3.39181" transform="matrix(-1 0 0 1 116.291 176.825)" fill="white" fill-opacity="0.33"/>
<ellipse rx="3.47476" ry="3.39181" transform="matrix(-1 0 0 1 104.709 176.825)" fill="white" fill-opacity="0.33"/>
<ellipse rx="3.47476" ry="3.39181" transform="matrix(-1 0 0 1 93.1261 176.825)" fill="white" fill-opacity="0.33"/>
<ellipse rx="3.47476" ry="3.39181" transform="matrix(-1 0 0 1 81.5435 176.825)" fill="white" fill-opacity="0.33"/>
<ellipse rx="3.47476" ry="3.39181" transform="matrix(-1 0 0 1 69.961 176.825)" fill="white" fill-opacity="0.33"/>
<ellipse rx="3.47476" ry="3.39181" transform="matrix(-1 0 0 1 58.3785 176.825)" fill="white" fill-opacity="0.33"/>
<ellipse rx="3.47476" ry="3.39181" transform="matrix(-1 0 0 1 46.796 176.825)" fill="white" fill-opacity="0.33"/>
<ellipse rx="3.47476" ry="3.39181" transform="matrix(-1 0 0 1 35.2132 176.825)" fill="white" fill-opacity="0.33"/>
<ellipse rx="3.47476" ry="3.39181" transform="matrix(-1 0 0 1 220.534 188.132)" fill="white" fill-opacity="0.33"/>
<ellipse rx="3.47476" ry="3.39181" transform="matrix(-1 0 0 1 208.952 188.132)" fill="white" fill-opacity="0.33"/>
<ellipse rx="3.47476" ry="3.39181" transform="matrix(-1 0 0 1 197.369 188.132)" fill="white" fill-opacity="0.33"/>
<ellipse rx="3.47476" ry="3.39181" transform="matrix(-1 0 0 1 185.786 188.132)" fill="white" fill-opacity="0.33"/>
<ellipse rx="3.47476" ry="3.39181" transform="matrix(-1 0 0 1 174.204 188.132)" fill="white" fill-opacity="0.33"/>
<ellipse rx="3.47476" ry="3.39181" transform="matrix(-1 0 0 1 162.621 188.132)" fill="white" fill-opacity="0.33"/>
<ellipse rx="3.47476" ry="3.39181" transform="matrix(-1 0 0 1 151.039 188.132)" fill="white" fill-opacity="0.33"/>
<ellipse rx="3.47476" ry="3.39181" transform="matrix(-1 0 0 1 139.456 188.132)" fill="white" fill-opacity="0.33"/>
<ellipse rx="3.47476" ry="3.39181" transform="matrix(-1 0 0 1 127.874 188.132)" fill="white" fill-opacity="0.33"/>
<ellipse rx="3.47476" ry="3.39181" transform="matrix(-1 0 0 1 116.291 188.132)" fill="white" fill-opacity="0.33"/>
<ellipse rx="3.47476" ry="3.39181" transform="matrix(-1 0 0 1 104.709 188.132)" fill="white" fill-opacity="0.33"/>
<ellipse rx="3.47476" ry="3.39181" transform="matrix(-1 0 0 1 93.1261 188.132)" fill="white" fill-opacity="0.33"/>
<ellipse rx="3.47476" ry="3.39181" transform="matrix(-1 0 0 1 81.5435 188.132)" fill="white" fill-opacity="0.33"/>
<ellipse rx="3.47476" ry="3.39181" transform="matrix(-1 0 0 1 69.961 188.132)" fill="white" fill-opacity="0.33"/>
<ellipse rx="3.47476" ry="3.39181" transform="matrix(-1 0 0 1 58.3785 188.132)" fill="white" fill-opacity="0.33"/>
<ellipse rx="3.47476" ry="3.39181" transform="matrix(-1 0 0 1 46.796 188.132)" fill="white" fill-opacity="0.33"/>
<ellipse rx="3.47476" ry="3.39181" transform="matrix(-1 0 0 1 35.2132 188.132)" fill="white" fill-opacity="0.33"/>
</g>
</svg>
