<svg width="465" height="426" viewBox="0 0 465 426" fill="none" xmlns="http://www.w3.org/2000/svg">
<mask id="mask0" mask-type="alpha" maskUnits="userSpaceOnUse" x="36" y="10" width="352" height="377">
<path opacity="0.69" d="M115.038 112.36C309.429 -57.7768 380.195 33.1566 387.253 43.4449C387.681 44.0683 387.847 44.7551 387.84 45.5112L386.789 158.406C385.398 307.953 253.031 444.311 128.168 361.996C90.6196 337.243 59.1191 302.954 42.8475 255.475C11.095 162.825 99.1877 126.232 115.038 112.36Z" fill="white" fill-opacity="0.15"/>
</mask>
<g mask="url(#mask0)">
<circle r="4.92983" transform="matrix(-1 0 0 1 385.771 5.21028)" fill="white" fill-opacity="0.15"/>
<circle r="4.92983" transform="matrix(-1 0 0 1 369.338 5.21028)" fill="white" fill-opacity="0.15"/>
<circle r="4.92983" transform="matrix(-1 0 0 1 352.906 5.21028)" fill="white" fill-opacity="0.15"/>
<circle r="4.92983" transform="matrix(-1 0 0 1 336.473 5.21028)" fill="white" fill-opacity="0.15"/>
<circle r="4.92983" transform="matrix(-1 0 0 1 320.04 5.21028)" fill="white" fill-opacity="0.15"/>
<circle r="4.92983" transform="matrix(-1 0 0 1 303.607 5.21028)" fill="white" fill-opacity="0.15"/>
<circle r="4.92983" transform="matrix(-1 0 0 1 287.174 5.21028)" fill="white" fill-opacity="0.15"/>
<circle r="4.92983" transform="matrix(-1 0 0 1 270.742 5.21028)" fill="white" fill-opacity="0.15"/>
<circle r="4.92983" transform="matrix(-1 0 0 1 254.309 5.21028)" fill="white" fill-opacity="0.15"/>
<circle r="4.92983" transform="matrix(-1 0 0 1 237.876 5.21028)" fill="white" fill-opacity="0.15"/>
<circle r="4.92983" transform="matrix(-1 0 0 1 221.443 5.21028)" fill="white" fill-opacity="0.15"/>
<circle r="4.92983" transform="matrix(-1 0 0 1 205.011 5.21028)" fill="white" fill-opacity="0.15"/>
<circle r="4.92983" transform="matrix(-1 0 0 1 188.578 5.21028)" fill="white" fill-opacity="0.15"/>
<circle r="4.92983" transform="matrix(-1 0 0 1 172.145 5.21028)" fill="white" fill-opacity="0.15"/>
<circle r="4.92983" transform="matrix(-1 0 0 1 155.713 5.21028)" fill="white" fill-opacity="0.15"/>
<circle r="4.92983" transform="matrix(-1 0 0 1 139.28 5.21028)" fill="white" fill-opacity="0.15"/>
<circle r="4.92983" transform="matrix(-1 0 0 1 122.847 5.21028)" fill="white" fill-opacity="0.15"/>
<circle r="4.92983" transform="matrix(-1 0 0 1 106.414 5.21028)" fill="white" fill-opacity="0.15"/>
<circle r="4.92983" transform="matrix(-1 0 0 1 89.9813 5.21028)" fill="white" fill-opacity="0.15"/>
<circle r="4.92983" transform="matrix(-1 0 0 1 73.5487 5.21028)" fill="white" fill-opacity="0.15"/>
<circle r="4.92983" transform="matrix(-1 0 0 1 57.1158 5.21028)" fill="white" fill-opacity="0.15"/>
<circle r="4.92983" transform="matrix(-1 0 0 1 40.6832 5.21028)" fill="white" fill-opacity="0.15"/>
<circle r="4.92983" transform="matrix(-1 0 0 1 385.771 21.6432)" fill="white" fill-opacity="0.15"/>
<circle r="4.92983" transform="matrix(-1 0 0 1 352.906 21.6432)" fill="white" fill-opacity="0.15"/>
<circle r="4.92983" transform="matrix(-1 0 0 1 336.473 21.6432)" fill="white" fill-opacity="0.15"/>
<circle r="4.92983" transform="matrix(-1 0 0 1 320.04 21.6432)" fill="white" fill-opacity="0.15"/>
<circle r="4.92983" transform="matrix(-1 0 0 1 303.607 21.6432)" fill="white" fill-opacity="0.15"/>
<circle r="4.92983" transform="matrix(-1 0 0 1 287.174 21.6432)" fill="white" fill-opacity="0.15"/>
<circle r="4.92983" transform="matrix(-1 0 0 1 237.876 21.6432)" fill="white" fill-opacity="0.15"/>
<circle r="4.92983" transform="matrix(-1 0 0 1 221.443 21.6432)" fill="white" fill-opacity="0.15"/>
<circle r="4.92983" transform="matrix(-1 0 0 1 205.011 21.6432)" fill="white" fill-opacity="0.15"/>
<circle r="4.92983" transform="matrix(-1 0 0 1 188.578 21.6432)" fill="white" fill-opacity="0.15"/>
<circle r="4.92983" transform="matrix(-1 0 0 1 172.145 21.6432)" fill="white" fill-opacity="0.15"/>
<circle r="4.92983" transform="matrix(-1 0 0 1 155.713 21.6432)" fill="white" fill-opacity="0.15"/>
<circle r="4.92983" transform="matrix(-1 0 0 1 139.28 21.6432)" fill="white" fill-opacity="0.15"/>
<circle r="4.92983" transform="matrix(-1 0 0 1 122.847 21.6432)" fill="white" fill-opacity="0.15"/>
<circle r="4.92983" transform="matrix(-1 0 0 1 106.414 21.6432)" fill="white" fill-opacity="0.15"/>
<circle r="4.92983" transform="matrix(-1 0 0 1 89.9813 21.6432)" fill="white" fill-opacity="0.15"/>
<circle r="4.92983" transform="matrix(-1 0 0 1 73.5487 21.6432)" fill="white" fill-opacity="0.15"/>
<circle r="4.92983" transform="matrix(-1 0 0 1 57.1158 21.6432)" fill="white" fill-opacity="0.15"/>
<circle r="4.92983" transform="matrix(-1 0 0 1 40.6832 21.6432)" fill="white" fill-opacity="0.15"/>
<circle r="4.92983" transform="matrix(-1 0 0 1 369.338 38.0755)" fill="white" fill-opacity="0.15"/>
<circle r="4.92983" transform="matrix(-1 0 0 1 352.906 38.0755)" fill="white" fill-opacity="0.15"/>
<circle r="4.92983" transform="matrix(-1 0 0 1 336.473 38.0755)" fill="white" fill-opacity="0.15"/>
<circle r="4.92983" transform="matrix(-1 0 0 1 320.04 38.0755)" fill="white" fill-opacity="0.15"/>
<circle r="4.92983" transform="matrix(-1 0 0 1 303.607 38.0755)" fill="white" fill-opacity="0.15"/>
<circle r="4.92983" transform="matrix(-1 0 0 1 287.174 38.0755)" fill="white" fill-opacity="0.15"/>
<circle r="4.92983" transform="matrix(-1 0 0 1 270.742 38.0755)" fill="white" fill-opacity="0.15"/>
<circle r="4.92983" transform="matrix(-1 0 0 1 254.309 38.0755)" fill="white" fill-opacity="0.15"/>
<circle r="4.92983" transform="matrix(-1 0 0 1 237.876 38.0755)" fill="white" fill-opacity="0.15"/>
<circle r="4.92983" transform="matrix(-1 0 0 1 205.011 38.0755)" fill="white" fill-opacity="0.15"/>
<circle r="4.92983" transform="matrix(-1 0 0 1 188.578 38.0755)" fill="white" fill-opacity="0.15"/>
<circle r="4.92983" transform="matrix(-1 0 0 1 172.145 38.0755)" fill="white" fill-opacity="0.15"/>
<circle r="4.92983" transform="matrix(-1 0 0 1 155.713 38.0755)" fill="white" fill-opacity="0.15"/>
<circle r="4.92983" transform="matrix(-1 0 0 1 139.28 38.0755)" fill="white" fill-opacity="0.15"/>
<circle r="4.92983" transform="matrix(-1 0 0 1 122.847 38.0755)" fill="white" fill-opacity="0.15"/>
<circle r="4.92983" transform="matrix(-1 0 0 1 106.414 38.0755)" fill="white" fill-opacity="0.15"/>
<circle r="4.92983" transform="matrix(-1 0 0 1 89.9813 38.0755)" fill="white" fill-opacity="0.15"/>
<circle r="4.92983" transform="matrix(-1 0 0 1 73.5487 38.0755)" fill="white" fill-opacity="0.15"/>
<circle r="4.92983" transform="matrix(-1 0 0 1 57.1158 38.0755)" fill="white" fill-opacity="0.15"/>
<circle r="4.92983" transform="matrix(-1 0 0 1 40.6832 38.0755)" fill="white" fill-opacity="0.15"/>
<circle r="4.92983" transform="matrix(-1 0 0 1 369.338 54.5083)" fill="white" fill-opacity="0.15"/>
<circle r="4.92983" transform="matrix(-1 0 0 1 352.906 54.5083)" fill="white" fill-opacity="0.15"/>
<circle r="4.92983" transform="matrix(-1 0 0 1 336.473 54.5083)" fill="white" fill-opacity="0.15"/>
<circle r="4.92983" transform="matrix(-1 0 0 1 320.04 54.5083)" fill="white" fill-opacity="0.15"/>
<circle r="4.92983" transform="matrix(-1 0 0 1 303.607 54.5083)" fill="white" fill-opacity="0.15"/>
<circle r="4.92983" transform="matrix(-1 0 0 1 287.174 54.5083)" fill="white" fill-opacity="0.15"/>
<circle r="4.92983" transform="matrix(-1 0 0 1 270.742 54.5083)" fill="white" fill-opacity="0.15"/>
<circle r="4.92983" transform="matrix(-1 0 0 1 254.309 54.5083)" fill="white" fill-opacity="0.15"/>
<circle r="4.92983" transform="matrix(-1 0 0 1 237.876 54.5083)" fill="white" fill-opacity="0.15"/>
<circle r="4.92983" transform="matrix(-1 0 0 1 221.443 54.5083)" fill="white" fill-opacity="0.15"/>
<circle r="4.92983" transform="matrix(-1 0 0 1 205.011 54.5083)" fill="white" fill-opacity="0.15"/>
<circle r="4.92983" transform="matrix(-1 0 0 1 172.145 54.5083)" fill="white" fill-opacity="0.15"/>
<circle r="4.92983" transform="matrix(-1 0 0 1 155.713 54.5083)" fill="white" fill-opacity="0.15"/>
<circle r="4.92983" transform="matrix(-1 0 0 1 139.28 54.5083)" fill="white" fill-opacity="0.15"/>
<circle r="4.92983" transform="matrix(-1 0 0 1 122.847 54.5083)" fill="white" fill-opacity="0.15"/>
<circle r="4.92983" transform="matrix(-1 0 0 1 106.414 54.5083)" fill="white" fill-opacity="0.15"/>
<circle r="4.92983" transform="matrix(-1 0 0 1 89.9813 54.5083)" fill="white" fill-opacity="0.15"/>
<circle r="4.92983" transform="matrix(-1 0 0 1 73.5487 54.5083)" fill="white" fill-opacity="0.15"/>
<circle r="4.92983" transform="matrix(-1 0 0 1 57.1158 54.5083)" fill="white" fill-opacity="0.15"/>
<circle r="4.92983" transform="matrix(-1 0 0 1 40.6832 54.5083)" fill="white" fill-opacity="0.15"/>
<circle r="4.92983" transform="matrix(-1 0 0 1 369.338 70.9412)" fill="white" fill-opacity="0.15"/>
<circle r="4.92983" transform="matrix(-1 0 0 1 352.906 70.9412)" fill="white" fill-opacity="0.15"/>
<circle r="4.92983" transform="matrix(-1 0 0 1 336.473 70.9412)" fill="white" fill-opacity="0.15"/>
<circle r="4.92983" transform="matrix(-1 0 0 1 320.04 70.9412)" fill="white" fill-opacity="0.15"/>
<circle r="4.92983" transform="matrix(-1 0 0 1 303.607 70.9412)" fill="white" fill-opacity="0.15"/>
<circle r="4.92983" transform="matrix(-1 0 0 1 287.174 70.9412)" fill="white" fill-opacity="0.15"/>
<circle r="4.92983" transform="matrix(-1 0 0 1 270.742 70.9412)" fill="white" fill-opacity="0.15"/>
<circle r="4.92983" transform="matrix(-1 0 0 1 254.309 70.9412)" fill="white" fill-opacity="0.15"/>
<circle r="4.92983" transform="matrix(-1 0 0 1 237.876 70.9412)" fill="white" fill-opacity="0.15"/>
<circle r="4.92983" transform="matrix(-1 0 0 1 221.443 70.9412)" fill="white" fill-opacity="0.15"/>
<circle r="4.92983" transform="matrix(-1 0 0 1 205.011 70.9412)" fill="white" fill-opacity="0.15"/>
<circle r="4.92983" transform="matrix(-1 0 0 1 188.578 70.9412)" fill="white" fill-opacity="0.15"/>
<circle r="4.92983" transform="matrix(-1 0 0 1 155.713 70.9412)" fill="white" fill-opacity="0.15"/>
<circle r="4.92983" transform="matrix(-1 0 0 1 139.28 70.9412)" fill="white" fill-opacity="0.15"/>
<circle r="4.92983" transform="matrix(-1 0 0 1 122.847 70.9412)" fill="white" fill-opacity="0.15"/>
<circle r="4.92983" transform="matrix(-1 0 0 1 106.414 70.9412)" fill="white" fill-opacity="0.15"/>
<circle r="4.92983" transform="matrix(-1 0 0 1 89.9813 70.9412)" fill="white" fill-opacity="0.15"/>
<circle r="4.92983" transform="matrix(-1 0 0 1 73.5487 70.9412)" fill="white" fill-opacity="0.15"/>
<circle r="4.92983" transform="matrix(-1 0 0 1 57.1158 70.9412)" fill="white" fill-opacity="0.15"/>
<circle r="4.92983" transform="matrix(-1 0 0 1 40.6832 70.9412)" fill="white" fill-opacity="0.15"/>
<circle r="4.92983" transform="matrix(-1 0 0 1 385.771 87.374)" fill="white" fill-opacity="0.15"/>
<circle r="4.92983" transform="matrix(-1 0 0 1 369.338 87.374)" fill="white" fill-opacity="0.15"/>
<circle r="4.92983" transform="matrix(-1 0 0 1 352.906 87.374)" fill="white" fill-opacity="0.15"/>
<circle r="4.92983" transform="matrix(-1 0 0 1 336.473 87.374)" fill="white" fill-opacity="0.15"/>
<circle r="4.92983" transform="matrix(-1 0 0 1 320.04 87.374)" fill="white" fill-opacity="0.15"/>
<circle r="4.92983" transform="matrix(-1 0 0 1 303.607 87.374)" fill="white" fill-opacity="0.15"/>
<circle r="4.92983" transform="matrix(-1 0 0 1 287.174 87.374)" fill="white" fill-opacity="0.15"/>
<circle r="4.92983" transform="matrix(-1 0 0 1 270.742 87.374)" fill="white" fill-opacity="0.15"/>
<circle r="4.92983" transform="matrix(-1 0 0 1 254.309 87.374)" fill="white" fill-opacity="0.15"/>
<circle r="4.92983" transform="matrix(-1 0 0 1 237.876 87.374)" fill="white" fill-opacity="0.15"/>
<circle r="4.92983" transform="matrix(-1 0 0 1 221.443 87.374)" fill="white" fill-opacity="0.15"/>
<circle r="4.92983" transform="matrix(-1 0 0 1 205.011 87.374)" fill="white" fill-opacity="0.15"/>
<circle r="4.92983" transform="matrix(-1 0 0 1 188.578 87.374)" fill="white" fill-opacity="0.15"/>
<circle r="4.92983" transform="matrix(-1 0 0 1 172.145 87.374)" fill="white" fill-opacity="0.15"/>
<circle r="4.92983" transform="matrix(-1 0 0 1 155.713 87.374)" fill="white" fill-opacity="0.15"/>
<circle r="4.92983" transform="matrix(-1 0 0 1 122.847 87.374)" fill="white" fill-opacity="0.15"/>
<circle r="4.92983" transform="matrix(-1 0 0 1 106.414 87.374)" fill="white" fill-opacity="0.15"/>
<circle r="4.92983" transform="matrix(-1 0 0 1 89.9813 87.374)" fill="white" fill-opacity="0.15"/>
<circle r="4.92983" transform="matrix(-1 0 0 1 73.5487 87.374)" fill="white" fill-opacity="0.15"/>
<circle r="4.92983" transform="matrix(-1 0 0 1 57.1158 87.374)" fill="white" fill-opacity="0.15"/>
<circle r="4.92983" transform="matrix(-1 0 0 1 40.6832 87.374)" fill="white" fill-opacity="0.15"/>
<circle r="4.92983" transform="matrix(-1 0 0 1 385.771 103.807)" fill="white" fill-opacity="0.15"/>
<circle r="4.92983" transform="matrix(-1 0 0 1 369.338 103.807)" fill="white" fill-opacity="0.15"/>
<circle r="4.92983" transform="matrix(-1 0 0 1 352.906 103.807)" fill="white" fill-opacity="0.15"/>
<circle r="4.92983" transform="matrix(-1 0 0 1 336.473 103.807)" fill="white" fill-opacity="0.15"/>
<circle r="4.92983" transform="matrix(-1 0 0 1 320.04 103.807)" fill="white" fill-opacity="0.15"/>
<circle r="4.92983" transform="matrix(-1 0 0 1 303.607 103.807)" fill="white" fill-opacity="0.15"/>
<circle r="4.92983" transform="matrix(-1 0 0 1 287.174 103.807)" fill="white" fill-opacity="0.15"/>
<circle r="4.92983" transform="matrix(-1 0 0 1 270.742 103.807)" fill="white" fill-opacity="0.15"/>
<circle r="4.92983" transform="matrix(-1 0 0 1 254.309 103.807)" fill="white" fill-opacity="0.15"/>
<circle r="4.92983" transform="matrix(-1 0 0 1 237.876 103.807)" fill="white" fill-opacity="0.15"/>
<circle r="4.92983" transform="matrix(-1 0 0 1 221.443 103.807)" fill="white" fill-opacity="0.15"/>
<circle r="4.92983" transform="matrix(-1 0 0 1 205.011 103.807)" fill="white" fill-opacity="0.15"/>
<circle r="4.92983" transform="matrix(-1 0 0 1 188.578 103.807)" fill="white" fill-opacity="0.15"/>
<circle r="4.92983" transform="matrix(-1 0 0 1 172.145 103.807)" fill="white" fill-opacity="0.15"/>
<circle r="4.92983" transform="matrix(-1 0 0 1 155.713 103.807)" fill="white" fill-opacity="0.15"/>
<circle r="4.92983" transform="matrix(-1 0 0 1 139.28 103.807)" fill="white" fill-opacity="0.15"/>
<circle r="4.92983" transform="matrix(-1 0 0 1 106.414 103.807)" fill="white" fill-opacity="0.15"/>
<circle r="4.92983" transform="matrix(-1 0 0 1 89.9813 103.807)" fill="white" fill-opacity="0.15"/>
<circle r="4.92983" transform="matrix(-1 0 0 1 73.5487 103.807)" fill="white" fill-opacity="0.15"/>
<circle r="4.92983" transform="matrix(-1 0 0 1 57.1158 103.807)" fill="white" fill-opacity="0.15"/>
<circle r="4.92983" transform="matrix(-1 0 0 1 40.6832 103.807)" fill="white" fill-opacity="0.15"/>
<circle r="4.92983" transform="matrix(-1 0 0 1 385.771 120.24)" fill="white" fill-opacity="0.15"/>
<circle r="4.92983" transform="matrix(-1 0 0 1 369.338 120.24)" fill="white" fill-opacity="0.15"/>
<circle r="4.92983" transform="matrix(-1 0 0 1 352.906 120.24)" fill="white" fill-opacity="0.15"/>
<circle r="4.92983" transform="matrix(-1 0 0 1 336.473 120.24)" fill="white" fill-opacity="0.15"/>
<circle r="4.92983" transform="matrix(-1 0 0 1 320.04 120.24)" fill="white" fill-opacity="0.15"/>
<circle r="4.92983" transform="matrix(-1 0 0 1 303.607 120.24)" fill="white" fill-opacity="0.15"/>
<circle r="4.92983" transform="matrix(-1 0 0 1 287.174 120.24)" fill="white" fill-opacity="0.15"/>
<circle r="4.92983" transform="matrix(-1 0 0 1 270.742 120.24)" fill="white" fill-opacity="0.15"/>
<circle r="4.92983" transform="matrix(-1 0 0 1 254.309 120.24)" fill="white" fill-opacity="0.15"/>
<circle r="4.92983" transform="matrix(-1 0 0 1 237.876 120.24)" fill="white" fill-opacity="0.15"/>
<circle r="4.92983" transform="matrix(-1 0 0 1 221.443 120.24)" fill="white" fill-opacity="0.15"/>
<circle r="4.92983" transform="matrix(-1 0 0 1 205.011 120.24)" fill="white" fill-opacity="0.15"/>
<circle r="4.92983" transform="matrix(-1 0 0 1 188.578 120.24)" fill="white" fill-opacity="0.15"/>
<circle r="4.92983" transform="matrix(-1 0 0 1 172.145 120.24)" fill="white" fill-opacity="0.15"/>
<circle r="4.92983" transform="matrix(-1 0 0 1 155.713 120.24)" fill="white" fill-opacity="0.15"/>
<circle r="4.92983" transform="matrix(-1 0 0 1 139.28 120.24)" fill="white" fill-opacity="0.15"/>
<circle r="4.92983" transform="matrix(-1 0 0 1 122.847 120.24)" fill="white" fill-opacity="0.15"/>
<circle r="4.92983" transform="matrix(-1 0 0 1 89.9813 120.24)" fill="white" fill-opacity="0.15"/>
<circle r="4.92983" transform="matrix(-1 0 0 1 73.5487 120.24)" fill="white" fill-opacity="0.15"/>
<circle r="4.92983" transform="matrix(-1 0 0 1 57.1158 120.24)" fill="white" fill-opacity="0.15"/>
<circle r="4.92983" transform="matrix(-1 0 0 1 40.6832 120.24)" fill="white" fill-opacity="0.15"/>
<circle r="4.92983" transform="matrix(-1 0 0 1 385.771 136.672)" fill="white" fill-opacity="0.15"/>
<circle r="4.92983" transform="matrix(-1 0 0 1 369.338 136.672)" fill="white" fill-opacity="0.15"/>
<circle r="4.92983" transform="matrix(-1 0 0 1 352.906 136.672)" fill="white" fill-opacity="0.15"/>
<circle r="4.92983" transform="matrix(-1 0 0 1 336.473 136.672)" fill="white" fill-opacity="0.15"/>
<circle r="4.92983" transform="matrix(-1 0 0 1 320.04 136.672)" fill="white" fill-opacity="0.15"/>
<circle r="4.92983" transform="matrix(-1 0 0 1 303.607 136.672)" fill="white" fill-opacity="0.15"/>
<circle r="4.92983" transform="matrix(-1 0 0 1 287.174 136.672)" fill="white" fill-opacity="0.15"/>
<circle r="4.92983" transform="matrix(-1 0 0 1 270.742 136.672)" fill="white" fill-opacity="0.15"/>
<circle r="4.92983" transform="matrix(-1 0 0 1 254.309 136.672)" fill="white" fill-opacity="0.15"/>
<circle r="4.92983" transform="matrix(-1 0 0 1 237.876 136.672)" fill="white" fill-opacity="0.15"/>
<circle r="4.92983" transform="matrix(-1 0 0 1 221.443 136.672)" fill="white" fill-opacity="0.15"/>
<circle r="4.92983" transform="matrix(-1 0 0 1 205.011 136.672)" fill="white" fill-opacity="0.15"/>
<circle r="4.92983" transform="matrix(-1 0 0 1 188.578 136.672)" fill="white" fill-opacity="0.15"/>
<circle r="4.92983" transform="matrix(-1 0 0 1 172.145 136.672)" fill="white" fill-opacity="0.15"/>
<circle r="4.92983" transform="matrix(-1 0 0 1 155.713 136.672)" fill="white" fill-opacity="0.15"/>
<circle r="4.92983" transform="matrix(-1 0 0 1 139.28 136.672)" fill="white" fill-opacity="0.15"/>
<circle r="4.92983" transform="matrix(-1 0 0 1 122.847 136.672)" fill="white" fill-opacity="0.15"/>
<circle r="4.92983" transform="matrix(-1 0 0 1 106.414 136.672)" fill="white" fill-opacity="0.15"/>
<circle r="4.92983" transform="matrix(-1 0 0 1 89.9813 136.672)" fill="white" fill-opacity="0.15"/>
<circle r="4.92983" transform="matrix(-1 0 0 1 57.1158 136.672)" fill="white" fill-opacity="0.15"/>
<circle r="4.92983" transform="matrix(-1 0 0 1 40.6832 136.672)" fill="white" fill-opacity="0.15"/>
<circle r="4.92983" transform="matrix(-1 0 0 1 385.771 153.105)" fill="white" fill-opacity="0.15"/>
<circle r="4.92983" transform="matrix(-1 0 0 1 369.338 153.105)" fill="white" fill-opacity="0.15"/>
<circle r="4.92983" transform="matrix(-1 0 0 1 352.906 153.105)" fill="white" fill-opacity="0.15"/>
<circle r="4.92983" transform="matrix(-1 0 0 1 336.473 153.105)" fill="white" fill-opacity="0.15"/>
<circle r="4.92983" transform="matrix(-1 0 0 1 320.04 153.105)" fill="white" fill-opacity="0.15"/>
<circle r="4.92983" transform="matrix(-1 0 0 1 303.607 153.105)" fill="white" fill-opacity="0.15"/>
<circle r="4.92983" transform="matrix(-1 0 0 1 287.174 153.105)" fill="white" fill-opacity="0.15"/>
<circle r="4.92983" transform="matrix(-1 0 0 1 270.742 153.105)" fill="white" fill-opacity="0.15"/>
<circle r="4.92983" transform="matrix(-1 0 0 1 254.309 153.105)" fill="white" fill-opacity="0.15"/>
<circle r="4.92983" transform="matrix(-1 0 0 1 237.876 153.105)" fill="white" fill-opacity="0.15"/>
<circle r="4.92983" transform="matrix(-1 0 0 1 221.443 153.105)" fill="white" fill-opacity="0.15"/>
<circle r="4.92983" transform="matrix(-1 0 0 1 205.011 153.105)" fill="white" fill-opacity="0.15"/>
<circle r="4.92983" transform="matrix(-1 0 0 1 188.578 153.105)" fill="white" fill-opacity="0.15"/>
<circle r="4.92983" transform="matrix(-1 0 0 1 172.145 153.105)" fill="white" fill-opacity="0.15"/>
<circle r="4.92983" transform="matrix(-1 0 0 1 155.713 153.105)" fill="white" fill-opacity="0.15"/>
<circle r="4.92983" transform="matrix(-1 0 0 1 139.28 153.105)" fill="white" fill-opacity="0.15"/>
<circle r="4.92983" transform="matrix(-1 0 0 1 122.847 153.105)" fill="white" fill-opacity="0.15"/>
<circle r="4.92983" transform="matrix(-1 0 0 1 106.414 153.105)" fill="white" fill-opacity="0.15"/>
<circle r="4.92983" transform="matrix(-1 0 0 1 89.9813 153.105)" fill="white" fill-opacity="0.15"/>
<circle r="4.92983" transform="matrix(-1 0 0 1 73.5487 153.105)" fill="white" fill-opacity="0.15"/>
<circle r="4.92983" transform="matrix(-1 0 0 1 40.6832 153.105)" fill="white" fill-opacity="0.15"/>
<circle r="4.92983" transform="matrix(-1 0 0 1 385.771 169.538)" fill="white" fill-opacity="0.15"/>
<circle r="4.92983" transform="matrix(-1 0 0 1 369.338 169.538)" fill="white" fill-opacity="0.15"/>
<circle r="4.92983" transform="matrix(-1 0 0 1 352.906 169.538)" fill="white" fill-opacity="0.15"/>
<circle r="4.92983" transform="matrix(-1 0 0 1 336.473 169.538)" fill="white" fill-opacity="0.15"/>
<circle r="4.92983" transform="matrix(-1 0 0 1 320.04 169.538)" fill="white" fill-opacity="0.15"/>
<circle r="4.92983" transform="matrix(-1 0 0 1 303.607 169.538)" fill="white" fill-opacity="0.15"/>
<circle r="4.92983" transform="matrix(-1 0 0 1 287.174 169.538)" fill="white" fill-opacity="0.15"/>
<circle r="4.92983" transform="matrix(-1 0 0 1 270.742 169.538)" fill="white" fill-opacity="0.15"/>
<circle r="4.92983" transform="matrix(-1 0 0 1 254.309 169.538)" fill="white" fill-opacity="0.15"/>
<circle r="4.92983" transform="matrix(-1 0 0 1 237.876 169.538)" fill="white" fill-opacity="0.15"/>
<circle r="4.92983" transform="matrix(-1 0 0 1 221.443 169.538)" fill="white" fill-opacity="0.15"/>
<circle r="4.92983" transform="matrix(-1 0 0 1 205.011 169.538)" fill="white" fill-opacity="0.15"/>
<circle r="4.92983" transform="matrix(-1 0 0 1 188.578 169.538)" fill="white" fill-opacity="0.15"/>
<circle r="4.92983" transform="matrix(-1 0 0 1 172.145 169.538)" fill="white" fill-opacity="0.15"/>
<circle r="4.92983" transform="matrix(-1 0 0 1 155.713 169.538)" fill="white" fill-opacity="0.15"/>
<circle r="4.92983" transform="matrix(-1 0 0 1 139.28 169.538)" fill="white" fill-opacity="0.15"/>
<circle r="4.92983" transform="matrix(-1 0 0 1 122.847 169.538)" fill="white" fill-opacity="0.15"/>
<circle r="4.92983" transform="matrix(-1 0 0 1 106.414 169.538)" fill="white" fill-opacity="0.15"/>
<circle r="4.92983" transform="matrix(-1 0 0 1 89.9813 169.538)" fill="white" fill-opacity="0.15"/>
<circle r="4.92983" transform="matrix(-1 0 0 1 73.5487 169.538)" fill="white" fill-opacity="0.15"/>
<circle r="4.92983" transform="matrix(-1 0 0 1 57.1158 169.538)" fill="white" fill-opacity="0.15"/>
<circle r="4.92983" transform="matrix(-1 0 0 1 40.6832 169.538)" fill="white" fill-opacity="0.15"/>
<circle r="4.92983" transform="matrix(-1 0 0 1 385.771 185.971)" fill="white" fill-opacity="0.15"/>
<circle r="4.92983" transform="matrix(-1 0 0 1 369.338 185.971)" fill="white" fill-opacity="0.15"/>
<circle r="4.92983" transform="matrix(-1 0 0 1 352.906 185.971)" fill="white" fill-opacity="0.15"/>
<circle r="4.92983" transform="matrix(-1 0 0 1 336.473 185.971)" fill="white" fill-opacity="0.15"/>
<circle r="4.92983" transform="matrix(-1 0 0 1 320.04 185.971)" fill="white" fill-opacity="0.15"/>
<circle r="4.92983" transform="matrix(-1 0 0 1 303.607 185.971)" fill="white" fill-opacity="0.15"/>
<circle r="4.92983" transform="matrix(-1 0 0 1 287.174 185.971)" fill="white" fill-opacity="0.15"/>
<circle r="4.92983" transform="matrix(-1 0 0 1 270.742 185.971)" fill="white" fill-opacity="0.15"/>
<circle r="4.92983" transform="matrix(-1 0 0 1 254.309 185.971)" fill="white" fill-opacity="0.15"/>
<circle r="4.92983" transform="matrix(-1 0 0 1 237.876 185.971)" fill="white" fill-opacity="0.15"/>
<circle r="4.92983" transform="matrix(-1 0 0 1 221.443 185.971)" fill="white" fill-opacity="0.15"/>
<circle r="4.92983" transform="matrix(-1 0 0 1 205.011 185.971)" fill="white" fill-opacity="0.15"/>
<circle r="4.92983" transform="matrix(-1 0 0 1 188.578 185.971)" fill="white" fill-opacity="0.15"/>
<circle r="4.92983" transform="matrix(-1 0 0 1 172.145 185.971)" fill="white" fill-opacity="0.15"/>
<circle r="4.92983" transform="matrix(-1 0 0 1 155.713 185.971)" fill="white" fill-opacity="0.15"/>
<circle r="4.92983" transform="matrix(-1 0 0 1 139.28 185.971)" fill="white" fill-opacity="0.15"/>
<circle r="4.92983" transform="matrix(-1 0 0 1 122.847 185.971)" fill="white" fill-opacity="0.15"/>
<circle r="4.92983" transform="matrix(-1 0 0 1 106.414 185.971)" fill="white" fill-opacity="0.15"/>
<circle r="4.92983" transform="matrix(-1 0 0 1 89.9813 185.971)" fill="white" fill-opacity="0.15"/>
<circle r="4.92983" transform="matrix(-1 0 0 1 73.5487 185.971)" fill="white" fill-opacity="0.15"/>
<circle r="4.92983" transform="matrix(-1 0 0 1 57.1158 185.971)" fill="white" fill-opacity="0.15"/>
<circle r="4.92983" transform="matrix(-1 0 0 1 385.771 202.403)" fill="white" fill-opacity="0.15"/>
<circle r="4.92983" transform="matrix(-1 0 0 1 369.338 202.403)" fill="white" fill-opacity="0.15"/>
<circle r="4.92983" transform="matrix(-1 0 0 1 352.906 202.403)" fill="white" fill-opacity="0.15"/>
<circle r="4.92983" transform="matrix(-1 0 0 1 336.473 202.403)" fill="white" fill-opacity="0.15"/>
<circle r="4.92983" transform="matrix(-1 0 0 1 320.04 202.403)" fill="white" fill-opacity="0.15"/>
<circle r="4.92983" transform="matrix(-1 0 0 1 303.607 202.403)" fill="white" fill-opacity="0.15"/>
<circle r="4.92983" transform="matrix(-1 0 0 1 287.174 202.403)" fill="white" fill-opacity="0.15"/>
<circle r="4.92983" transform="matrix(-1 0 0 1 270.742 202.403)" fill="white" fill-opacity="0.15"/>
<circle r="4.92983" transform="matrix(-1 0 0 1 254.309 202.403)" fill="white" fill-opacity="0.15"/>
<circle r="4.92983" transform="matrix(-1 0 0 1 237.876 202.403)" fill="white" fill-opacity="0.15"/>
<circle r="4.92983" transform="matrix(-1 0 0 1 221.443 202.403)" fill="white" fill-opacity="0.15"/>
<circle r="4.92983" transform="matrix(-1 0 0 1 205.011 202.403)" fill="white" fill-opacity="0.15"/>
<circle r="4.92983" transform="matrix(-1 0 0 1 188.578 202.403)" fill="white" fill-opacity="0.15"/>
<circle r="4.92983" transform="matrix(-1 0 0 1 172.145 202.403)" fill="white" fill-opacity="0.15"/>
<circle r="4.92983" transform="matrix(-1 0 0 1 155.713 202.403)" fill="white" fill-opacity="0.15"/>
<circle r="4.92983" transform="matrix(-1 0 0 1 139.28 202.403)" fill="white" fill-opacity="0.15"/>
<circle r="4.92983" transform="matrix(-1 0 0 1 122.847 202.403)" fill="white" fill-opacity="0.15"/>
<circle r="4.92983" transform="matrix(-1 0 0 1 106.414 202.403)" fill="white" fill-opacity="0.15"/>
<circle r="4.92983" transform="matrix(-1 0 0 1 89.9813 202.403)" fill="white" fill-opacity="0.15"/>
<circle r="4.92983" transform="matrix(-1 0 0 1 73.5487 202.403)" fill="white" fill-opacity="0.15"/>
<circle r="4.92983" transform="matrix(-1 0 0 1 57.1158 202.403)" fill="white" fill-opacity="0.15"/>
<circle r="4.92983" transform="matrix(-1 0 0 1 385.771 218.836)" fill="white" fill-opacity="0.15"/>
<circle r="4.92983" transform="matrix(-1 0 0 1 369.338 218.836)" fill="white" fill-opacity="0.15"/>
<circle r="4.92983" transform="matrix(-1 0 0 1 352.906 218.836)" fill="white" fill-opacity="0.15"/>
<circle r="4.92983" transform="matrix(-1 0 0 1 336.473 218.836)" fill="white" fill-opacity="0.15"/>
<circle r="4.92983" transform="matrix(-1 0 0 1 320.04 218.836)" fill="white" fill-opacity="0.15"/>
<circle r="4.92983" transform="matrix(-1 0 0 1 303.607 218.836)" fill="white" fill-opacity="0.15"/>
<circle r="4.92983" transform="matrix(-1 0 0 1 287.174 218.836)" fill="white" fill-opacity="0.15"/>
<circle r="4.92983" transform="matrix(-1 0 0 1 270.742 218.836)" fill="white" fill-opacity="0.15"/>
<circle r="4.92983" transform="matrix(-1 0 0 1 254.309 218.836)" fill="white" fill-opacity="0.15"/>
<circle r="4.92983" transform="matrix(-1 0 0 1 237.876 218.836)" fill="white" fill-opacity="0.15"/>
<circle r="4.92983" transform="matrix(-1 0 0 1 221.443 218.836)" fill="white" fill-opacity="0.15"/>
<circle r="4.92983" transform="matrix(-1 0 0 1 205.011 218.836)" fill="white" fill-opacity="0.15"/>
<circle r="4.92983" transform="matrix(-1 0 0 1 188.578 218.836)" fill="white" fill-opacity="0.15"/>
<circle r="4.92983" transform="matrix(-1 0 0 1 172.145 218.836)" fill="white" fill-opacity="0.15"/>
<circle r="4.92983" transform="matrix(-1 0 0 1 155.713 218.836)" fill="white" fill-opacity="0.15"/>
<circle r="4.92983" transform="matrix(-1 0 0 1 139.28 218.836)" fill="white" fill-opacity="0.15"/>
<circle r="4.92983" transform="matrix(-1 0 0 1 122.847 218.836)" fill="white" fill-opacity="0.15"/>
<circle r="4.92983" transform="matrix(-1 0 0 1 106.414 218.836)" fill="white" fill-opacity="0.15"/>
<circle r="4.92983" transform="matrix(-1 0 0 1 89.9813 218.836)" fill="white" fill-opacity="0.15"/>
<circle r="4.92983" transform="matrix(-1 0 0 1 73.5487 218.836)" fill="white" fill-opacity="0.15"/>
<circle r="4.92983" transform="matrix(-1 0 0 1 57.1158 218.836)" fill="white" fill-opacity="0.15"/>
<circle r="4.92983" transform="matrix(-1 0 0 1 40.6832 218.836)" fill="white" fill-opacity="0.15"/>
<circle r="4.92983" transform="matrix(-1 0 0 1 385.771 235.269)" fill="white" fill-opacity="0.15"/>
<circle r="4.92983" transform="matrix(-1 0 0 1 369.338 235.269)" fill="white" fill-opacity="0.15"/>
<circle r="4.92983" transform="matrix(-1 0 0 1 352.906 235.269)" fill="white" fill-opacity="0.15"/>
<circle r="4.92983" transform="matrix(-1 0 0 1 336.473 235.269)" fill="white" fill-opacity="0.15"/>
<circle r="4.92983" transform="matrix(-1 0 0 1 320.04 235.269)" fill="white" fill-opacity="0.15"/>
<circle r="4.92983" transform="matrix(-1 0 0 1 303.607 235.269)" fill="white" fill-opacity="0.15"/>
<circle r="4.92983" transform="matrix(-1 0 0 1 287.174 235.269)" fill="white" fill-opacity="0.15"/>
<circle r="4.92983" transform="matrix(-1 0 0 1 270.742 235.269)" fill="white" fill-opacity="0.15"/>
<circle r="4.92983" transform="matrix(-1 0 0 1 254.309 235.269)" fill="white" fill-opacity="0.15"/>
<circle r="4.92983" transform="matrix(-1 0 0 1 237.876 235.269)" fill="white" fill-opacity="0.15"/>
<circle r="4.92983" transform="matrix(-1 0 0 1 221.443 235.269)" fill="white" fill-opacity="0.15"/>
<circle r="4.92983" transform="matrix(-1 0 0 1 205.011 235.269)" fill="white" fill-opacity="0.15"/>
<circle r="4.92983" transform="matrix(-1 0 0 1 188.578 235.269)" fill="white" fill-opacity="0.15"/>
<circle r="4.92983" transform="matrix(-1 0 0 1 172.145 235.269)" fill="white" fill-opacity="0.15"/>
<circle r="4.92983" transform="matrix(-1 0 0 1 155.713 235.269)" fill="white" fill-opacity="0.15"/>
<circle r="4.92983" transform="matrix(-1 0 0 1 139.28 235.269)" fill="white" fill-opacity="0.15"/>
<circle r="4.92983" transform="matrix(-1 0 0 1 122.847 235.269)" fill="white" fill-opacity="0.15"/>
<circle r="4.92983" transform="matrix(-1 0 0 1 106.414 235.269)" fill="white" fill-opacity="0.15"/>
<circle r="4.92983" transform="matrix(-1 0 0 1 89.9813 235.269)" fill="white" fill-opacity="0.15"/>
<circle r="4.92983" transform="matrix(-1 0 0 1 73.5487 235.269)" fill="white" fill-opacity="0.15"/>
<circle r="4.92983" transform="matrix(-1 0 0 1 57.1158 235.269)" fill="white" fill-opacity="0.15"/>
<circle r="4.92983" transform="matrix(-1 0 0 1 385.771 251.702)" fill="white" fill-opacity="0.15"/>
<circle r="4.92983" transform="matrix(-1 0 0 1 369.338 251.702)" fill="white" fill-opacity="0.15"/>
<circle r="4.92983" transform="matrix(-1 0 0 1 352.906 251.702)" fill="white" fill-opacity="0.15"/>
<circle r="4.92983" transform="matrix(-1 0 0 1 336.473 251.702)" fill="white" fill-opacity="0.15"/>
<circle r="4.92983" transform="matrix(-1 0 0 1 320.04 251.702)" fill="white" fill-opacity="0.15"/>
<circle r="4.92983" transform="matrix(-1 0 0 1 303.607 251.702)" fill="white" fill-opacity="0.15"/>
<circle r="4.92983" transform="matrix(-1 0 0 1 287.174 251.702)" fill="white" fill-opacity="0.15"/>
<circle r="4.92983" transform="matrix(-1 0 0 1 270.742 251.702)" fill="white" fill-opacity="0.15"/>
<circle r="4.92983" transform="matrix(-1 0 0 1 254.309 251.702)" fill="white" fill-opacity="0.15"/>
<circle r="4.92983" transform="matrix(-1 0 0 1 237.876 251.702)" fill="white" fill-opacity="0.15"/>
<circle r="4.92983" transform="matrix(-1 0 0 1 221.443 251.702)" fill="white" fill-opacity="0.15"/>
<circle r="4.92983" transform="matrix(-1 0 0 1 205.011 251.702)" fill="white" fill-opacity="0.15"/>
<circle r="4.92983" transform="matrix(-1 0 0 1 188.578 251.702)" fill="white" fill-opacity="0.15"/>
<circle r="4.92983" transform="matrix(-1 0 0 1 172.145 251.702)" fill="white" fill-opacity="0.15"/>
<circle r="4.92983" transform="matrix(-1 0 0 1 155.713 251.702)" fill="white" fill-opacity="0.15"/>
<circle r="4.92983" transform="matrix(-1 0 0 1 139.28 251.702)" fill="white" fill-opacity="0.15"/>
<circle r="4.92983" transform="matrix(-1 0 0 1 122.847 251.702)" fill="white" fill-opacity="0.15"/>
<circle r="4.92983" transform="matrix(-1 0 0 1 106.414 251.702)" fill="white" fill-opacity="0.15"/>
<circle r="4.92983" transform="matrix(-1 0 0 1 89.9813 251.702)" fill="white" fill-opacity="0.15"/>
<circle r="4.92983" transform="matrix(-1 0 0 1 73.5487 251.702)" fill="white" fill-opacity="0.15"/>
<circle r="4.92983" transform="matrix(-1 0 0 1 57.1158 251.702)" fill="white" fill-opacity="0.15"/>
<circle r="4.92983" transform="matrix(-1 0 0 1 385.771 268.134)" fill="white" fill-opacity="0.15"/>
<circle r="4.92983" transform="matrix(-1 0 0 1 369.338 268.134)" fill="white" fill-opacity="0.15"/>
<circle r="4.92983" transform="matrix(-1 0 0 1 352.906 268.134)" fill="white" fill-opacity="0.15"/>
<circle r="4.92983" transform="matrix(-1 0 0 1 336.473 268.134)" fill="white" fill-opacity="0.15"/>
<circle r="4.92983" transform="matrix(-1 0 0 1 320.04 268.134)" fill="white" fill-opacity="0.15"/>
<circle r="4.92983" transform="matrix(-1 0 0 1 303.607 268.134)" fill="white" fill-opacity="0.15"/>
<circle r="4.92983" transform="matrix(-1 0 0 1 287.174 268.134)" fill="white" fill-opacity="0.15"/>
<circle r="4.92983" transform="matrix(-1 0 0 1 270.742 268.134)" fill="white" fill-opacity="0.15"/>
<circle r="4.92983" transform="matrix(-1 0 0 1 254.309 268.134)" fill="white" fill-opacity="0.15"/>
<circle r="4.92983" transform="matrix(-1 0 0 1 237.876 268.134)" fill="white" fill-opacity="0.15"/>
<circle r="4.92983" transform="matrix(-1 0 0 1 221.443 268.134)" fill="white" fill-opacity="0.15"/>
<circle r="4.92983" transform="matrix(-1 0 0 1 205.011 268.134)" fill="white" fill-opacity="0.15"/>
<circle r="4.92983" transform="matrix(-1 0 0 1 188.578 268.134)" fill="white" fill-opacity="0.15"/>
<circle r="4.92983" transform="matrix(-1 0 0 1 172.145 268.134)" fill="white" fill-opacity="0.15"/>
<circle r="4.92983" transform="matrix(-1 0 0 1 155.713 268.134)" fill="white" fill-opacity="0.15"/>
<circle r="4.92983" transform="matrix(-1 0 0 1 139.28 268.134)" fill="white" fill-opacity="0.15"/>
<circle r="4.92983" transform="matrix(-1 0 0 1 122.847 268.134)" fill="white" fill-opacity="0.15"/>
<circle r="4.92983" transform="matrix(-1 0 0 1 106.414 268.134)" fill="white" fill-opacity="0.15"/>
<circle r="4.92983" transform="matrix(-1 0 0 1 89.9813 268.134)" fill="white" fill-opacity="0.15"/>
<circle r="4.92983" transform="matrix(-1 0 0 1 73.5487 268.134)" fill="white" fill-opacity="0.15"/>
<circle r="4.92983" transform="matrix(-1 0 0 1 57.1158 268.134)" fill="white" fill-opacity="0.15"/>
<circle r="4.92983" transform="matrix(-1 0 0 1 40.6832 268.134)" fill="white" fill-opacity="0.15"/>
<circle r="4.92983" transform="matrix(-1 0 0 1 385.771 284.567)" fill="white" fill-opacity="0.15"/>
<circle r="4.92983" transform="matrix(-1 0 0 1 369.338 284.567)" fill="white" fill-opacity="0.15"/>
<circle r="4.92983" transform="matrix(-1 0 0 1 352.906 284.567)" fill="white" fill-opacity="0.15"/>
<circle r="4.92983" transform="matrix(-1 0 0 1 336.473 284.567)" fill="white" fill-opacity="0.15"/>
<circle r="4.92983" transform="matrix(-1 0 0 1 320.04 284.567)" fill="white" fill-opacity="0.15"/>
<circle r="4.92983" transform="matrix(-1 0 0 1 303.607 284.567)" fill="white" fill-opacity="0.15"/>
<circle r="4.92983" transform="matrix(-1 0 0 1 287.174 284.567)" fill="white" fill-opacity="0.15"/>
<circle r="4.92983" transform="matrix(-1 0 0 1 270.742 284.567)" fill="white" fill-opacity="0.15"/>
<circle r="4.92983" transform="matrix(-1 0 0 1 254.309 284.567)" fill="white" fill-opacity="0.15"/>
<circle r="4.92983" transform="matrix(-1 0 0 1 237.876 284.567)" fill="white" fill-opacity="0.15"/>
<circle r="4.92983" transform="matrix(-1 0 0 1 221.443 284.567)" fill="white" fill-opacity="0.15"/>
<circle r="4.92983" transform="matrix(-1 0 0 1 205.011 284.567)" fill="white" fill-opacity="0.15"/>
<circle r="4.92983" transform="matrix(-1 0 0 1 188.578 284.567)" fill="white" fill-opacity="0.15"/>
<circle r="4.92983" transform="matrix(-1 0 0 1 172.145 284.567)" fill="white" fill-opacity="0.15"/>
<circle r="4.92983" transform="matrix(-1 0 0 1 155.713 284.567)" fill="white" fill-opacity="0.15"/>
<circle r="4.92983" transform="matrix(-1 0 0 1 139.28 284.567)" fill="white" fill-opacity="0.15"/>
<circle r="4.92983" transform="matrix(-1 0 0 1 122.847 284.567)" fill="white" fill-opacity="0.15"/>
<circle r="4.92983" transform="matrix(-1 0 0 1 106.414 284.567)" fill="white" fill-opacity="0.15"/>
<circle r="4.92983" transform="matrix(-1 0 0 1 89.9813 284.567)" fill="white" fill-opacity="0.15"/>
<circle r="4.92983" transform="matrix(-1 0 0 1 73.5487 284.567)" fill="white" fill-opacity="0.15"/>
<circle r="4.92983" transform="matrix(-1 0 0 1 57.1158 284.567)" fill="white" fill-opacity="0.15"/>
<circle r="4.92983" transform="matrix(-1 0 0 1 40.6832 284.567)" fill="white" fill-opacity="0.15"/>
<circle r="4.92983" transform="matrix(-1 0 0 1 385.771 301)" fill="white" fill-opacity="0.15"/>
<circle r="4.92983" transform="matrix(-1 0 0 1 369.338 301)" fill="white" fill-opacity="0.15"/>
<circle r="4.92983" transform="matrix(-1 0 0 1 352.906 301)" fill="white" fill-opacity="0.15"/>
<circle r="4.92983" transform="matrix(-1 0 0 1 336.473 301)" fill="white" fill-opacity="0.15"/>
<circle r="4.92983" transform="matrix(-1 0 0 1 320.04 301)" fill="white" fill-opacity="0.15"/>
<circle r="4.92983" transform="matrix(-1 0 0 1 303.607 301)" fill="white" fill-opacity="0.15"/>
<circle r="4.92983" transform="matrix(-1 0 0 1 287.174 301)" fill="white" fill-opacity="0.15"/>
<circle r="4.92983" transform="matrix(-1 0 0 1 270.742 301)" fill="white" fill-opacity="0.15"/>
<circle r="4.92983" transform="matrix(-1 0 0 1 254.309 301)" fill="white" fill-opacity="0.15"/>
<circle r="4.92983" transform="matrix(-1 0 0 1 237.876 301)" fill="white" fill-opacity="0.15"/>
<circle r="4.92983" transform="matrix(-1 0 0 1 221.443 301)" fill="white" fill-opacity="0.15"/>
<circle r="4.92983" transform="matrix(-1 0 0 1 205.011 301)" fill="white" fill-opacity="0.15"/>
<circle r="4.92983" transform="matrix(-1 0 0 1 188.578 301)" fill="white" fill-opacity="0.15"/>
<circle r="4.92983" transform="matrix(-1 0 0 1 172.145 301)" fill="white" fill-opacity="0.15"/>
<circle r="4.92983" transform="matrix(-1 0 0 1 155.713 301)" fill="white" fill-opacity="0.15"/>
<circle r="4.92983" transform="matrix(-1 0 0 1 139.28 301)" fill="white" fill-opacity="0.15"/>
<circle r="4.92983" transform="matrix(-1 0 0 1 122.847 301)" fill="white" fill-opacity="0.15"/>
<circle r="4.92983" transform="matrix(-1 0 0 1 106.414 301)" fill="white" fill-opacity="0.15"/>
<circle r="4.92983" transform="matrix(-1 0 0 1 89.9813 301)" fill="white" fill-opacity="0.15"/>
<circle r="4.92983" transform="matrix(-1 0 0 1 73.5487 301)" fill="white" fill-opacity="0.15"/>
<circle r="4.92983" transform="matrix(-1 0 0 1 57.1158 301)" fill="white" fill-opacity="0.15"/>
<circle r="4.92983" transform="matrix(-1 0 0 1 40.6832 301)" fill="white" fill-opacity="0.15"/>
<circle r="4.92983" transform="matrix(-1 0 0 1 385.771 317.433)" fill="white" fill-opacity="0.15"/>
<circle r="4.92983" transform="matrix(-1 0 0 1 369.338 317.433)" fill="white" fill-opacity="0.15"/>
<circle r="4.92983" transform="matrix(-1 0 0 1 352.906 317.433)" fill="white" fill-opacity="0.15"/>
<circle r="4.92983" transform="matrix(-1 0 0 1 336.473 317.433)" fill="white" fill-opacity="0.15"/>
<circle r="4.92983" transform="matrix(-1 0 0 1 320.04 317.433)" fill="white" fill-opacity="0.15"/>
<circle r="4.92983" transform="matrix(-1 0 0 1 303.607 317.433)" fill="white" fill-opacity="0.15"/>
<circle r="4.92983" transform="matrix(-1 0 0 1 287.174 317.433)" fill="white" fill-opacity="0.15"/>
<circle r="4.92983" transform="matrix(-1 0 0 1 270.742 317.433)" fill="white" fill-opacity="0.15"/>
<circle r="4.92983" transform="matrix(-1 0 0 1 254.309 317.433)" fill="white" fill-opacity="0.15"/>
<circle r="4.92983" transform="matrix(-1 0 0 1 237.876 317.433)" fill="white" fill-opacity="0.15"/>
<circle r="4.92983" transform="matrix(-1 0 0 1 221.443 317.433)" fill="white" fill-opacity="0.15"/>
<circle r="4.92983" transform="matrix(-1 0 0 1 205.011 317.433)" fill="white" fill-opacity="0.15"/>
<circle r="4.92983" transform="matrix(-1 0 0 1 188.578 317.433)" fill="white" fill-opacity="0.15"/>
<circle r="4.92983" transform="matrix(-1 0 0 1 172.145 317.433)" fill="white" fill-opacity="0.15"/>
<circle r="4.92983" transform="matrix(-1 0 0 1 155.713 317.433)" fill="white" fill-opacity="0.15"/>
<circle r="4.92983" transform="matrix(-1 0 0 1 139.28 317.433)" fill="white" fill-opacity="0.15"/>
<circle r="4.92983" transform="matrix(-1 0 0 1 122.847 317.433)" fill="white" fill-opacity="0.15"/>
<circle r="4.92983" transform="matrix(-1 0 0 1 106.414 317.433)" fill="white" fill-opacity="0.15"/>
<circle r="4.92983" transform="matrix(-1 0 0 1 89.9813 317.433)" fill="white" fill-opacity="0.15"/>
<circle r="4.92983" transform="matrix(-1 0 0 1 73.5487 317.433)" fill="white" fill-opacity="0.15"/>
<circle r="4.92983" transform="matrix(-1 0 0 1 57.1158 317.433)" fill="white" fill-opacity="0.15"/>
<circle r="4.92983" transform="matrix(-1 0 0 1 40.6832 317.433)" fill="white" fill-opacity="0.15"/>
<circle r="4.92983" transform="matrix(-1 0 0 1 385.771 333.866)" fill="white" fill-opacity="0.15"/>
<circle r="4.92983" transform="matrix(-1 0 0 1 369.338 333.866)" fill="white" fill-opacity="0.15"/>
<circle r="4.92983" transform="matrix(-1 0 0 1 352.906 333.866)" fill="white" fill-opacity="0.15"/>
<circle r="4.92983" transform="matrix(-1 0 0 1 336.473 333.866)" fill="white" fill-opacity="0.15"/>
<circle r="4.92983" transform="matrix(-1 0 0 1 320.04 333.866)" fill="white" fill-opacity="0.15"/>
<circle r="4.92983" transform="matrix(-1 0 0 1 303.607 333.866)" fill="white" fill-opacity="0.15"/>
<circle r="4.92983" transform="matrix(-1 0 0 1 287.174 333.866)" fill="white" fill-opacity="0.15"/>
<circle r="4.92983" transform="matrix(-1 0 0 1 270.742 333.866)" fill="white" fill-opacity="0.15"/>
<circle r="4.92983" transform="matrix(-1 0 0 1 254.309 333.866)" fill="white" fill-opacity="0.15"/>
<circle r="4.92983" transform="matrix(-1 0 0 1 237.876 333.866)" fill="white" fill-opacity="0.15"/>
<circle r="4.92983" transform="matrix(-1 0 0 1 221.443 333.866)" fill="white" fill-opacity="0.15"/>
<circle r="4.92983" transform="matrix(-1 0 0 1 205.011 333.866)" fill="white" fill-opacity="0.15"/>
<circle r="4.92983" transform="matrix(-1 0 0 1 188.578 333.866)" fill="white" fill-opacity="0.15"/>
<circle r="4.92983" transform="matrix(-1 0 0 1 172.145 333.866)" fill="white" fill-opacity="0.15"/>
<circle r="4.92983" transform="matrix(-1 0 0 1 155.713 333.866)" fill="white" fill-opacity="0.15"/>
<circle r="4.92983" transform="matrix(-1 0 0 1 139.28 333.866)" fill="white" fill-opacity="0.15"/>
<circle r="4.92983" transform="matrix(-1 0 0 1 122.847 333.866)" fill="white" fill-opacity="0.15"/>
<circle r="4.92983" transform="matrix(-1 0 0 1 106.414 333.866)" fill="white" fill-opacity="0.15"/>
<circle r="4.92983" transform="matrix(-1 0 0 1 89.9813 333.866)" fill="white" fill-opacity="0.15"/>
<circle r="4.92983" transform="matrix(-1 0 0 1 73.5487 333.866)" fill="white" fill-opacity="0.15"/>
<circle r="4.92983" transform="matrix(-1 0 0 1 57.1158 333.866)" fill="white" fill-opacity="0.15"/>
<circle r="4.92983" transform="matrix(-1 0 0 1 40.6832 333.866)" fill="white" fill-opacity="0.15"/>
<circle r="4.92983" transform="matrix(-1 0 0 1 385.771 350.299)" fill="white" fill-opacity="0.15"/>
<circle r="4.92983" transform="matrix(-1 0 0 1 369.338 350.299)" fill="white" fill-opacity="0.15"/>
<circle r="4.92983" transform="matrix(-1 0 0 1 352.906 350.299)" fill="white" fill-opacity="0.15"/>
<circle r="4.92983" transform="matrix(-1 0 0 1 336.473 350.299)" fill="white" fill-opacity="0.15"/>
<circle r="4.92983" transform="matrix(-1 0 0 1 320.04 350.299)" fill="white" fill-opacity="0.15"/>
<circle r="4.92983" transform="matrix(-1 0 0 1 303.607 350.299)" fill="white" fill-opacity="0.15"/>
<circle r="4.92983" transform="matrix(-1 0 0 1 287.174 350.299)" fill="white" fill-opacity="0.15"/>
<circle r="4.92983" transform="matrix(-1 0 0 1 270.742 350.299)" fill="white" fill-opacity="0.15"/>
<circle r="4.92983" transform="matrix(-1 0 0 1 254.309 350.299)" fill="white" fill-opacity="0.15"/>
<circle r="4.92983" transform="matrix(-1 0 0 1 237.876 350.299)" fill="white" fill-opacity="0.15"/>
<circle r="4.92983" transform="matrix(-1 0 0 1 221.443 350.299)" fill="white" fill-opacity="0.15"/>
<circle r="4.92983" transform="matrix(-1 0 0 1 205.011 350.299)" fill="white" fill-opacity="0.15"/>
<circle r="4.92983" transform="matrix(-1 0 0 1 188.578 350.299)" fill="white" fill-opacity="0.15"/>
<circle r="4.92983" transform="matrix(-1 0 0 1 172.145 350.299)" fill="white" fill-opacity="0.15"/>
<circle r="4.92983" transform="matrix(-1 0 0 1 155.713 350.299)" fill="white" fill-opacity="0.15"/>
<circle r="4.92983" transform="matrix(-1 0 0 1 139.28 350.299)" fill="white" fill-opacity="0.15"/>
<circle r="4.92983" transform="matrix(-1 0 0 1 122.847 350.299)" fill="white" fill-opacity="0.15"/>
<circle r="4.92983" transform="matrix(-1 0 0 1 106.414 350.299)" fill="white" fill-opacity="0.15"/>
<circle r="4.92983" transform="matrix(-1 0 0 1 89.9813 350.299)" fill="white" fill-opacity="0.15"/>
<circle r="4.92983" transform="matrix(-1 0 0 1 73.5487 350.299)" fill="white" fill-opacity="0.15"/>
<circle r="4.92983" transform="matrix(-1 0 0 1 57.1158 350.299)" fill="white" fill-opacity="0.15"/>
<circle r="4.92983" transform="matrix(-1 0 0 1 40.6832 350.299)" fill="white" fill-opacity="0.15"/>
<circle r="4.92983" transform="matrix(-1 0 0 1 385.771 366.731)" fill="white" fill-opacity="0.15"/>
<circle r="4.92983" transform="matrix(-1 0 0 1 369.338 366.731)" fill="white" fill-opacity="0.15"/>
<circle r="4.92983" transform="matrix(-1 0 0 1 352.906 366.731)" fill="white" fill-opacity="0.15"/>
<circle r="4.92983" transform="matrix(-1 0 0 1 336.473 366.731)" fill="white" fill-opacity="0.15"/>
<circle r="4.92983" transform="matrix(-1 0 0 1 320.04 366.731)" fill="white" fill-opacity="0.15"/>
<circle r="4.92983" transform="matrix(-1 0 0 1 303.607 366.731)" fill="white" fill-opacity="0.15"/>
<circle r="4.92983" transform="matrix(-1 0 0 1 287.174 366.731)" fill="white" fill-opacity="0.15"/>
<circle r="4.92983" transform="matrix(-1 0 0 1 270.742 366.731)" fill="white" fill-opacity="0.15"/>
<circle r="4.92983" transform="matrix(-1 0 0 1 254.309 366.731)" fill="white" fill-opacity="0.15"/>
<circle r="4.92983" transform="matrix(-1 0 0 1 237.876 366.731)" fill="white" fill-opacity="0.15"/>
<circle r="4.92983" transform="matrix(-1 0 0 1 221.443 366.731)" fill="white" fill-opacity="0.15"/>
<circle r="4.92983" transform="matrix(-1 0 0 1 205.011 366.731)" fill="white" fill-opacity="0.15"/>
<circle r="4.92983" transform="matrix(-1 0 0 1 188.578 366.731)" fill="white" fill-opacity="0.15"/>
<circle r="4.92983" transform="matrix(-1 0 0 1 172.145 366.731)" fill="white" fill-opacity="0.15"/>
<circle r="4.92983" transform="matrix(-1 0 0 1 155.713 366.731)" fill="white" fill-opacity="0.15"/>
<circle r="4.92983" transform="matrix(-1 0 0 1 139.28 366.731)" fill="white" fill-opacity="0.15"/>
<circle r="4.92983" transform="matrix(-1 0 0 1 122.847 366.731)" fill="white" fill-opacity="0.15"/>
<circle r="4.92983" transform="matrix(-1 0 0 1 106.414 366.731)" fill="white" fill-opacity="0.15"/>
<circle r="4.92983" transform="matrix(-1 0 0 1 89.9813 366.731)" fill="white" fill-opacity="0.15"/>
<circle r="4.92983" transform="matrix(-1 0 0 1 73.5487 366.731)" fill="white" fill-opacity="0.15"/>
<circle r="4.92983" transform="matrix(-1 0 0 1 57.1158 366.731)" fill="white" fill-opacity="0.15"/>
<circle r="4.92983" transform="matrix(-1 0 0 1 40.6832 366.731)" fill="white" fill-opacity="0.15"/>
<circle r="4.92983" transform="matrix(-1 0 0 1 385.771 383.164)" fill="white" fill-opacity="0.15"/>
<circle r="4.92983" transform="matrix(-1 0 0 1 369.338 383.164)" fill="white" fill-opacity="0.15"/>
<circle r="4.92983" transform="matrix(-1 0 0 1 352.906 383.164)" fill="white" fill-opacity="0.15"/>
<circle r="4.92983" transform="matrix(-1 0 0 1 336.473 383.164)" fill="white" fill-opacity="0.15"/>
<circle r="4.92983" transform="matrix(-1 0 0 1 320.04 383.164)" fill="white" fill-opacity="0.15"/>
<circle r="4.92983" transform="matrix(-1 0 0 1 303.607 383.164)" fill="white" fill-opacity="0.15"/>
<circle r="4.92983" transform="matrix(-1 0 0 1 287.174 383.164)" fill="white" fill-opacity="0.15"/>
<circle r="4.92983" transform="matrix(-1 0 0 1 270.742 383.164)" fill="white" fill-opacity="0.15"/>
<circle r="4.92983" transform="matrix(-1 0 0 1 254.309 383.164)" fill="white" fill-opacity="0.15"/>
<circle r="4.92983" transform="matrix(-1 0 0 1 237.876 383.164)" fill="white" fill-opacity="0.15"/>
<circle r="4.92983" transform="matrix(-1 0 0 1 221.443 383.164)" fill="white" fill-opacity="0.15"/>
<circle r="4.92983" transform="matrix(-1 0 0 1 205.011 383.164)" fill="white" fill-opacity="0.15"/>
<circle r="4.92983" transform="matrix(-1 0 0 1 188.578 383.164)" fill="white" fill-opacity="0.15"/>
<circle r="4.92983" transform="matrix(-1 0 0 1 172.145 383.164)" fill="white" fill-opacity="0.15"/>
<circle r="4.92983" transform="matrix(-1 0 0 1 155.713 383.164)" fill="white" fill-opacity="0.15"/>
<circle r="4.92983" transform="matrix(-1 0 0 1 139.28 383.164)" fill="white" fill-opacity="0.15"/>
<circle r="4.92983" transform="matrix(-1 0 0 1 122.847 383.164)" fill="white" fill-opacity="0.15"/>
<circle r="4.92983" transform="matrix(-1 0 0 1 106.414 383.164)" fill="white" fill-opacity="0.15"/>
<circle r="4.92983" transform="matrix(-1 0 0 1 89.9813 383.164)" fill="white" fill-opacity="0.15"/>
<circle r="4.92983" transform="matrix(-1 0 0 1 73.5487 383.164)" fill="white" fill-opacity="0.15"/>
<circle r="4.92983" transform="matrix(-1 0 0 1 57.1158 383.164)" fill="white" fill-opacity="0.15"/>
<circle r="4.92983" transform="matrix(-1 0 0 1 40.6832 383.164)" fill="white" fill-opacity="0.15"/>
</g>
</svg>
