<?xml version="1.0" encoding="utf-8"?>
<!-- Generator: Adobe Illustrator 23.0.1, SVG Export Plug-In . SVG Version: 6.00 Build 0)  -->
<svg version="1.1" xmlns="http://www.w3.org/2000/svg" xmlns:xlink="http://www.w3.org/1999/xlink" x="0px" y="0px"
	 viewBox="0 0 1000 434.96" style="enable-background:new 0 0 1000 434.96;" xml:space="preserve">
<style type="text/css">
	.st0{fill:#DD839A;}
	.st1{fill:#D67086;}
	.st2{fill:#EAA7BA;}
	.st3{fill:#EACECE;}
	.st4{fill:#E2B0B0;}
	.st5{fill:#F4E9E9;}
	.st6{fill:#FFFFFF;}
</style>
<g id="background">
</g>
<g id="Shadow">
</g>
<g id="object">
	<g>
		<g>
			<polygon class="st0" points="294.57,174.72 231.41,146.18 231.41,70.21 294.57,98.75 			"/>
		</g>
		<g>
			<polygon class="st1" points="294.57,174.72 357.74,146.18 357.74,70.21 294.57,98.75 			"/>
		</g>
		<g>
			<polygon class="st2" points="231.41,70.21 294.57,98.75 357.74,70.21 294.57,44.3 			"/>
		</g>
	</g>
	<g>
		<g>
			<polygon class="st3" points="798.99,132.32 745.91,108.34 745.91,44.5 798.99,68.48 			"/>
		</g>
		<g>
			<polygon class="st4" points="798.99,132.32 852.06,108.34 852.06,44.5 798.99,68.48 			"/>
		</g>
		<g>
			<polygon class="st5" points="745.91,44.5 798.99,68.48 852.06,44.5 798.99,22.73 			"/>
		</g>
	</g>
	<g>
		<path class="st6" d="M477.87,192.92l-7.44-3.37l1.31-2.9l7.44,3.37L477.87,192.92z M464.63,186.92l-8.7-3.94l1.31-2.9l8.7,3.94
			L464.63,186.92z M450.14,180.36l-8.7-3.94l1.31-2.9l8.7,3.94L450.14,180.36z M435.64,173.8l-8.7-3.94l1.31-2.9l8.7,3.94
			L435.64,173.8z M421.15,167.23l-8.7-3.94l1.31-2.9l8.7,3.94L421.15,167.23z M406.66,160.67l-8.7-3.94l1.31-2.9l8.7,3.94
			L406.66,160.67z M392.17,154.1l-8.7-3.94l1.31-2.9l8.7,3.94L392.17,154.1z M377.67,147.54l-8.7-3.94l1.31-2.9l8.7,3.94
			L377.67,147.54z M363.18,140.98l-8.7-3.94l1.31-2.9l8.7,3.94L363.18,140.98z M348.69,134.41l-8.7-3.94l1.31-2.9l8.7,3.94
			L348.69,134.41z M334.2,127.85l-8.7-3.94l1.31-2.9l8.7,3.94L334.2,127.85z"/>
	</g>
	<g>
		<path class="st6" d="M166.61,193.17l-1.89-2.56l3.93-2.91l1.89,2.56L166.61,193.17z M175.65,186.47l-1.89-2.56l7.67-5.68
			l1.89,2.56L175.65,186.47z M188.43,177l-1.89-2.56l7.67-5.68l1.89,2.56L188.43,177z M201.22,167.52l-1.89-2.56l7.67-5.68
			l1.89,2.56L201.22,167.52z M214,158.05l-1.89-2.56l7.67-5.68l1.89,2.56L214,158.05z M226.78,148.58l-1.89-2.56l7.67-5.68
			l1.89,2.56L226.78,148.58z M239.56,139.11l-1.89-2.56l7.67-5.68l1.89,2.56L239.56,139.11z M252.34,129.63l-1.89-2.56l7.67-5.68
			l1.89,2.56L252.34,129.63z"/>
	</g>
	<g>
		<g>
			<polygon class="st3" points="144.3,286.76 91.23,262.78 91.23,198.94 144.3,222.92 			"/>
		</g>
		<g>
			<polygon class="st4" points="144.3,286.76 197.38,262.78 197.38,198.94 144.3,222.92 			"/>
		</g>
		<g>
			<polygon class="st5" points="91.23,198.94 144.3,222.92 197.38,198.94 144.3,177.17 			"/>
		</g>
	</g>
	<g>
		<path class="st6" d="M475.36,207.82l-1.17-2.96l0.27-0.11l1.17,2.96L475.36,207.82z M481.54,205.36l-1.17-2.96l8.87-3.52
			l1.17,2.96L481.54,205.36z M496.32,199.49l-1.17-2.96l8.87-3.52l1.17,2.96L496.32,199.49z M511.11,193.61l-1.17-2.96l8.87-3.52
			l1.17,2.96L511.11,193.61z M525.89,187.74l-1.17-2.96l8.87-3.52l1.17,2.96L525.89,187.74z M540.68,181.86l-1.17-2.96l8.87-3.52
			l1.17,2.96L540.68,181.86z M555.47,175.99l-1.17-2.96l8.87-3.52l1.17,2.96L555.47,175.99z M570.25,170.12l-1.17-2.96l8.87-3.52
			l1.17,2.96L570.25,170.12z M585.04,164.24l-1.17-2.96l8.87-3.52l1.17,2.96L585.04,164.24z M599.82,158.37l-1.17-2.96l8.87-3.52
			l1.17,2.96L599.82,158.37z M614.61,152.49l-1.17-2.96l8.87-3.52l1.17,2.96L614.61,152.49z M629.39,146.62l-1.17-2.96l8.87-3.52
			l1.17,2.96L629.39,146.62z M644.18,140.74l-1.17-2.96l8.87-3.52l1.17,2.96L644.18,140.74z M658.96,134.87l-1.17-2.96l8.87-3.52
			l1.17,2.96L658.96,134.87z M673.75,129l-1.17-2.96l8.87-3.52l1.17,2.96L673.75,129z M688.53,123.12l-1.17-2.96l8.87-3.52
			l1.17,2.96L688.53,123.12z M703.32,117.25l-1.17-2.96l8.87-3.52l1.17,2.96L703.32,117.25z M718.1,111.37l-1.17-2.96l8.87-3.52
			l1.17,2.96L718.1,111.37z M732.89,105.5l-1.17-2.96l8.87-3.52l1.17,2.96L732.89,105.5z M747.67,99.62l-1.17-2.96l8.87-3.52
			l1.17,2.96L747.67,99.62z M762.46,93.75l-1.17-2.96l8.87-3.52l1.17,2.96L762.46,93.75z"/>
	</g>
	<g>
		<g>
			<polygon class="st0" points="528.57,295.36 420.96,246.74 420.96,117.32 528.57,165.94 			"/>
		</g>
		<g>
			<polygon class="st1" points="528.57,295.36 636.18,246.74 636.18,117.32 528.57,165.94 			"/>
		</g>
		<g>
			<polygon class="st2" points="420.96,117.32 528.57,165.94 636.18,117.32 528.57,73.17 			"/>
		</g>
	</g>
	<g>
		<path class="st6" d="M706.6,263.71l-8.71-3.9l1.3-2.9l8.71,3.9L706.6,263.71z M692.08,257.21l-8.71-3.9l1.3-2.9l8.71,3.9
			L692.08,257.21z M677.56,250.7l-8.71-3.9l1.3-2.9l8.71,3.9L677.56,250.7z M663.04,244.2l-8.71-3.9l1.3-2.9l8.71,3.9L663.04,244.2z
			 M648.52,237.7l-8.71-3.9l1.3-2.9l8.71,3.9L648.52,237.7z M634,231.2l-8.71-3.9l1.3-2.9l8.71,3.9L634,231.2z M619.48,224.7
			l-8.71-3.9l1.3-2.9l8.71,3.9L619.48,224.7z M604.96,218.2l-8.71-3.9l1.3-2.9l8.71,3.9L604.96,218.2z M590.44,211.69l-8.71-3.9
			l1.3-2.9l8.71,3.9L590.44,211.69z"/>
	</g>
	<g>
		<path class="st6" d="M387.53,264.81l-1.73-2.67l8.01-5.19l1.73,2.67L387.53,264.81z M400.88,256.15l-1.73-2.67l8.01-5.19
			l1.73,2.67L400.88,256.15z M414.23,247.49l-1.73-2.67l8.01-5.19l1.73,2.67L414.23,247.49z M427.58,238.84l-1.73-2.67l8.01-5.19
			l1.73,2.67L427.58,238.84z M440.93,230.18l-1.73-2.67l8.01-5.19l1.73,2.67L440.93,230.18z M454.28,221.53l-1.73-2.67l8.01-5.19
			l1.73,2.67L454.28,221.53z M467.62,212.87l-1.73-2.67l8.01-5.19l1.73,2.67L467.62,212.87z"/>
	</g>
	<g>
		<g>
			<polygon class="st3" points="350.74,401.39 277.14,368.14 277.14,279.63 350.74,312.88 			"/>
		</g>
		<g>
			<polygon class="st4" points="350.74,401.39 424.33,368.14 424.33,279.63 350.74,312.88 			"/>
		</g>
		<g>
			<polygon class="st5" points="277.14,279.63 350.74,312.88 424.33,279.63 350.74,249.44 			"/>
		</g>
	</g>
	<g>
		<g>
			<polygon class="st0" points="747.73,324.78 674.14,291.53 674.14,203.02 747.73,236.27 			"/>
		</g>
		<g>
			<polygon class="st1" points="747.73,324.78 821.32,291.53 821.32,203.02 747.73,236.27 			"/>
		</g>
		<g>
			<polygon class="st2" points="674.14,203.02 747.73,236.27 821.32,203.02 747.73,172.83 			"/>
		</g>
	</g>
</g>
</svg>
