<svg id="Layer_1" data-name="Layer 1" xmlns="http://www.w3.org/2000/svg" viewBox="0 0 1133.86 850.39"><defs><style>.cls-1{opacity:0.25;}.cls-2{fill:#eac395;}.cls-3{fill:#ffdbaa;}.cls-4{fill:#fff;}.cls-5{fill:#698c9e;}.cls-6{fill:#5a767d;}</style></defs><title>doc_date copy</title><path class="cls-1" d="M131.15,591.76c45.3,105.57,136.56,184,311.07,184,138.79,0,144.42-109.5,327.17-121.35C882.2,647.08,921,699.66,975.26,666.53c89.65-54.75,93.27-257.65,58.45-358.41C1003.25,220,938.47,147.58,863.2,122.89,732.52,80,708.48,212.69,501.88,212.69c-136.42,0-217.5-84.44-336.27-30.55C50.15,234.53,69.19,447.38,131.15,591.76Z"/><rect class="cls-2" x="312.25" y="134.13" width="509.36" height="582.12" rx="36.38" transform="translate(0.73 -0.98) rotate(0.1)"/><path class="cls-3" d="M312,425.2H821.36a0,0,0,0,1,0,0V679.88A36.38,36.38,0,0,1,785,716.26H348.38A36.38,36.38,0,0,1,312,679.88V425.2a0,0,0,0,1,0,0Z" transform="translate(0.98 -0.98) rotate(0.1)"/><rect class="cls-4" x="348.93" y="170.27" width="147.13" height="166.59" rx="14.55" transform="translate(0.44 -0.73) rotate(0.1)"/><path class="cls-5" d="M474.82,282.47c-2.73-5.56-5.75-11.62-6-11.82s-14.85-4.64-24.12-7.45c-2.88-.89-5.27-1.59-6.56-2l-2.4-7-.19.18v-6.85a8.63,8.63,0,0,0,1.84-1.78,10.09,10.09,0,0,0,1.48-3.12c.48-1.7.26-4.36,1.54-5.71s2.32-1.72,3.14-3.42a19.92,19.92,0,0,0,1.72-9.67c0-.9-.53-2.42-1.7-1.54-.54.4-.27,1.36-.76,1.69l0,0c.44-1.46.87-3,1-3.65a45.3,45.3,0,0,0,.71-6.84c.62-5.52.91-10.83-2.49-15.47-3.65-5-9.05-7.87-11.94-7.49-.17,0-2.12.19-1.88.41-1-.92-2.83-1-4.1-1.3-6.78-1.62-15.35,2.6-20.28,7.11-5.2,4.75-4.43,10.87-3.84,16.74a35.12,35.12,0,0,0,.75,6.27,12,12,0,0,1,.51,3.15,1.1,1.1,0,0,0-.35-.65c-1.18-.88-1.67.65-1.72,1.55a20.1,20.1,0,0,0,1.73,9.66c.83,1.7,2,2.19,3.14,3.41s1.07,4,1.55,5.71a9.37,9.37,0,0,0,1.48,3.12,10.28,10.28,0,0,0,2.61,2.35v6.32l-.23-.21-2.39,7c-.62.2-1.49.45-2.55.77-.33.11-.68.21-1,.31l-1.13.34-1.86.56c-9.26,2.81-23.71,7.2-24.1,7.45s-3.8,7.26-6.67,13.12a9,9,0,0,0-.9,3.91v30H421.1l.76,0h54.23V288A12.81,12.81,0,0,0,474.82,282.47Z"/><rect class="cls-6" x="530.96" y="170.64" width="218.3" height="29.11" rx="14.55" transform="translate(0.32 -1.1) rotate(0.1)"/><rect class="cls-6" x="530.8" y="272.51" width="218.3" height="14.55" rx="7.28" transform="translate(0.48 -1.1) rotate(0.1)"/><rect class="cls-6" x="530.75" y="297.98" width="218.3" height="14.55" rx="7.28" transform="translate(0.53 -1.1) rotate(0.1)"/><rect class="cls-6" x="530.71" y="323.39" width="145.53" height="14.55" rx="7.28" transform="translate(0.57 -1.04) rotate(0.1)"/><rect class="cls-6" x="348.56" y="461.58" width="436.59" height="14.55" rx="7.28" transform="matrix(1, 0, 0, 1, 0.81, -0.98)"/><rect class="cls-6" x="348.51" y="487.05" width="436.59" height="14.55" rx="7.28" transform="translate(0.85 -0.98) rotate(0.1)"/><rect class="cls-6" x="348.47" y="512.42" width="327.44" height="14.55" rx="6.9" transform="matrix(1, 0, 0, 1, 0.9, -0.88)"/><rect class="cls-6" x="348.36" y="574.37" width="436.59" height="14.55" rx="7.28" transform="translate(1 -0.98) rotate(0.1)"/><rect class="cls-6" x="348.32" y="599.74" width="327.44" height="14.55" rx="6.3" transform="translate(1.05 -0.88) rotate(0.1)"/><rect class="cls-6" x="530.87" y="221.52" width="145.53" height="29.11" rx="14.2" transform="translate(0.41 -1.04) rotate(0.1)"/></svg>