<svg width="38" height="38" viewBox="0 0 38 38" fill="none" xmlns="http://www.w3.org/2000/svg">
<path d="M22.5 3.72075C22.5 2.494 21.506 1.5 20.2792 1.5H17.7225C16.494 1.5 15.5 2.494 15.5 3.72075C15.5 4.73225 14.807 5.60025 13.8637 5.97125C13.715 6.03075 13.5663 6.09375 13.421 6.15675C12.4918 6.55925 11.3875 6.43675 10.67 5.721C10.2536 5.30487 9.68896 5.07111 9.10025 5.07111C8.51154 5.07111 7.94693 5.30487 7.5305 5.721L5.721 7.5305C5.30487 7.94693 5.07111 8.51154 5.07111 9.10025C5.07111 9.68896 5.30487 10.2536 5.721 10.67C6.4385 11.3875 6.561 12.49 6.155 13.421C6.09121 13.5675 6.02995 13.7151 5.97125 13.8637C5.60025 14.807 4.73225 15.5 3.72075 15.5C2.494 15.5 1.5 16.494 1.5 17.7208V20.2792C1.5 21.506 2.494 22.5 3.72075 22.5C4.73225 22.5 5.60025 23.193 5.97125 24.1363C6.03075 24.285 6.09375 24.4337 6.155 24.579C6.55925 25.5082 6.43675 26.6125 5.721 27.33C5.30487 27.7464 5.07111 28.311 5.07111 28.8997C5.07111 29.4885 5.30487 30.0531 5.721 30.4695L7.5305 32.279C7.94693 32.6951 8.51154 32.9289 9.10025 32.9289C9.68896 32.9289 10.2536 32.6951 10.67 32.279C11.3875 31.5615 12.49 31.439 13.421 31.8433C13.5663 31.908 13.715 31.9692 13.8637 32.0287C14.807 32.3997 15.5 33.2678 15.5 34.2793C15.5 35.506 16.494 36.5 17.7208 36.5H20.2792C21.506 36.5 22.5 35.506 22.5 34.2793C22.5 33.2678 23.193 32.3998 24.1363 32.027C24.285 31.9693 24.4337 31.908 24.579 31.845C25.5082 31.439 26.6125 31.5632 27.3283 32.279C27.5345 32.4853 27.7793 32.649 28.0488 32.7606C28.3183 32.8723 28.6072 32.9298 28.8989 32.9298C29.1906 32.9298 29.4794 32.8723 29.7489 32.7606C30.0184 32.649 30.2633 32.4853 30.4695 32.279L32.279 30.4695C32.6951 30.0531 32.9289 29.4885 32.9289 28.8997C32.9289 28.311 32.6951 27.7464 32.279 27.33C31.5615 26.6125 31.439 25.51 31.8433 24.579C31.908 24.4337 31.9692 24.285 32.0287 24.1363C32.3997 23.193 33.2678 22.5 34.2793 22.5C35.506 22.5 36.5 21.506 36.5 20.2792V17.7225C36.5 16.4957 35.506 15.5018 34.2793 15.5018C33.2678 15.5018 32.3998 14.8087 32.027 13.8655C31.9684 13.7168 31.9071 13.5692 31.8433 13.4227C31.4408 12.4935 31.5632 11.3893 32.279 10.6718C32.6951 10.2553 32.9289 9.69071 32.9289 9.102C32.9289 8.51329 32.6951 7.94868 32.279 7.53225L30.4695 5.72275C30.0531 5.30662 29.4885 5.07286 28.8997 5.07286C28.311 5.07286 27.7464 5.30662 27.33 5.72275C26.6125 6.44025 25.51 6.56275 24.579 6.1585C24.4325 6.09411 24.2849 6.03227 24.1363 5.973C23.193 5.60025 22.5 4.73225 22.5 3.7225V3.72075Z" stroke="#52607E" stroke-width="2"/>
<path d="M26 19C26 20.8565 25.2625 22.637 23.9497 23.9497C22.637 25.2625 20.8565 26 19 26C17.1435 26 15.363 25.2625 14.0503 23.9497C12.7375 22.637 12 20.8565 12 19C12 17.1435 12.7375 15.363 14.0503 14.0503C15.363 12.7375 17.1435 12 19 12C20.8565 12 22.637 12.7375 23.9497 14.0503C25.2625 15.363 26 17.1435 26 19Z" stroke="#52607E" stroke-width="2"/>
</svg>
