<?xml version="1.0" encoding="utf-8"?>
<!-- Generator: Adobe Illustrator 25.2.0, SVG Export Plug-In . SVG Version: 6.00 Build 0)  -->
<svg version="1.1" id="Слой_1" xmlns="http://www.w3.org/2000/svg" xmlns:xlink="http://www.w3.org/1999/xlink" x="0px" y="0px"
	 viewBox="0 0 540.5 418.4" style="enable-background:new 0 0 540.5 418.4;" xml:space="preserve">
<style type="text/css">
	.st0{fill:url(#SVGID_1_);}
	.st1{fill:#FFFFFF;fill-opacity:2.000000e-02;}
</style>
<linearGradient id="SVGID_1_" gradientUnits="userSpaceOnUse" x1="108.5401" y1="486.9146" x2="431.9631" y2="-64.4684" gradientTransform="matrix(1 0 0 -1 0 420.4461)">
	<stop  offset="0" style="stop-color:#6071E4"/>
	<stop  offset="1" style="stop-color:#805FE4"/>
</linearGradient>
<path class="st0" d="M3.3-1.8h534c2.8,0,5,2.2,5,5v412c0,2.8-2.2,5-5,5H3.3c-2.8,0-5-2.2-5-5V3.2C-1.7,0.5,0.5-1.8,3.3-1.8z"/>
<path class="st1" d="M-1.7,40.1c0-5.9,9.6-7.3,11.4-1.6C25,88,54.8,167.7,91.8,185.8c54.5,26.7,109,130.5,184.5,170.4
	c43.8,23.1,126.2,40.9,187.7,51.8c6.2,1.1,5.3,12.2-1,12.2H3.3c-2.8,0-5-2.2-5-5V40.1z"/>
</svg>
