<svg xmlns="http://www.w3.org/2000/svg" viewBox="0 0 994 726.42"><defs><style>.cls-1{opacity:0.3;}.cls-2{fill:#fff;}.cls-3{fill:#1f1f35;}.cls-4{fill:#474ebb;}.cls-5{fill:#292949;}.cls-6{fill:#eac1a4;}.cls-7{fill:#d67086;}.cls-8{fill:#353a85;}.cls-9{fill:#4b6f55;}.cls-10{fill:#3d5092;}</style></defs><title>v211batch11-aum-392-blockchain [преобразованный]</title><g id="Shadow"><g class="cls-1"><path class="cls-2" d="M517,668.12c-29.11.08-58.22.76-87.27,3.89-11,1.18-21.69,3.78-32.67,4.82-21.93,2.09-43.47,6-65.48,7.8-17.73,1.45-35.53,2.3-53.21,4.14A193.28,193.28,0,0,1,227,687.25c-12.18-2.11-24.41-3.3-36.38-6.68-13.38-3.79-27.93-6.5-41.88-6.4-19.89.13-39.26.15-58.3,6.84-6.68,2.35-14.86,6.21-19.94,11.14C58.92,703.43,57.35,731.58,69,743.28c19.54,19.69,61.23,27.42,88.62,27.79,30,.39,59.16-1.76,89.21-3,27.92-1.18,55.78-2.86,83.75-2.8,57.13.12,114.26,0,171.29-3.69,53.57-3.48,107.28-2.28,161-2.28,55.06,0,109.75.41,164.41,7.5,23.82,3.09,48.08,4.17,72,6.33,21.44,1.94,42,0,63.39-1.82a155.32,155.32,0,0,0,52-13.51c12.89-6,35.88-24.5,39.83-38.75,11.09-39.93-156.22-39-181.9-38.88-28.74.1-57.7,1-86.42,0-12.08-.44-24-2.73-35.77-5.24s-23.57-1.86-35.48-2.91c-49.65-4.37-99.42-3.73-149.23-3.73C549.46,668.21,533.24,668.07,517,668.12Z" transform="translate(-61 -47.48)"/></g></g><g id="Object"><path class="cls-2" d="M374.6,142.61c2,0,4,.08,6,.21A82.79,82.79,0,0,1,511.66,91.33a87.08,87.08,0,0,1,75.73-43.85c48,0,87,38.68,87,86.39a85.4,85.4,0,0,1-.46,8.95c2-.13,4-.21,6-.21,48,0,87,38.68,87,86.39s-39,86.38-87,86.38H374.6c-48.05,0-87-38.68-87-86.38S326.55,142.61,374.6,142.61Z" transform="translate(-61 -47.48)"/><polygon class="cls-3" points="165.21 701.28 164.55 708.2 150.54 714.2 144.53 706.82 151.87 700.36 165.88 694.36 165.21 701.28"/><polygon class="cls-4" points="176.91 561.01 166.13 699.1 152.63 700.93 141.45 583.24 132.22 545.9 176.91 561.01"/><polygon class="cls-4" points="209.2 524.78 217.29 688.86 204.98 691.17 179.32 567.02 165.21 531.07 209.2 524.78"/><polygon class="cls-3" points="206.07 696.61 220.71 701.08 226.05 692.85 218.08 687.12 204.76 689.63 206.07 696.61"/><path class="cls-2" d="M252.79,395c-10-8.25-34-3.5-46.66-3.5,1.21,0-12,70.6-12.41,76.76-1.52,22.45-8.48,45.16-18.08,65.72-4,8.66-8.87,17-11.75,26.14-4.77,15.12-4.75,32.93-3.41,48.57,13.58,3.73,26.29,10.72,40.25,12.53,11.49,1.49,23.09-.62,34.62-1.64,13.65-1.21,27.39-.89,41-1.94s27.46-3.56,39.55-10a197.57,197.57,0,0,1-13-32.75c-3.44-11.16-7.87-23.55-9.12-35.19-1.14-10.52-1.32-21.21-2.85-31.87-1.78-12.4-3.92-24.77-6.89-36.94a279.07,279.07,0,0,0-13.38-40.82c-4.19-10.07-9.19-26.57-17.06-34.33C253.35,395.53,253.07,395.28,252.79,395Z" transform="translate(-61 -47.48)"/><path class="cls-5" d="M231.6,356.88c6.32,1.15,14.11,6.54,15.63,13.21.73,3.21-.31,6.16.61,9.57,1.79,6.71-6.34,16.61,1.71,21.28,4.13,2.4,9.3,1.62,14,.77a3.55,3.55,0,0,0,1.62-.58,2.47,2.47,0,0,0,.58-2.63,9.69,9.69,0,0,0-1.41-2.48c-5.53-8.31-4.19-20.24-6.34-29.7s-7.22-18.86-16.58-22.74A21.52,21.52,0,0,0,232.2,357Z" transform="translate(-61 -47.48)"/><path class="cls-6" d="M239.53,397.55c6.08-2.6,10.1-8.78,11.43-15.26s.27-13.22-1.52-19.58c-5.95-21.18-32.53-15.11-38.72,3C205.32,381.49,221.86,405.11,239.53,397.55Z" transform="translate(-61 -47.48)"/><path class="cls-5" d="M208.59,409.2c3-1.85,5.91-3.79,7.64-7.26,2.79-5.59,1.61-14.29,2-20.37.34-6.4.93-13.38,5.32-18.05,2.86-3,6.39-3.89,10.37-4.3,2.73-.27,2.92.75,5.11-.91,1.67-1.28,2.9-4.76,3.14-6.76.41-3.36-1.22-6.74-3.63-9.13a16,16,0,0,0-12.94-5c-17.82,1.13-30.28,12.82-33.81,30.63-1.7,8.56.88,17.72-1,26-1.16,5.1-4.06,8.68-4.9,14.08-2.18,14-8.26,32.19-6.47,46.33a2,2,0,0,0,.6,1.42c.86.64,2-.33,2.62-1.2l11-15.25a26.15,26.15,0,0,0,3.73-6.34c2.08-5.77.15-12.83,3.74-17.8C203,412.57,205.83,410.92,208.59,409.2Z" transform="translate(-61 -47.48)"/><path class="cls-6" d="M180.54,544.9c-.51,3.56,2.34,12.67,5.68,14.65,7.71,4.58,4.91-6.92,4.84-11.11a22.68,22.68,0,0,0,4.38,1c1.37.12-2.69-12.17-4-13.31-3.25-2.75-5.55-1.34-9.5-.92C181.53,538.44,181,541.67,180.54,544.9Z" transform="translate(-61 -47.48)"/><polygon class="cls-2" points="129.25 367.78 88.89 438.25 117.59 499.8 127.33 486.93 117.08 431.84 155.2 408.54 151.03 363.29 129.25 367.78"/><polygon class="cls-2" points="197.23 354.24 233.03 411.45 252.66 384.17 271.21 387.29 262.42 431.55 238.06 449.62 197.23 425.13 197.23 354.24"/><polygon class="cls-7" points="460.39 361.69 444.6 367.11 419.05 405.41 386.33 383.51 375.93 395.86 392.44 420.34 422.15 441.56 460.39 401.53 460.39 361.69"/><polygon class="cls-6" points="533.38 276.77 534.59 259.59 520.7 248.83 514.87 256.45 521.14 267.66 518.9 273.49 525.06 282.74 533.38 276.77"/><polygon class="cls-8" points="423.27 471.89 422.15 569.1 432.51 694.24 446.59 694.24 463.45 578.79 482.72 463.14 423.27 471.89"/><polygon class="cls-3" points="446.51 700.18 431.28 707.8 423.67 700.18 431.28 692.57 446.51 692.57 446.51 700.18"/><polygon class="cls-8" points="519.85 471.89 520.12 528.13 510.62 694.24 496.54 694.24 472.97 584.01 460.39 463.14 519.85 471.89"/><polygon class="cls-3" points="496.62 700.18 511.85 707.8 519.47 700.18 511.85 692.57 496.62 692.57 496.62 700.18"/><path class="cls-7" d="M595.49,553.24c.31,8.92.11,20.86-3.64,21.3a3.61,3.61,0,0,1-2-.52c-6.54-3.18-11.19-7.67-17.63-10.73-6.75-3.21-14.42-4.9-21.92-6.06a228.77,228.77,0,0,0-33.8-3c-9.67-.08-19.73,4.33-28.87,6.76-3.52.93-6.39,3.5-9.31,5.51-4.32,3-6.21,4.14-5.62-1.93,1-9.9,2-19.8,3.18-29.68,2.43-19.7,5.73-39.36,11.33-58.43,2.14-7.28,4.61-14.47,7.07-21.65q4.52-13.12,9-26.24c3.74-10.87,10-18.52,21.07-22.33,9.53-3.28,21.37-4.18,30.64.42,10.31,5.11,15.21,22.53,20.22,31.84,4.38,8.16,9.92,30.4,11.56,39.2,2,10.58,3.8,21.12,5.24,31.62a326.18,326.18,0,0,1,3,34.78C595.09,545.41,595.35,549,595.49,553.24Z" transform="translate(-61 -47.48)"/><path class="cls-6" d="M533,408.61a2.29,2.29,0,0,0,.78.44,4.12,4.12,0,0,0,1.85.05l7.55-.89c-.83-7.71,3.68-9.46,8.07-14.42s3.08-11.8,2.83-18a13,13,0,0,0-.88-5c-1.27-2.73-4.23-4.23-7.1-5.12-7.34-2.28-15.72-1.72-22.18,2.43a11.76,11.76,0,0,0-4.26,4.32c-1.43,2.81-1.07,6.15-.67,9.28a31.29,31.29,0,0,0,4.76,13.57c2.53,3.78,7.35,5.58,7.91,10.11A5.12,5.12,0,0,0,533,408.61Z" transform="translate(-61 -47.48)"/><path class="cls-5" d="M519.25,376.13c.42,1.93,1.33,3.89.86,5.82-3.08-1-5.09-4.19-6.18-7.39a11.13,11.13,0,0,1-.73-4.52,5.36,5.36,0,0,1,2-4c1.69-1.21,4.72-.73,5.21,1.46S518.6,373.21,519.25,376.13Z" transform="translate(-61 -47.48)"/><path class="cls-5" d="M502.91,359.1a6.86,6.86,0,0,1,3-5.79c1.79-1.21,3.85-2.21,4.93-4.13.85-1.49,1-3.34,1.81-4.83,1.51-2.71,4.8-3.51,7.65-4.43,7.15-2.29,11-4.94,18.57-2,5.38,2.09,12.34,2.37,17.33,5.42a17.32,17.32,0,0,1,5.32,5.59c5.05,7.89,6.26,19,3,27.22a33.52,33.52,0,0,1-2.67,5.16c-2,3.24-4.14,7.23-7.67,8.82-.23-1.53-1.36-2.37-1.72-3.88a11.89,11.89,0,0,1-.12-3.32c.22-4.33,1.55-11.17-2.77-13.32-5.47-2.71-15.72-.26-21,2-4.66,2-12.52,4.68-17.48,2.5C506.5,372.12,502.75,364.06,502.91,359.1Z" transform="translate(-61 -47.48)"/><polygon class="cls-7" points="489.69 358.23 538.01 343.99 520.12 283.57 534.86 273 570.44 342.94 560.6 367.16 514.43 390.99 489.69 358.23"/><polygon class="cls-2" points="797.79 350.93 783.69 351.52 741.64 391.42 679.18 383.06 675.03 398.36 736.41 420.34 754.95 420.34 787.81 400.17 797.79 350.93"/><polygon class="cls-6" points="679.3 392.54 671.02 398.82 664.36 399.29 663.9 397.07 667.45 394.83 654.55 394.45 652.3 388.69 666.49 382.4 680.68 383.81 679.3 392.54"/><path class="cls-3" d="M829.61,724.74,817.9,733l-3.9,6.35a45.7,45.7,0,0,0,6.83,2.44c2.44.49,21.47-2.44,21.47-2.44V728.15Z" transform="translate(-61 -47.48)"/><path class="cls-3" d="M920.64,728.27l-4.33,7.86s-2.7,9.94-.36,9.26,15.41-2.95,15.94-4.63,6.2-8.41,6.86-9.62-2.15-9.3-2.15-9.3Z" transform="translate(-61 -47.48)"/><path class="cls-8" d="M840.52,543.21l37.82,112.91,42.3,72.15L937,723.5l-28-82.28s-3.39-82.66-8.92-107Z" transform="translate(-61 -47.48)"/><polygon class="cls-8" points="749.58 512.76 764.22 680.67 781.79 680.67 787.16 594.76 797.25 518.71 758.85 473.72 749.58 512.76"/><path class="cls-2" d="M810,452.81c1.81-8.65,2.53-18,6.82-26s12.38-14.18,18.63-21c2.65-2.9,5.47-5.93,9.41-7.32a28.2,28.2,0,0,1,8.58-1.1l26.44-.67c3.21-.08,6.56-.14,9.49,1,4.39,1.74,6.87,5.78,9,9.56,5.54,9.63,6.56,20.31,7.05,31.2,0,.11,6.88,136.77,1.41,134.2-6.81-3.2-14.6-4.89-22.23-6.08a246.78,246.78,0,0,0-32.75-3.1l-19.32,1.31H820.93c-7,.68-6.42,2.78-13.62,2.34C802.71,566.81,807.93,462.73,810,452.81Z" transform="translate(-61 -47.48)"/><path class="cls-6" d="M860.65,401.73l13.12-.57a66.54,66.54,0,0,0-.13-10.47c3.7-1.07,8-2.75,8.83-6.51a10.73,10.73,0,0,0,0-3.62q-.87-7.47-1.73-14.93a13.14,13.14,0,0,0-1.27-5c-1.48-2.66-4.58-3.95-7.54-4.64-7.57-1.75-16-.56-22.18,4.12a11.86,11.86,0,0,0-4,4.67c-1.23,2.93-.61,6.28,0,9.4l1.77,8.64c.67,3.32,1.71,7.1,4.78,8.5,1.64.74,3.62.66,5.08,1.71C860,394.86,859.42,398.81,860.65,401.73Z" transform="translate(-61 -47.48)"/><path class="cls-5" d="M836.41,338.45a12.71,12.71,0,0,0,3-.82c3.16-1.37,5.39-4.14,8.75-5.44a30.88,30.88,0,0,1,22,.58c6.4,2.69,15.13,3.73,20.85,7.34a17.41,17.41,0,0,1,5.65,6.22,26.31,26.31,0,0,1-1.47,27.78,38.52,38.52,0,0,1-4.37,4.92c-3.27,3.17-7.18,7.09-11.48,8.1.1-3.8,4.22-15.56,1.48-18.82-3.63-4.34-10.76-4.23-15.86-3.75-6.09.57-11.1-1.38-17.16-1.08-3.1.16-6.59.78-9-1.21-2.74-2.3-8.53-9.61-9.91-12.82a8.1,8.1,0,0,1,1.69-8.49C832.43,339,834.38,338.81,836.41,338.45Z" transform="translate(-61 -47.48)"/><path class="cls-9" d="M861.83,401.62a68.08,68.08,0,0,1-1.44,6.83S836,478.66,833.7,484.27a10.26,10.26,0,0,0-.77,4l5.59,16.43,11.11-13.73,15.06-78.67,3.66-3.14,1.29-8Z" transform="translate(-61 -47.48)"/><rect class="cls-10" x="315.91" y="489.74" width="144.26" height="32.47" rx="8.69" transform="translate(-16.65 -78.6) rotate(4.87)"/><path class="cls-4" d="M327.19,435.54l-85.93-10.09a46,46,0,0,0-50.86,40.17l-5,42.19a46,46,0,0,0,40.17,50.86l85.93,10.09a46,46,0,0,0,50.86-40.17l4.95-42.19A46,46,0,0,0,327.19,435.54Zm13.19,47.69-4.95,42.19a18.92,18.92,0,0,1-20.72,16.36L228.79,531.7A18.92,18.92,0,0,1,212.43,511l4.95-42.19a18.92,18.92,0,0,1,20.72-16.36L324,462.51A18.92,18.92,0,0,1,340.38,483.23Z" transform="translate(-61 -47.48)"/><path class="cls-4" d="M541.73,444.18H455.21A46,46,0,0,0,409.38,490v42.48a46,46,0,0,0,45.83,45.83h86.52a46,46,0,0,0,45.83-45.83V490A46,46,0,0,0,541.73,444.18Zm18.67,88.31a18.92,18.92,0,0,1-18.67,18.67H455.21a18.92,18.92,0,0,1-18.67-18.67V490a18.92,18.92,0,0,1,18.67-18.67h86.52A18.92,18.92,0,0,1,560.4,490Z" transform="translate(-61 -47.48)"/><path class="cls-4" d="M817.68,518.34l-2.52-42.4a46,46,0,0,0-48.47-43l-86.36,5.14a46,46,0,0,0-43,48.47l2.52,42.4a46,46,0,0,0,48.47,43l86.36-5.14A46,46,0,0,0,817.68,518.34ZM773,539.7l-86.36,5.13a18.93,18.93,0,0,1-19.75-17.52l-2.52-42.41a18.92,18.92,0,0,1,17.53-19.74L768.3,460a18.93,18.93,0,0,1,19.75,17.53l2.52,42.4A18.92,18.92,0,0,1,773,539.7Z" transform="translate(-61 -47.48)"/><rect class="cls-10" x="474.67" y="442.26" width="144.26" height="32.47" rx="8.69"/><polygon class="cls-2" points="812.89 388 806.48 426.97 736.55 445.11 736.55 463.76 820.21 454.92 834.66 431.57 833.27 371.14 812.89 388"/><polygon class="cls-6" points="736.55 460.15 728.54 463.76 712.16 460.04 714.95 451.18 727.67 450.43 730.23 446.12 736.43 447.78 736.55 460.15"/><polygon class="cls-6" points="381.55 384.05 365.43 390.1 361.42 407.21 370.78 409.34 378.36 398.97 384.59 398.59 390.44 389.13 381.55 384.05"/><polygon class="cls-6" points="252.66 384.17 267.63 382.84 277.24 394.8 270.69 400 260.81 394.71 255.76 396.76 247.59 391.53 252.66 384.17"/></g></svg>