<svg id="Layer_1" data-name="Layer 1" xmlns="http://www.w3.org/2000/svg" viewBox="0 0 1133.86 850.39"><defs><style>.cls-1{opacity:0.25;}.cls-2{fill:#e89871;}.cls-3{fill:#db8a71;}.cls-4{fill:#f9be97;}.cls-5{fill:#5f5b50;}.cls-6{fill:#acccdd;}.cls-7{fill:#284e72;}.cls-8{fill:#698c9e;}.cls-9{fill:#5c7e8c;}.cls-10{fill:#d9f0ff;}.cls-11{fill:#5a767d;}.cls-12{fill:#eac395;}.cls-13{fill:#ffdbaa;}.cls-14{fill:#fff;}</style></defs><title>reg_doc</title><path class="cls-1" d="M963.27,298.34c-61-144.81-170.21-174.4-230.77-174.27-138.79.29-91.31,111.64-317.22,111.64-164.72,0-273.44,75.23-273.44,302.79,0,93.25,52.55,201.16,127.82,225.85,130.68,42.86,163.42-86.93,314.62-86.93,136.42,0,217.5,84.43,336.27,30.54C1036,655.57,1024.22,443.15,963.27,298.34Z"/><polygon class="cls-2" points="582.4 454.17 657.78 523.35 681.8 496.17 582.4 397.06 582.4 454.17"/><polygon class="cls-3" points="720.77 381.89 582.4 390.15 582.4 397.06 681.8 496.17 720.77 452.1 720.77 381.89"/><path class="cls-4" d="M772.74,270.37c-.24-4.83-2.84-13-9.14-8.3-2.84,2.11-1.45,7.31-4.1,9.05-6.4,4.21-7-5.28-7.45-9.48-1.62-16,5.56-31.3,3.65-47C753,192.8,732.62,178,713.41,170.56s-44.31-7.26-63.89-.44c-19.58-6.82-44.82-6.91-63.88.44-19.22,7.4-39.63,22.24-42.3,44.09-1.91,15.69,5.27,31,3.65,47-.42,4.2-1,13.69-7.45,9.48-2.65-1.74-1.25-6.94-4.11-9.05-6.29-4.66-8.88,3.47-9.13,8.3-.88,17.23,1.59,36,9.23,51.64,4.42,9,10.59,11.62,16.77,18.17,6.84,7.25,5.7,21.47,8.25,30.52a52,52,0,0,0,7.92,16.66c7.58,10.46,20.76,15.35,29.44,24.85,8.13,8.91,15.66,17.8,26.83,23.54,6.73,3.47,16.13,3.53,24.78,3.1,8.65.43,18,.37,24.78-3.1,11.18-5.74,18.7-14.63,26.83-23.54,8.68-9.5,21.86-14.39,29.45-24.85a52.41,52.41,0,0,0,7.91-16.66c2.55-9.05,1.42-23.27,8.26-30.52,6.17-6.55,12.34-9.13,16.76-18.17C771.15,306.4,773.62,287.6,772.74,270.37Z"/><path class="cls-5" d="M534.61,248.76c2.62,9,3,15.76,2.67,24.84,0,1.2-.14,3-.1,5h11.49c.12-2.41,0-4.69-.06-6.09a164.41,164.41,0,0,1,.24-18.44c.46-8.82-.63-17.89.25-26.67,2.31-23.08,22-39.33,44-41.05,16.09-1.27,32.22,2,48.36,2.08,19.92,0,28.92-9.56,44.63-19.34,4.22-2.63,1.71-3,6.1-1.85,2.85.73,6.51,4.62,9,6.13,14.93,9.14,41.75,18.21,46.06,37.5,3.39,15.16,2.69,30.66,2.28,46.07-.06,2.17-1.92,13.92-1.45,21.66h9c2.88-9.31,6.72-21.95,7.66-26.85,3.79-19.57,2.89-28.19,3.8-36.52,3.26-29.53,4.88-57.83-13.33-82.59-19.49-26.52-48.37-42-63.79-40.06-.88.12-11.32,1-10,2.24-5.49-4.95-15.13-5.3-21.93-6.92-36.21-8.64-82,13.88-108.3,37.92-27.77,25.39-23.67,58.05-20.52,89.42C531.68,226.21,531.59,238.31,534.61,248.76Z"/><path class="cls-6" d="M720.75,571,655.42,745.63a9.81,9.81,0,0,1-1.86.65l-5.88-14.12v-.08l-45.39-109-19.86-47.76c-.15-1.21,3.51-6,9.18-12.69.57-.78,1.29-1.58,2-2.43,1.87-2.16,3.88-4.52,6-7a1.14,1.14,0,0,0,.28-.36c9-10.18,20-22.15,29.4-32.12,4.45-4.88,8.53-9.25,11.83-12.69.93-1.08,1.87-2,2.58-2.87,3.16-3.23,5-5.16,5-5.16h8.6l10.61,11.83,35.28,39.44.28.28,8.39,9.46Z"/><path class="cls-7" d="M686.26,649.72,663.67,547.21a14,14,0,0,1,1.31-9.6l8.58-16.12a2.63,2.63,0,0,0-.59-2.82l-9.9-9.84c-2.24-2.24-5-4.32-6.26-7.24-.93-2.1-3.49-6.79-6.46-4.8-2.6,1.74-3.48,4.48-5.16,6.79s-4.32,4.29-6.35,6.3L630,518.67a2.61,2.61,0,0,0-.58,2.82L638,537.61a14,14,0,0,1,1.32,9.6L616.72,649.72a2.65,2.65,0,0,0,.11,1.55l31.29,80.37a4.78,4.78,0,0,0,6.74,0l31.29-80.37A2.73,2.73,0,0,0,686.26,649.72Z"/><path class="cls-8" d="M647.75,748.08c-4.66,1.43-9.32,2.72-14,3.94-10.12,2.65-20.44,4.87-30.9,6.74A391.09,391.09,0,0,1,537,764.35c-75.92,0-129-19.36-154.89-31.5a28.34,28.34,0,0,1-16.15-28.32L374.12,618c5.64-59.6,21.46-94.69,159.19-137.64,2.42-.76,4.8-1.43,7.1-2.15,2-.58,4-1.22,5.88-1.8,9.54-2.86,17.28-5.16,22.16-6.59,1.28-.43,2.36-.72,3.22-1,1.51-.42,2.3-.72,2.3-.72l21.8,72.29,3.87,12.83,3.44,11.33,18.72,62.09v.08l25.74,85.54.14,18.14v1.73Z"/><path class="cls-9" d="M847,508.63a34,34,0,0,1,18.09,46.11c-39.82,84.62-101.05,149.77-190.54,184.15-6.31,2.44-12.69,4.74-19.15,6.74a9.81,9.81,0,0,1-1.86.65c-1.94.65-3.87,1.22-5.81,1.8l-.07-15.92v-1.73l-.14-18.14,3,10v-1.51l30-96.8,18-58,.72-2.22v-.07l3.87-12.4,25.74-83.19s.86.3,2.37.72c.86.29,1.94.58,3.22,1,6.89,2,19.72,5.88,35.14,10.54C796.1,488.43,824.87,499.75,847,508.63Z"/><path class="cls-10" d="M721.82,432.52l-68.5,61.79a2.74,2.74,0,0,1-3.67,0l-68.49-61.79-15.32,44.84,29.6,98,53.8-75.68a2.76,2.76,0,0,1,4.49,0l53.8,75.68,29.59-98Z"/><path class="cls-11" d="M740.18,531.38l35.93,15.2L674.57,738.89c-6.31,2.44-12.69,4.74-19.15,6.74a9.81,9.81,0,0,1-1.86.65c-1.94.65-3.87,1.22-5.81,1.8-4.66,1.43-9.32,2.72-14,3.94l-29.12-56L526.85,546.58l33.92-14.34,2-.86-41.3-20.29a285.73,285.73,0,0,1,11.83-30.69c2.44-.72,4.8-1.43,7.1-2.15,2-.58,4-1.22,5.88-1.8,9.54-2.86,17.28-5.16,22.16-6.59,1.28-.43,2.36-.72,3.22-1l24.1,71.57,4.15,12.47,3.73,10.9,11.26,33.49,7.74,25.46,26.82,88L680,621.08l8.1-23.8L698.59,566l.72-2.22v-.07l4.15-12.12,27.83-82.75c.86.29,1.94.58,3.22,1,6.89,2,19.72,5.88,35.14,10.54a285.73,285.73,0,0,1,11.83,30.69Z"/><rect class="cls-12" x="172.59" y="321.74" width="257.44" height="294.22" rx="18.39" transform="translate(-76.13 58.79) rotate(-9.9)"/><path class="cls-13" d="M185.24,467.75H442.68a0,0,0,0,1,0,0V596.47a18.39,18.39,0,0,1-18.39,18.39H203.63a18.39,18.39,0,0,1-18.39-18.39V467.75A0,0,0,0,1,185.24,467.75Z" transform="translate(-88.4 62.05) rotate(-9.9)"/><rect class="cls-14" x="177.18" y="354" width="74.36" height="84.2" rx="7.36" transform="translate(-64.92 42.76) rotate(-9.9)"/><path class="cls-8" d="M242.94,405.89c-1.84-2.52-3.88-5.28-4.05-5.35s-7.79-1-12.65-1.59c-1.51-.19-2.77-.33-3.44-.41L221,395.27l-.08.1-.6-3.41a4.4,4.4,0,0,0,.76-1,5.16,5.16,0,0,0,.46-1.68c.09-.89-.25-2.19.27-3a6.45,6.45,0,0,0,1.26-2,10.08,10.08,0,0,0,0-5c-.1-.44-.48-1.15-1-.62-.23.25,0,.71-.23.91l0,0c.09-.76.18-1.55.18-1.9a24.5,24.5,0,0,0-.24-3.47c-.18-2.8-.5-5.47-2.6-7.48-2.26-2.15-5.2-3.12-6.61-2.68-.08,0-1,.28-.89.37a4.93,4.93,0,0,0-2.16-.29c-3.52-.21-7.41,2.64-9.47,5.32s-1.25,5.8-.44,8.67a17.37,17.37,0,0,0,.93,3,6.29,6.29,0,0,1,.52,1.53.53.53,0,0,0-.23-.3c-.66-.33-.77.47-.71.93a10.24,10.24,0,0,0,1.7,4.66c.56.77,1.18.91,1.86,1.42s.89,1.9,1.28,2.7a4.93,4.93,0,0,0,1,1.43,5.42,5.42,0,0,0,1.5.94l.56,3.14-.14-.08-.57,3.69-1.2.6-.49.25-.54.27-.87.44c-4.37,2.21-11.17,5.66-11.34,5.82s-1.26,4-2.17,7.12a4.46,4.46,0,0,0-.11,2l2.64,14.95,26.06-4.6.38-.07h0l.89-.16,26.1-4.6-2.6-14.78A6.45,6.45,0,0,0,242.94,405.89Z"/><rect class="cls-11" x="261.51" y="335.61" width="110.33" height="14.71" rx="7.36" transform="translate(-54.26 59.56) rotate(-9.9)"/><rect class="cls-11" x="269.73" y="386.39" width="110.33" height="7.36" rx="3.68" transform="translate(-62.23 61.68) rotate(-9.9)"/><rect class="cls-11" x="271.94" y="399.07" width="110.33" height="7.36" rx="3.68" transform="translate(-64.38 62.25) rotate(-9.9)"/><rect class="cls-11" x="274.43" y="414.91" width="73.55" height="7.36" rx="3.68" transform="translate(-67.34 59.75) rotate(-9.9)"/><rect class="cls-11" x="194.78" y="486.91" width="220.66" height="7.36" rx="3.68" transform="translate(-79.81 59.77) rotate(-9.9)"/><rect class="cls-11" x="196.99" y="499.59" width="220.66" height="7.36" rx="3.68" transform="translate(-81.96 60.34) rotate(-9.9)"/><rect class="cls-11" x="199.61" y="517.01" width="165.5" height="7.36" rx="3.49" transform="translate(-85.33 56.31) rotate(-9.9)"/><rect class="cls-11" x="204.58" y="543.07" width="220.66" height="7.36" rx="3.68" transform="translate(-89.32 62.29) rotate(-9.9)"/><rect class="cls-11" x="207.2" y="560.49" width="165.5" height="7.36" rx="3.18" transform="translate(-92.69 58.26) rotate(-9.9)"/><rect class="cls-11" x="266.21" y="364.14" width="73.55" height="14.71" rx="7.18" transform="translate(-59.37 57.63) rotate(-9.9)"/></svg>