<svg width="30" height="30" viewBox="0 0 30 30" fill="none" xmlns="http://www.w3.org/2000/svg">
<g clip-path="url(#clip0)">
<path d="M12.6288 24.1021C11.2465 24.1021 10.1216 25.2275 10.1216 26.6092C10.1216 27.9915 11.2465 29.1164 12.6288 29.1164C14.0111 29.1164 15.1359 27.9915 15.1359 26.6092C15.1359 25.227 14.0111 24.1021 12.6288 24.1021ZM12.6288 28.0021C11.861 28.0021 11.2359 27.3775 11.2359 26.6092C11.2359 25.8415 11.861 25.2164 12.6288 25.2164C13.3965 25.2164 14.0217 25.8415 14.0217 26.6092C14.0217 27.3775 13.3965 28.0021 12.6288 28.0021Z" fill="#828282" stroke="#828282"/>
<path d="M23.828 24.1021C22.4462 24.1021 21.3208 25.2275 21.3208 26.6092C21.3208 27.9915 22.4462 29.1164 23.828 29.1164C25.2102 29.1164 26.3351 27.9915 26.3351 26.6092C26.3351 25.227 25.2102 24.1021 23.828 24.1021ZM23.828 28.0021C23.0608 28.0021 22.4351 27.3775 22.4351 26.6092C22.4351 25.8415 23.0608 25.2164 23.828 25.2164C24.5963 25.2164 25.2208 25.8415 25.2208 26.6092C25.2208 27.3775 24.5957 28.0021 23.828 28.0021Z" fill="#828282" stroke="#828282"/>
<path d="M27.0054 8.453L26.9502 8.44186L23.906 8.45969C23.6692 8.43684 23.3783 8.44074 23.2402 8.45969L18.7396 8.48197L14.2874 8.46303C14.0439 8.43796 13.7448 8.44019 13.6205 8.4569L10.5222 8.44186L10.4671 8.453C9.32716 8.67864 8.41232 9.40795 7.90699 10.3629L5.74249 1.17781C5.68399 0.925422 5.45946 0.883636 5.19983 0.883636H0.557144C0.249601 0.883636 0 1.13324 0 1.44078C0 1.74888 0.249601 1.99793 0.557144 1.99793H4.75746L8.77558 19.1658C8.77614 19.1691 8.77781 19.1028 8.77892 19.1056C9.08591 20.6026 10.2531 21.708 11.7563 21.9794C11.8232 21.9972 11.89 21.9983 11.9585 22.0117L12.0143 22.0145L12.3692 22.0083L12.3664 21.449L12.4405 22.0055L18.7345 21.9732L25.0347 22.005L25.037 21.4473L25.1055 22.0044L25.4609 22.0067L25.5172 21.995C25.5857 21.9816 25.652 21.9626 25.7128 21.9448C27.231 21.6729 28.4043 20.5208 28.7035 19.0109L29.9298 12.8205C30.3265 10.8108 29.015 8.85136 27.0054 8.453ZM28.8356 12.6043L27.6082 18.7947C27.3993 19.8511 26.5769 20.6578 25.5144 20.8483L25.4264 20.8695C25.4002 20.8768 25.3724 20.884 25.3451 20.8907L18.7334 20.8578L12.1274 20.8907C12.1001 20.884 12.0733 20.8768 12.046 20.8695L11.9585 20.8483C10.8955 20.6578 10.0737 19.8522 9.86424 18.7947L8.63741 12.6043C8.36218 11.2148 9.25417 9.85923 10.632 9.55726L13.669 9.56896C13.8339 9.55447 13.9509 9.55113 14.2267 9.57453L18.7396 9.59682L23.3015 9.57175C23.4714 9.55447 23.5811 9.55169 23.8586 9.57175L26.8415 9.55726C28.2183 9.85923 29.1102 11.2142 28.8356 12.6043Z" fill="#828282" stroke="#828282"/>
</g>
<defs>
<clipPath id="clip0">
<rect width="30" height="30" fill="white"/>
</clipPath>
</defs>
</svg>
