<svg width="30" height="30" viewBox="0 0 30 30" fill="none" xmlns="http://www.w3.org/2000/svg">
<g clip-path="url(#clip0)">
<path d="M27.3182 16.5244H24.5409V9.16928C24.5409 8.65048 24.1202 8.22985 23.6014 8.22985H16.8821L11.4722 0.404844C11.099 -0.134977 10.2998 -0.134919 9.92672 0.404844L1.90907 12.0018C1.47964 12.6232 1.92422 13.4755 2.68182 13.4755H5.45913V20.8307C5.45913 21.3495 5.87976 21.7701 6.39856 21.7701H13.1179L18.5278 29.5951C18.9011 30.1349 19.7002 30.1349 20.0733 29.5951L28.0909 17.9981C28.5204 17.3768 28.0758 16.5244 27.3182 16.5244ZM7.33805 19.8913V12.5361C7.33805 12.0173 6.91742 11.5967 6.39862 11.5967H4.47343L10.6995 2.59102L16.9256 11.5967H15.0004C14.4816 11.5967 14.061 12.0173 14.061 12.5361V16.5244H11.283C10.5277 16.5244 10.0794 17.375 10.5102 17.9981L11.819 19.8913H7.33805ZM19.3005 27.409L13.0745 18.4034H15.0004C15.5192 18.4034 15.9398 17.9827 15.9398 17.4639V13.4756H18.7171C19.4738 13.4756 19.9198 12.6239 19.4898 12.0019L18.181 10.1088C18.1869 10.1135 17.9883 10.1088 22.662 10.1088V17.4639C22.662 17.9827 23.0826 18.4034 23.6014 18.4034H25.5266L19.3005 27.409Z" fill="#828282"/>
</g>
<defs>
<clipPath id="clip0">
<rect width="30" height="30" fill="white"/>
</clipPath>
</defs>
</svg>
