<svg width="119" height="119" viewBox="0 0 119 119" fill="none" xmlns="http://www.w3.org/2000/svg">
<g clip-path="url(#clip0)">
<path d="M103.133 1.98334H16.2038C11.8224 1.98334 8.27051 5.53521 8.27051 9.91667V97.1833C8.27051 101.565 11.8224 105.117 16.2038 105.117H103.133C107.515 105.117 111.067 101.565 111.067 97.1833V9.91667C111.067 5.53521 107.515 1.98334 103.133 1.98334Z" fill="#FFDC00"/>
<path d="M103.134 1.98334H97.1836C101.565 1.98334 105.117 5.53521 105.117 9.91667V97.1833C105.117 101.565 101.565 105.117 97.1836 105.117H103.134C107.515 105.117 111.067 101.565 111.067 97.1833V9.91667C111.067 5.53521 107.515 1.98334 103.134 1.98334Z" fill="#FEC108"/>
<path d="M47.6 105.117V111.067C47.6 114.353 44.9361 117.017 41.65 117.017H22.1539C18.8678 117.017 16.2039 114.353 16.2039 111.067V105.117H47.6Z" fill="#607D8B"/>
<path d="M41.6502 105.117V111.067C41.6502 114.353 38.9863 117.017 35.7002 117.017H41.6502C44.9363 117.017 47.6002 114.353 47.6002 111.067V105.117H41.6502Z" fill="#37474F"/>
<path d="M102.796 105.117V111.067C102.796 114.353 100.132 117.017 96.8463 117.017H77.3501C74.0641 117.017 71.4001 114.353 71.4001 111.067V105.117H102.796Z" fill="#607D8B"/>
<path d="M96.8465 105.117V111.067C96.8465 114.353 94.1826 117.017 90.8965 117.017H96.8465C100.133 117.017 102.796 114.353 102.796 111.067V105.117H96.8465Z" fill="#37474F"/>
<path d="M91.2336 27.7667V39.6667C91.2401 41.8547 93.0122 43.6268 95.2002 43.6334H97.1836V63.4667H95.2002C93.0122 63.4732 91.2401 65.2453 91.2336 67.4334V79.3334C91.2401 81.5214 93.0122 83.2935 95.2002 83.3H97.1836V87.2667C97.177 89.4547 95.4049 91.2268 93.2169 91.2334H25.7836C23.5955 91.2268 21.8234 89.4547 21.8169 87.2667V19.8334C21.8234 17.6453 23.5955 15.8732 25.7836 15.8667H93.2169C95.4049 15.8732 97.177 17.6453 97.1836 19.8334V23.8H95.2002C93.0122 23.8066 91.2401 25.5787 91.2336 27.7667Z" fill="#FF9801"/>
<path d="M95.2004 23.8H97.1837V19.8334C97.1772 17.6453 95.405 15.8732 93.217 15.8667H87.267C89.455 15.8732 91.2272 17.6453 91.2337 19.8334V23.8H89.2504C87.0623 23.8066 85.2902 25.5787 85.2837 27.7667V39.6667C85.2902 41.8547 87.0623 43.6268 89.2504 43.6334H91.2337V63.4667H89.2504C87.0623 63.4732 85.2902 65.2453 85.2837 67.4334V79.3334C85.2902 81.5214 87.0623 83.2935 89.2504 83.3H91.2337V87.2667C91.2272 89.4547 89.455 91.2268 87.267 91.2334H93.217C95.405 91.2268 97.1772 89.4547 97.1837 87.2667V83.3H95.2004C93.0123 83.2935 91.2402 81.5214 91.2337 79.3334V67.4334C91.2402 65.2453 93.0123 63.4732 95.2004 63.4667H97.1837V43.6334H95.2004C93.0123 43.6268 91.2402 41.8547 91.2337 39.6667V27.7667C91.2402 25.5787 93.0123 23.8066 95.2004 23.8Z" fill="#F57C00"/>
<path d="M59.5 75.3667C71.549 75.3667 81.3167 65.599 81.3167 53.55C81.3167 41.501 71.549 31.7333 59.5 31.7333C47.451 31.7333 37.6833 41.501 37.6833 53.55C37.6833 65.599 47.451 75.3667 59.5 75.3667Z" fill="#02A9F4"/>
<path d="M79.6568 45.2001C75.8524 36.0414 66.3494 30.601 56.5251 31.9574C67.3437 33.4048 75.4213 42.635 75.4213 53.55C75.4213 64.4649 67.3437 73.6951 56.5251 75.1425C64.2726 76.2289 72.0078 73.0781 76.7911 66.8874C81.5743 60.6967 82.6711 52.4167 79.6647 45.1942L79.6568 45.2001Z" fill="#0377BC"/>
<path d="M59.5002 63.4666C64.977 63.4666 69.4168 59.0268 69.4168 53.55C69.4168 48.0731 64.977 43.6333 59.5002 43.6333C54.0233 43.6333 49.5835 48.0731 49.5835 53.55C49.5835 59.0268 54.0233 63.4666 59.5002 63.4666Z" fill="#0377BC"/>
<path d="M99.167 23.8H95.2003C93.0096 23.8 91.2336 25.5759 91.2336 27.7667V39.6667C91.2336 41.8574 93.0096 43.6333 95.2003 43.6333H99.167C101.358 43.6333 103.134 41.8574 103.134 39.6667V27.7667C103.134 25.5759 101.358 23.8 99.167 23.8Z" fill="#CFD8DC"/>
<path d="M99.1668 23.8H95.2002C94.8648 23.8038 94.5313 23.8518 94.2085 23.9428C95.9538 24.3934 97.1758 25.9641 97.1835 27.7667V39.6667C97.1758 41.4692 95.9538 43.0399 94.2085 43.4905C94.5313 43.5815 94.8648 43.6295 95.2002 43.6333H99.1668C101.355 43.6268 103.127 41.8547 103.133 39.6667V27.7667C103.127 25.5786 101.355 23.8065 99.1668 23.8Z" fill="#9E9E9E"/>
<path d="M99.167 63.4667H95.2003C93.0096 63.4667 91.2336 65.2426 91.2336 67.4333V79.3333C91.2336 81.5241 93.0096 83.3 95.2003 83.3H99.167C101.358 83.3 103.134 81.5241 103.134 79.3333V67.4333C103.134 65.2426 101.358 63.4667 99.167 63.4667Z" fill="#CFD8DC"/>
<path d="M99.1668 63.4667H95.2002C94.8648 63.4705 94.5313 63.5185 94.2085 63.6095C95.9538 64.0601 97.1758 65.6308 97.1835 67.4333V79.3333C97.1758 81.1358 95.9538 82.7066 94.2085 83.1572C94.5313 83.2482 94.8648 83.2962 95.2002 83.3H99.1668C101.355 83.2935 103.127 81.5213 103.133 79.3333V67.4333C103.127 65.2453 101.355 63.4732 99.1668 63.4667Z" fill="#9E9E9E"/>
<path d="M29.7502 35.7C28.6548 35.7 27.7668 34.812 27.7668 33.7167V23.8C27.7668 22.7046 28.6548 21.8167 29.7502 21.8167H39.6668C40.7622 21.8167 41.6502 22.7046 41.6502 23.8C41.6502 24.8953 40.7622 25.7833 39.6668 25.7833H31.7335V33.7167C31.7335 34.812 30.8455 35.7 29.7502 35.7Z" fill="#F5F5F5"/>
<path d="M14.2147 106.902V111.067C14.2147 115.448 17.7666 119 22.1481 119H41.6502C46.0316 119 49.5835 115.448 49.5835 111.067V107.1H69.4169V111.067C69.4169 115.448 72.9687 119 77.3502 119H96.8523C101.234 119 104.786 115.448 104.786 111.067V106.933C109.547 106.129 113.037 102.012 113.05 97.1833V9.91667C113.044 4.44256 108.608 0.00655714 103.134 0H16.204C10.7299 0.00655714 6.29391 4.44256 6.28735 9.91667V17.85C6.28735 18.9454 7.17532 19.8333 8.27069 19.8333C9.36605 19.8333 10.254 18.9454 10.254 17.85V9.91667C10.254 6.63057 12.9179 3.96667 16.204 3.96667H103.134C106.42 3.96667 109.084 6.63057 109.084 9.91667V97.1833C109.084 100.469 106.42 103.133 103.134 103.133H16.204C12.9179 103.133 10.254 100.469 10.254 97.1833V27.7667C10.254 26.6713 9.36605 25.7833 8.27069 25.7833C7.17532 25.7833 6.28735 26.6713 6.28735 27.7667V97.1833C6.29272 101.892 9.60304 105.95 14.2147 106.902ZM100.819 107.1V111.067C100.819 113.257 99.043 115.033 96.8523 115.033H77.3502C75.1595 115.033 73.3835 113.257 73.3835 111.067V107.1H100.819ZM45.6169 107.1V111.067C45.6169 113.257 43.8409 115.033 41.6502 115.033H22.1481C19.9573 115.033 18.1814 113.257 18.1814 111.067V107.1H45.6169Z" fill="black"/>
<path d="M21.8168 67.4334C20.7215 67.4334 19.8335 68.3213 19.8335 69.4167V87.2667C19.8335 90.5528 22.4974 93.2167 25.7835 93.2167H93.2168C96.5029 93.2167 99.1668 90.5528 99.1668 87.2667V85.2834C102.453 85.2834 105.117 82.6195 105.117 79.3334V67.4334C105.117 64.1473 102.453 61.4834 99.1668 61.4834V45.6167C102.453 45.6167 105.117 42.9528 105.117 39.6667V27.7667C105.117 24.4806 102.453 21.8167 99.1668 21.8167V19.8334C99.1668 16.5473 96.5029 13.8834 93.2168 13.8834H25.7835C22.4974 13.8834 19.8335 16.5473 19.8335 19.8334V59.5C19.8335 60.5954 20.7215 61.4834 21.8168 61.4834C22.9122 61.4834 23.8002 60.5954 23.8002 59.5V19.8334C23.8002 18.738 24.6881 17.85 25.7835 17.85H93.2168C94.3122 17.85 95.2002 18.738 95.2002 19.8334V21.8167C91.9141 21.8167 89.2502 24.4806 89.2502 27.7667V39.6667C89.2502 42.9528 91.9141 45.6167 95.2002 45.6167V61.4834C91.9141 61.4834 89.2502 64.1473 89.2502 67.4334V79.3334C89.2502 82.6195 91.9141 85.2834 95.2002 85.2834V87.2667C95.2002 88.3621 94.3122 89.25 93.2168 89.25H25.7835C24.6881 89.25 23.8002 88.3621 23.8002 87.2667V69.4167C23.8002 68.3213 22.9122 67.4334 21.8168 67.4334ZM93.2168 39.6667V27.7667C93.2168 26.6713 94.1048 25.7834 95.2002 25.7834H99.1668C100.262 25.7834 101.15 26.6713 101.15 27.7667V39.6667C101.15 40.7621 100.262 41.65 99.1668 41.65H95.2002C94.1048 41.65 93.2168 40.7621 93.2168 39.6667ZM93.2168 79.3334V67.4334C93.2168 66.338 94.1048 65.45 95.2002 65.45H99.1668C100.262 65.45 101.15 66.338 101.15 67.4334V79.3334C101.15 80.4287 100.262 81.3167 99.1668 81.3167H95.2002C94.1048 81.3167 93.2168 80.4287 93.2168 79.3334Z" fill="black"/>
<path d="M37.513 62.6575C41.858 73.1477 53.0082 79.1078 64.1444 76.8928C75.2807 74.6777 83.3015 64.9045 83.3015 53.55C83.3015 42.1956 75.2807 32.4223 64.1444 30.2073C53.0082 27.9923 41.858 33.9523 37.513 44.4426C35.0783 50.2701 35.0783 56.8299 37.513 62.6575ZM50.1151 36.0808L50.837 37.8222C51.0981 38.4918 51.701 38.9678 52.4129 39.0664C53.1248 39.165 53.8343 38.8707 54.2675 38.2972C54.7007 37.7238 54.7897 36.9608 54.5003 36.303L53.7803 34.5616C57.5092 33.4272 61.4913 33.4272 65.2202 34.5616L64.5002 36.303C64.2107 36.9608 64.2998 37.7238 64.733 38.2972C65.1662 38.8707 65.8757 39.165 66.5876 39.0664C67.2995 38.9678 67.9024 38.4918 68.1634 37.8222L68.8854 36.0789C72.3237 37.9142 75.1389 40.7301 76.9734 44.1689L75.232 44.8908C74.5624 45.1518 74.0864 45.7547 73.9878 46.4666C73.8893 47.1785 74.1835 47.8881 74.757 48.3213C75.3305 48.7545 76.0935 48.8435 76.7513 48.554L78.4926 47.8341C79.6271 51.563 79.6271 55.545 78.4926 59.2739L76.7513 58.554C76.0935 58.2645 75.3305 58.3535 74.757 58.7867C74.1835 59.2199 73.8893 59.9295 73.9878 60.6414C74.0864 61.3533 74.5624 61.9562 75.232 62.2172L76.9754 62.9391C75.14 66.3774 72.3241 69.1926 68.8854 71.0272L68.1634 69.2858C67.9024 68.6162 67.2995 68.1402 66.5876 68.0416C65.8757 67.943 65.1662 68.2373 64.733 68.8108C64.2998 69.3842 64.2107 70.1472 64.5002 70.805L65.2202 72.5464C61.4913 73.6808 57.5092 73.6808 53.7803 72.5464L54.5003 70.805C54.7897 70.1472 54.7007 69.3842 54.2675 68.8108C53.8343 68.2373 53.1248 67.943 52.4129 68.0416C51.701 68.1402 51.0981 68.6162 50.837 69.2858L50.1151 71.0291C46.6768 69.1938 43.8616 66.3779 42.0271 62.9391L43.7684 62.2172C44.4381 61.9562 44.9141 61.3533 45.0127 60.6414C45.1112 59.9295 44.817 59.2199 44.2435 58.7867C43.67 58.3535 42.907 58.2645 42.2492 58.554L40.5078 59.2739C39.3734 55.545 39.3734 51.563 40.5078 47.8341L42.2492 48.554C42.907 48.8435 43.67 48.7545 44.2435 48.3213C44.817 47.8881 45.1112 47.1785 45.0127 46.4666C44.9141 45.7547 44.4381 45.1518 43.7684 44.8908L42.0251 44.1689C43.8599 40.7291 46.6758 37.9125 50.1151 36.0769V36.0808Z" fill="black"/>
<path d="M59.5159 65.45C64.7566 65.4418 69.375 62.0062 70.8896 56.9891C72.4041 51.972 70.4582 46.5547 66.0975 43.6481C61.7367 40.7414 55.9877 41.0297 51.9397 44.3581C47.8916 47.6865 46.4975 53.2713 48.5064 58.1116C50.3567 62.5573 54.7005 65.4527 59.5159 65.45ZM56.4635 46.2117C60.5118 44.5416 65.1477 46.4676 66.8206 50.5148C68.4936 54.5619 66.5708 59.1991 62.5249 60.8749C58.4789 62.5507 53.8404 60.6312 52.1617 56.5865C51.3485 54.641 51.3454 52.4514 52.153 50.5036C52.9607 48.5558 54.5123 47.0109 56.4635 46.2117Z" fill="black"/>
</g>
<defs>
<clipPath id="clip0">
<rect width="119" height="119" fill="white"/>
</clipPath>
</defs>
</svg>
