<svg width="145" height="145" viewBox="0 0 145 145" fill="none" xmlns="http://www.w3.org/2000/svg">
<g clip-path="url(#clip0)">
<path d="M24.8257 102.012H11.2047C9.95099 102.012 8.93457 103.029 8.93457 104.282V124.714H27.0961V104.282C27.0958 103.029 26.0797 102.012 24.8257 102.012Z" fill="#7DC3EE"/>
<path d="M15.745 113.363V102.012H11.2047C9.95099 102.012 8.93457 103.029 8.93457 104.282V124.714H27.0961V117.904H20.2854C17.7779 117.904 15.745 115.871 15.745 113.363Z" fill="#64ACDC"/>
<path d="M61.1487 74.7702H47.5275L45.2573 124.714H63.4189V77.0403C63.4189 75.7866 62.4027 74.7702 61.1487 74.7702Z" fill="#E15F78"/>
<path d="M52.068 113.363V86.1209H47.5277C46.274 86.1209 45.2576 87.1374 45.2576 88.3911V124.714H63.4191V117.904H56.6086C54.1009 117.904 52.068 115.871 52.068 113.363Z" fill="#DB4655"/>
<path d="M97.4719 88.3914H83.8507C82.597 88.3914 81.5806 89.4078 81.5806 90.6615V124.714H99.7421V90.6615C99.7424 89.4075 98.726 88.3914 97.4719 88.3914Z" fill="#D6BDEF"/>
<path d="M88.391 113.363V88.3914H83.8507C82.597 88.3914 81.5806 89.4078 81.5806 90.6615V124.714H99.7421V117.904H92.9316C90.4239 117.904 88.391 115.871 88.391 113.363Z" fill="#C3AFF0"/>
<path d="M133.795 47.5277H120.174L117.904 124.714H136.065V49.7979C136.065 48.5441 135.049 47.5277 133.795 47.5277Z" fill="#AFEFA5"/>
<path d="M124.714 113.363V47.5277H120.174C118.92 47.5277 117.904 48.5441 117.904 49.7979V124.714H136.065V117.904H129.255C126.747 117.904 124.714 115.871 124.714 113.363Z" fill="#8CE1A4"/>
<path d="M136.065 61.1489H117.904V49.7979C117.904 48.5441 118.92 47.5277 120.174 47.5277H133.795C135.049 47.5277 136.065 48.5441 136.065 49.7979V61.1489Z" fill="#CDFFA0"/>
<path d="M124.714 47.5277H120.174C118.92 47.5277 117.904 48.5441 117.904 49.7979V61.1489H124.714V47.5277Z" fill="#AFEFA5"/>
<path d="M88.391 97.472H81.5806V90.6615C81.5806 89.4078 82.597 88.3914 83.8507 88.3914H88.391V97.472Z" fill="#D6BDEF"/>
<path d="M88.3914 97.472H99.7424V90.6615C99.7424 89.4078 98.726 88.3914 97.4723 88.3914H88.3914V97.472Z" fill="#EAD1FF"/>
<path d="M52.068 88.3914H45.2576V77.0403C45.2576 75.7866 46.274 74.7702 47.5277 74.7702H52.068V88.3914Z" fill="#FF7D91"/>
<path d="M52.0681 88.3914H63.4192V77.0403C63.4192 75.7866 62.4028 74.7702 61.149 74.7702H52.0681V88.3914Z" fill="#FF9A9F"/>
<path d="M15.7451 111.093H8.93433V104.283C8.93433 103.029 9.95074 102.013 11.2045 102.013H15.7448V111.093H15.7451Z" fill="#7DC3EE"/>
<path d="M15.7451 111.093H27.0962V104.283C27.0962 103.029 26.0798 102.013 24.826 102.013H15.7451V111.093Z" fill="#9BD4F5"/>
<path d="M142.876 122.59H138.19V49.7982C138.19 47.3751 136.218 45.404 133.795 45.404H120.174C117.751 45.404 115.78 47.3751 115.78 49.7982V67.9591C115.78 69.1322 116.731 70.0831 117.904 70.0831C119.077 70.0831 120.028 69.1322 120.028 67.9591V63.273H133.941V122.59H120.028V77.0403C120.028 75.8673 119.077 74.9163 117.904 74.9163C116.731 74.9163 115.78 75.8673 115.78 77.0403V122.59H101.866V90.6615C101.866 88.2384 99.8954 86.2674 97.4723 86.2674H83.8511C81.428 86.2674 79.4569 88.2384 79.4569 90.6615V122.59H65.5434V77.0403C65.5434 74.6172 63.5723 72.6461 61.1492 72.6461H47.528C45.1049 72.6461 43.1338 74.6172 43.1338 77.0403V95.2013C43.1338 96.3743 44.0848 97.3253 45.2578 97.3253C46.4309 97.3253 47.3819 96.3743 47.3819 95.2013V90.5151H61.2954V122.59H47.3819V104.282C47.3819 103.109 46.4309 102.158 45.2578 102.158C44.0848 102.158 43.1338 103.109 43.1338 104.282V122.59H29.2203V106.553C29.2203 104.13 27.2492 102.158 24.8262 102.158H11.2046C8.78156 102.158 6.81047 104.13 6.81047 106.553V122.59H2.12402C0.950996 122.59 0 123.541 0 124.714C0 125.887 0.950996 126.838 2.12402 126.838H142.876C144.049 126.838 145 125.887 145 124.714C145 123.541 144.049 122.59 142.876 122.59ZM120.028 59.0249V49.7979C120.028 49.7172 120.093 49.6517 120.174 49.6517H133.795C133.876 49.6517 133.941 49.7172 133.941 49.7979V59.0249H120.028ZM47.3819 86.2671V77.04C47.3819 76.9593 47.4473 76.8939 47.528 76.8939H61.1492C61.2299 76.8939 61.2954 76.9593 61.2954 77.04V86.2671H47.3819ZM83.8511 90.5151H97.4723C97.553 90.5151 97.6184 90.5805 97.6184 90.6613V95.3477H83.7049V90.6613C83.7047 90.5808 83.7703 90.5151 83.8511 90.5151ZM83.7047 99.596H97.6181V122.59H83.7047V99.596ZM11.2046 106.407H24.8259C24.9066 106.407 24.972 106.472 24.972 106.553V111.239H11.0585V106.553C11.0585 106.472 11.1242 106.407 11.2046 106.407ZM11.0585 115.487H24.972V122.59H11.0585V115.487Z" fill="black"/>
<path d="M4.39422 97.3259C4.93768 97.3259 5.48143 97.1186 5.89604 96.7037L50.3598 52.2402C50.816 51.7837 51.4229 51.5325 52.0683 51.5325C52.7138 51.5325 53.3204 51.7837 53.7769 52.2402L72.3279 70.7912C73.5864 72.05 75.2601 72.743 77.0404 72.743C78.8206 72.743 80.494 72.05 81.7529 70.7912L126.251 26.2931L124.882 35.8765C124.716 37.0379 125.523 38.1135 126.684 38.2794C126.786 38.2939 126.888 38.301 126.987 38.301C128.027 38.301 128.936 37.5363 129.088 36.4771L131.358 20.5858C131.452 19.9239 131.23 19.2561 130.757 18.7834C130.284 18.3108 129.617 18.0888 128.955 18.1825L113.063 20.4529C111.902 20.6189 111.095 21.6948 111.261 22.8559C111.427 24.0173 112.504 24.8236 113.664 24.6582L123.247 23.2892L78.7489 67.7875C78.2927 68.2437 77.6858 68.4952 77.0404 68.4952C76.3949 68.4952 75.788 68.244 75.3318 67.7875L56.7808 49.2366C55.522 47.9777 53.8486 47.2844 52.0683 47.2844C50.2881 47.2844 48.6147 47.9777 47.3558 49.2366L2.89239 93.7C2.06289 94.5295 2.06289 95.8745 2.89239 96.7037C3.307 97.1186 3.85075 97.3259 4.39422 97.3259Z" fill="black"/>
</g>
<defs>
<clipPath id="clip0">
<rect width="145" height="145" fill="white"/>
</clipPath>
</defs>
</svg>
