<svg width="22" height="22" viewBox="0 0 22 22" fill="none" xmlns="http://www.w3.org/2000/svg">
<path d="M21.3555 20.7109H1.28906V0.644531C1.28906 0.288578 1.00048 0 0.644531 0C0.288578 0 0 0.288578 0 0.644531V21.3555C0 21.7114 0.288578 22 0.644531 22H21.3555C21.7114 22 22 21.7114 22 21.3555C22 20.9995 21.7114 20.7109 21.3555 20.7109Z" fill="#AAAAAA"/>
<path d="M3.22266 14.1797C2.8667 14.1797 2.57812 14.4683 2.57812 14.8242V18.7773C2.57812 19.1333 2.8667 19.4219 3.22266 19.4219H5.84375C6.1997 19.4219 6.48828 19.1333 6.48828 18.7773V14.8242C6.48828 14.4683 6.1997 14.1797 5.84375 14.1797H3.22266ZM5.19922 18.1328H3.86719V15.4688H5.19922V18.1328Z" fill="#AAAAAA"/>
<path d="M8.42188 11.6016C8.06592 11.6016 7.77734 11.8901 7.77734 12.2461V18.7773C7.77734 19.1333 8.06592 19.4219 8.42188 19.4219H11C11.356 19.4219 11.6445 19.1333 11.6445 18.7773V12.2461C11.6445 11.8901 11.356 11.6016 11 11.6016H8.42188ZM10.3555 18.1328H9.06641V12.8906H10.3555V18.1328Z" fill="#AAAAAA"/>
<path d="M13.5781 9.02344C13.2222 9.02344 12.9336 9.31202 12.9336 9.66797V18.7773C12.9336 19.1333 13.2222 19.4219 13.5781 19.4219H16.1562C16.5122 19.4219 16.8008 19.1333 16.8008 18.7773V9.66797C16.8008 9.31202 16.5122 9.02344 16.1562 9.02344H13.5781ZM15.5117 18.1328H14.2227V10.3125H15.5117V18.1328Z" fill="#AAAAAA"/>
<path d="M21.3555 6.44531H18.7344C18.3784 6.44531 18.0898 6.73389 18.0898 7.08984V18.7773C18.0898 19.1333 18.3784 19.4219 18.7344 19.4219H21.3555C21.7114 19.4219 22 19.1333 22 18.7773V7.08984C22 6.73389 21.7114 6.44531 21.3555 6.44531ZM20.7109 18.1328H19.3789V7.73438H20.7109V18.1328Z" fill="#AAAAAA"/>
<path d="M18.4462 5.08823C18.7649 5.24764 19.1519 5.11792 19.3109 4.8L20.5999 2.22187C20.6998 2.02211 20.6892 1.78479 20.5717 1.59479C20.4543 1.40473 20.2468 1.28906 20.0235 1.28906H16.8008C16.4449 1.28906 16.1563 1.57764 16.1563 1.93359C16.1563 2.28955 16.4449 2.57812 16.8008 2.57812H17.4612L2.91769 10.3892C2.6041 10.5576 2.48641 10.9484 2.65485 11.262C2.77116 11.4786 2.99348 11.6017 3.22324 11.6017C3.32619 11.6017 3.43065 11.5769 3.52767 11.5249L18.5382 3.46294L18.1579 4.22348C17.9987 4.54188 18.1278 4.92899 18.4462 5.08823Z" fill="#AAAAAA"/>
</svg>
