<svg width="22" height="22" viewBox="0 0 22 22" fill="none" xmlns="http://www.w3.org/2000/svg">
<path d="M15.4 15.4C15.1976 15.4 15.0334 15.5642 15.0334 15.7667V16.8667H3.66671C3.46422 16.8667 3.30004 17.0308 3.30004 17.2333C3.30004 17.4358 3.46422 17.6 3.66671 17.6H15.0334V20.1667C15.0334 20.7741 14.5408 21.2667 13.9334 21.2667H3.66671C3.05924 21.2667 2.56671 20.7741 2.56671 20.1667V1.83333C2.56671 1.22586 3.05924 0.733333 3.66671 0.733333H13.9334C14.5408 0.733333 15.0334 1.22586 15.0334 1.83333V4.03333C15.0334 4.23582 15.1976 4.4 15.4 4.4C15.6025 4.4 15.7667 4.23582 15.7667 4.03333V1.83333C15.7667 0.820882 14.9458 0 13.9334 0H3.66671C2.65426 0 1.83337 0.820882 1.83337 1.83333V20.1667C1.83337 21.1791 2.65426 22 3.66671 22H13.9334C14.9458 22 15.7667 21.1791 15.7667 20.1667V15.7667C15.7667 15.5642 15.6025 15.4 15.4 15.4Z" fill="#7D7D7D"/>
<path d="M10.2666 19.0667C10.4691 19.0667 10.6333 18.9025 10.6333 18.7C10.6333 18.4975 10.4691 18.3333 10.2666 18.3333H7.33331C6.92833 18.3333 6.59998 18.6617 6.59998 19.0667V19.8C6.59998 20.205 6.92833 20.5333 7.33331 20.5333H10.2666C10.4691 20.5333 10.6333 20.3692 10.6333 20.1667C10.6333 19.9642 10.4691 19.8 10.2666 19.8H7.33331V19.0667H10.2666Z" fill="#7D7D7D"/>
<path d="M15.4 11.7333C14.995 11.7333 14.6667 11.405 14.6667 11C14.6667 10.7975 14.5025 10.6333 14.3 10.6333C14.0975 10.6333 13.9333 10.7975 13.9333 11C13.9355 11.6671 14.3876 12.2486 15.0333 12.4153V12.8333C15.0333 13.0358 15.1975 13.2 15.4 13.2C15.6025 13.2 15.7667 13.0358 15.7667 12.8333V12.4153C16.4728 12.2235 16.9297 11.5407 16.8373 10.8149C16.7449 10.0889 16.1317 9.54211 15.4 9.53334C14.995 9.53334 14.6667 9.20499 14.6667 8.80001C14.6667 8.39503 14.995 8.06667 15.4 8.06667C15.805 8.06667 16.1333 8.39503 16.1333 8.80001C16.1333 9.0025 16.2975 9.16667 16.5 9.16667C16.7025 9.16667 16.8667 9.0025 16.8667 8.80001C16.8645 8.13292 16.4125 7.55141 15.7667 7.38472V6.96667C15.7667 6.76418 15.6025 6.60001 15.4 6.60001C15.1975 6.60001 15.0333 6.76418 15.0333 6.96667V7.38472C14.3272 7.57647 13.8703 8.25932 13.9627 8.98513C14.0551 9.71112 14.6683 10.2579 15.4 10.2667C15.805 10.2667 16.1333 10.595 16.1333 11C16.1333 11.405 15.805 11.7333 15.4 11.7333Z" fill="#7D7D7D"/>
<path d="M15.4 5.13333C13.8517 5.13262 12.3996 5.88403 11.5058 7.14821C10.6119 8.41238 10.3879 10.0319 10.9048 11.4913C10.9725 11.6827 11.1826 11.7829 11.374 11.7151C11.5654 11.6472 11.6655 11.437 11.5976 11.2456C11.444 10.8136 11.3658 10.3585 11.3667 9.89999C11.3674 7.97589 12.727 6.31998 14.6144 5.94526C16.5016 5.57054 18.391 6.58102 19.1268 8.35885C19.8627 10.1369 19.2402 12.1868 17.6399 13.2555C16.0397 14.3242 13.9076 14.1136 12.5474 12.7526C12.4019 12.6282 12.1851 12.6364 12.0495 12.7719C11.9142 12.9073 11.9058 13.1243 12.0304 13.2696C13.5558 14.7959 15.9162 15.1069 17.785 14.0282C19.6536 12.9493 20.5647 10.7497 20.0057 8.66554C19.447 6.58138 17.5578 5.13262 15.4 5.13333Z" fill="#7D7D7D"/>
<path d="M6.96665 6.96666H9.53332C9.73581 6.96666 9.89998 6.80248 9.89998 6.6C9.89998 6.39751 9.73581 6.23333 9.53332 6.23333H7.33332V5.86666C7.33296 5.72558 7.25168 5.59739 7.12438 5.5367C6.99816 5.47672 6.84884 5.49391 6.73927 5.58074L4.90594 7.04741C4.81929 7.11687 4.7688 7.22215 4.7688 7.33333C4.7688 7.44451 4.81929 7.54978 4.90594 7.61925L6.73927 9.08591C6.80391 9.13783 6.88394 9.16612 6.96665 9.16666C7.02144 9.16755 7.0755 9.15502 7.12438 9.12995C7.25168 9.06926 7.33296 8.94107 7.33332 8.79999V8.43332H9.53332C9.73581 8.43332 9.89998 8.26915 9.89998 8.06666C9.89998 7.86417 9.73581 7.69999 9.53332 7.69999H6.96665C6.77508 7.69946 6.61538 7.84644 6.59998 8.0373L5.72002 7.33333L6.59998 6.62936C6.61538 6.82021 6.77508 6.9672 6.96665 6.96666Z" fill="#7D7D7D"/>
<path d="M7.54233 13.53C7.5912 13.555 7.64527 13.5676 7.70006 13.5667C7.78277 13.5661 7.8628 13.5378 7.92743 13.4859L9.76077 12.0192C9.84742 11.9498 9.89791 11.8445 9.89791 11.7333C9.89791 11.6221 9.84742 11.5169 9.76077 11.4474L7.92743 9.98074C7.81786 9.8939 7.66855 9.87672 7.54233 9.93669C7.41503 9.99739 7.33375 10.1256 7.33339 10.2667V10.6333H5.13339C4.9309 10.6333 4.76672 10.7975 4.76672 11C4.76672 11.2025 4.9309 11.3667 5.13339 11.3667H7.70006C7.89163 11.3672 8.05133 11.2202 8.06672 11.0294L8.94669 11.7333L8.06672 12.4373C8.05133 12.2464 7.89163 12.0995 7.70006 12.1H5.13339C4.9309 12.1 4.76672 12.2642 4.76672 12.4667C4.76672 12.6691 4.9309 12.8333 5.13339 12.8333H7.33339V13.2C7.33375 13.3411 7.41503 13.4693 7.54233 13.53Z" fill="#7D7D7D"/>
<path d="M4.76666 2.20001C4.76666 2.4025 4.60248 2.56668 4.39999 2.56668C4.1975 2.56668 4.03333 2.4025 4.03333 2.20001C4.03333 1.99752 4.1975 1.83334 4.39999 1.83334C4.60248 1.83334 4.76666 1.99752 4.76666 2.20001Z" fill="#7D7D7D"/>
<path d="M6.23333 2.20001C6.23333 2.4025 6.06916 2.56668 5.86667 2.56668C5.66418 2.56668 5.5 2.4025 5.5 2.20001C5.5 1.99752 5.66418 1.83334 5.86667 1.83334C6.06916 1.83334 6.23333 1.99752 6.23333 2.20001Z" fill="#7D7D7D"/>
<path d="M12.1 4.76666C12.1 4.56417 11.9358 4.39999 11.7333 4.39999H9.53329C9.3308 4.39999 9.16663 4.56417 9.16663 4.76666C9.16663 4.96915 9.3308 5.13333 9.53329 5.13333H11.7333C11.9358 5.13333 12.1 4.96915 12.1 4.76666Z" fill="#7D7D7D"/>
<path d="M8.43332 15.4H11C11.2025 15.4 11.3667 15.2358 11.3667 15.0333C11.3667 14.8308 11.2025 14.6667 11 14.6667H8.43332C8.23083 14.6667 8.06665 14.8308 8.06665 15.0333C8.06665 15.2358 8.23083 15.4 8.43332 15.4Z" fill="#7D7D7D"/>
</svg>
