<svg width="22" height="22" viewBox="0 0 22 22" fill="none" xmlns="http://www.w3.org/2000/svg">
<path d="M19.4219 5.19922V1.33203H2.57812C1.15655 1.33203 0 2.48858 0 3.91016V17.4453C0 19.2223 1.44568 20.668 3.22266 20.668H22V5.19922H19.4219ZM2.57812 2.62109H18.1328V5.19922H2.57812C1.86734 5.19922 1.28906 4.62095 1.28906 3.91016C1.28906 3.19937 1.86734 2.62109 2.57812 2.62109ZM20.7109 15.5117H17.4883C16.4221 15.5117 15.5547 14.6443 15.5547 13.5781C15.5547 12.5119 16.4221 11.6445 17.4883 11.6445H20.7109V15.5117ZM20.7109 10.3555H17.4883C15.7113 10.3555 14.2656 11.8012 14.2656 13.5781C14.2656 15.3551 15.7113 16.8008 17.4883 16.8008H20.7109V19.3789H3.22266C2.15647 19.3789 1.28906 18.5115 1.28906 17.4453V6.14144C1.66861 6.36157 2.10869 6.48828 2.57812 6.48828C3.5212 6.48828 19.32 6.48828 20.7109 6.48828V10.3555Z" fill="#6071E4"/>
<path d="M18.1328 12.9336H16.8438V14.2227H18.1328V12.9336Z" fill="#6071E4"/>
</svg>
