<svg width="429" height="426" viewBox="0 0 429 426" fill="none" xmlns="http://www.w3.org/2000/svg">
<mask id="mask0" mask-type="alpha" maskUnits="userSpaceOnUse" x="0" y="10" width="352" height="377">
<path opacity="0.69" d="M272.813 112.36C78.4215 -57.7768 7.65588 33.1566 0.59729 43.4449C0.169525 44.0683 0.00384521 44.7551 0.0108643 45.5112L1.0614 158.406C2.453 307.953 134.82 444.311 259.682 361.996C297.231 337.243 328.731 302.954 345.003 255.475C376.756 162.825 288.663 126.232 272.813 112.36Z" fill="white" fill-opacity="0.33"/>
</mask>
<g mask="url(#mask0)">
<circle cx="2.07997" cy="5.2101" r="4.92983" fill="white" fill-opacity="0.33"/>
<circle cx="18.5126" cy="5.2101" r="4.92983" fill="white" fill-opacity="0.33"/>
<circle cx="34.9455" cy="5.2101" r="4.92983" fill="white" fill-opacity="0.33"/>
<circle cx="51.3781" cy="5.2101" r="4.92983" fill="white" fill-opacity="0.33"/>
<circle cx="67.8107" cy="5.2101" r="4.92983" fill="white" fill-opacity="0.33"/>
<circle cx="84.2438" cy="5.2101" r="4.92983" fill="white" fill-opacity="0.33"/>
<circle cx="100.676" cy="5.2101" r="4.92983" fill="white" fill-opacity="0.33"/>
<circle cx="117.109" cy="5.2101" r="4.92983" fill="white" fill-opacity="0.33"/>
<circle cx="133.542" cy="5.2101" r="4.92983" fill="white" fill-opacity="0.33"/>
<circle cx="149.975" cy="5.2101" r="4.92983" fill="white" fill-opacity="0.33"/>
<circle cx="166.407" cy="5.2101" r="4.92983" fill="white" fill-opacity="0.33"/>
<circle cx="182.84" cy="5.2101" r="4.92983" fill="white" fill-opacity="0.33"/>
<circle cx="199.273" cy="5.2101" r="4.92983" fill="white" fill-opacity="0.33"/>
<circle cx="215.706" cy="5.2101" r="4.92983" fill="white" fill-opacity="0.33"/>
<circle cx="232.138" cy="5.2101" r="4.92983" fill="white" fill-opacity="0.33"/>
<circle cx="248.571" cy="5.2101" r="4.92983" fill="white" fill-opacity="0.33"/>
<circle cx="265.004" cy="5.2101" r="4.92983" fill="white" fill-opacity="0.33"/>
<circle cx="281.437" cy="5.2101" r="4.92983" fill="white" fill-opacity="0.33"/>
<circle cx="297.87" cy="5.2101" r="4.92983" fill="white" fill-opacity="0.33"/>
<circle cx="314.302" cy="5.2101" r="4.92983" fill="white" fill-opacity="0.33"/>
<circle cx="330.735" cy="5.2101" r="4.92983" fill="white" fill-opacity="0.33"/>
<circle cx="347.168" cy="5.2101" r="4.92983" fill="white" fill-opacity="0.33"/>
<circle cx="2.07997" cy="21.6427" r="4.92983" fill="white" fill-opacity="0.33"/>
<circle cx="34.9455" cy="21.6427" r="4.92983" fill="white" fill-opacity="0.33"/>
<circle cx="51.3781" cy="21.6427" r="4.92983" fill="white" fill-opacity="0.33"/>
<circle cx="67.8107" cy="21.6427" r="4.92983" fill="white" fill-opacity="0.33"/>
<circle cx="84.2438" cy="21.6427" r="4.92983" fill="white" fill-opacity="0.33"/>
<circle cx="100.676" cy="21.6427" r="4.92983" fill="white" fill-opacity="0.33"/>
<circle cx="149.975" cy="21.6427" r="4.92983" fill="white" fill-opacity="0.33"/>
<circle cx="166.407" cy="21.6427" r="4.92983" fill="white" fill-opacity="0.33"/>
<circle cx="182.84" cy="21.6427" r="4.92983" fill="white" fill-opacity="0.33"/>
<circle cx="199.273" cy="21.6427" r="4.92983" fill="white" fill-opacity="0.33"/>
<circle cx="215.706" cy="21.6427" r="4.92983" fill="white" fill-opacity="0.33"/>
<circle cx="232.138" cy="21.6427" r="4.92983" fill="white" fill-opacity="0.33"/>
<circle cx="248.571" cy="21.6427" r="4.92983" fill="white" fill-opacity="0.33"/>
<circle cx="265.004" cy="21.6427" r="4.92983" fill="white" fill-opacity="0.33"/>
<circle cx="281.437" cy="21.6427" r="4.92983" fill="white" fill-opacity="0.33"/>
<circle cx="297.87" cy="21.6427" r="4.92983" fill="white" fill-opacity="0.33"/>
<circle cx="314.302" cy="21.6427" r="4.92983" fill="white" fill-opacity="0.33"/>
<circle cx="330.735" cy="21.6427" r="4.92983" fill="white" fill-opacity="0.33"/>
<circle cx="347.168" cy="21.6427" r="4.92983" fill="white" fill-opacity="0.33"/>
<circle cx="18.5126" cy="38.0753" r="4.92983" fill="white" fill-opacity="0.33"/>
<circle cx="34.9455" cy="38.0753" r="4.92983" fill="white" fill-opacity="0.33"/>
<circle cx="51.3781" cy="38.0753" r="4.92983" fill="white" fill-opacity="0.33"/>
<circle cx="67.8107" cy="38.0753" r="4.92983" fill="white" fill-opacity="0.33"/>
<circle cx="84.2438" cy="38.0753" r="4.92983" fill="white" fill-opacity="0.33"/>
<circle cx="100.676" cy="38.0753" r="4.92983" fill="white" fill-opacity="0.33"/>
<circle cx="117.109" cy="38.0753" r="4.92983" fill="white" fill-opacity="0.33"/>
<circle cx="133.542" cy="38.0753" r="4.92983" fill="white" fill-opacity="0.33"/>
<circle cx="149.975" cy="38.0753" r="4.92983" fill="white" fill-opacity="0.33"/>
<circle cx="182.84" cy="38.0753" r="4.92983" fill="white" fill-opacity="0.33"/>
<circle cx="199.273" cy="38.0753" r="4.92983" fill="white" fill-opacity="0.33"/>
<circle cx="215.706" cy="38.0753" r="4.92983" fill="white" fill-opacity="0.33"/>
<circle cx="232.138" cy="38.0753" r="4.92983" fill="white" fill-opacity="0.33"/>
<circle cx="248.571" cy="38.0753" r="4.92983" fill="white" fill-opacity="0.33"/>
<circle cx="265.004" cy="38.0753" r="4.92983" fill="white" fill-opacity="0.33"/>
<circle cx="281.437" cy="38.0753" r="4.92983" fill="white" fill-opacity="0.33"/>
<circle cx="297.87" cy="38.0753" r="4.92983" fill="white" fill-opacity="0.33"/>
<circle cx="314.302" cy="38.0753" r="4.92983" fill="white" fill-opacity="0.33"/>
<circle cx="330.735" cy="38.0753" r="4.92983" fill="white" fill-opacity="0.33"/>
<circle cx="347.168" cy="38.0753" r="4.92983" fill="white" fill-opacity="0.33"/>
<circle cx="18.5126" cy="54.5084" r="4.92983" fill="white" fill-opacity="0.33"/>
<circle cx="34.9455" cy="54.5084" r="4.92983" fill="white" fill-opacity="0.33"/>
<circle cx="51.3781" cy="54.5084" r="4.92983" fill="white" fill-opacity="0.33"/>
<circle cx="67.8107" cy="54.5084" r="4.92983" fill="white" fill-opacity="0.33"/>
<circle cx="84.2438" cy="54.5084" r="4.92983" fill="white" fill-opacity="0.33"/>
<circle cx="100.676" cy="54.5084" r="4.92983" fill="white" fill-opacity="0.33"/>
<circle cx="117.109" cy="54.5084" r="4.92983" fill="white" fill-opacity="0.33"/>
<circle cx="133.542" cy="54.5084" r="4.92983" fill="white" fill-opacity="0.33"/>
<circle cx="149.975" cy="54.5084" r="4.92983" fill="white" fill-opacity="0.33"/>
<circle cx="166.407" cy="54.5084" r="4.92983" fill="white" fill-opacity="0.33"/>
<circle cx="182.84" cy="54.5084" r="4.92983" fill="white" fill-opacity="0.33"/>
<circle cx="215.706" cy="54.5084" r="4.92983" fill="white" fill-opacity="0.33"/>
<circle cx="232.138" cy="54.5084" r="4.92983" fill="white" fill-opacity="0.33"/>
<circle cx="248.571" cy="54.5084" r="4.92983" fill="white" fill-opacity="0.33"/>
<circle cx="265.004" cy="54.5084" r="4.92983" fill="white" fill-opacity="0.33"/>
<circle cx="281.437" cy="54.5084" r="4.92983" fill="white" fill-opacity="0.33"/>
<circle cx="297.87" cy="54.5084" r="4.92983" fill="white" fill-opacity="0.33"/>
<circle cx="314.302" cy="54.5084" r="4.92983" fill="white" fill-opacity="0.33"/>
<circle cx="330.735" cy="54.5084" r="4.92983" fill="white" fill-opacity="0.33"/>
<circle cx="347.168" cy="54.5084" r="4.92983" fill="white" fill-opacity="0.33"/>
<circle cx="18.5126" cy="70.9411" r="4.92983" fill="white" fill-opacity="0.33"/>
<circle cx="34.9455" cy="70.9411" r="4.92983" fill="white" fill-opacity="0.33"/>
<circle cx="51.3781" cy="70.9411" r="4.92983" fill="white" fill-opacity="0.33"/>
<circle cx="67.8107" cy="70.9411" r="4.92983" fill="white" fill-opacity="0.33"/>
<circle cx="84.2438" cy="70.9411" r="4.92983" fill="white" fill-opacity="0.33"/>
<circle cx="100.676" cy="70.9411" r="4.92983" fill="white" fill-opacity="0.33"/>
<circle cx="117.109" cy="70.9411" r="4.92983" fill="white" fill-opacity="0.33"/>
<circle cx="133.542" cy="70.9411" r="4.92983" fill="white" fill-opacity="0.33"/>
<circle cx="149.975" cy="70.9411" r="4.92983" fill="white" fill-opacity="0.33"/>
<circle cx="166.407" cy="70.9411" r="4.92983" fill="white" fill-opacity="0.33"/>
<circle cx="182.84" cy="70.9411" r="4.92983" fill="white" fill-opacity="0.33"/>
<circle cx="199.273" cy="70.9411" r="4.92983" fill="white" fill-opacity="0.33"/>
<circle cx="232.138" cy="70.9411" r="4.92983" fill="white" fill-opacity="0.33"/>
<circle cx="248.571" cy="70.9411" r="4.92983" fill="white" fill-opacity="0.33"/>
<circle cx="265.004" cy="70.9411" r="4.92983" fill="white" fill-opacity="0.33"/>
<circle cx="281.437" cy="70.9411" r="4.92983" fill="white" fill-opacity="0.33"/>
<circle cx="297.87" cy="70.9411" r="4.92983" fill="white" fill-opacity="0.33"/>
<circle cx="314.302" cy="70.9411" r="4.92983" fill="white" fill-opacity="0.33"/>
<circle cx="330.735" cy="70.9411" r="4.92983" fill="white" fill-opacity="0.33"/>
<circle cx="347.168" cy="70.9411" r="4.92983" fill="white" fill-opacity="0.33"/>
<circle cx="2.07997" cy="87.3737" r="4.92983" fill="white" fill-opacity="0.33"/>
<circle cx="18.5126" cy="87.3737" r="4.92983" fill="white" fill-opacity="0.33"/>
<circle cx="34.9455" cy="87.3737" r="4.92983" fill="white" fill-opacity="0.33"/>
<circle cx="51.3781" cy="87.3737" r="4.92983" fill="white" fill-opacity="0.33"/>
<circle cx="67.8107" cy="87.3737" r="4.92983" fill="white" fill-opacity="0.33"/>
<circle cx="84.2438" cy="87.3737" r="4.92983" fill="white" fill-opacity="0.33"/>
<circle cx="100.676" cy="87.3737" r="4.92983" fill="white" fill-opacity="0.33"/>
<circle cx="117.109" cy="87.3737" r="4.92983" fill="white" fill-opacity="0.33"/>
<circle cx="133.542" cy="87.3737" r="4.92983" fill="white" fill-opacity="0.33"/>
<circle cx="149.975" cy="87.3737" r="4.92983" fill="white" fill-opacity="0.33"/>
<circle cx="166.407" cy="87.3737" r="4.92983" fill="white" fill-opacity="0.33"/>
<circle cx="182.84" cy="87.3737" r="4.92983" fill="white" fill-opacity="0.33"/>
<circle cx="199.273" cy="87.3737" r="4.92983" fill="white" fill-opacity="0.33"/>
<circle cx="215.706" cy="87.3737" r="4.92983" fill="white" fill-opacity="0.33"/>
<circle cx="232.138" cy="87.3737" r="4.92983" fill="white" fill-opacity="0.33"/>
<circle cx="265.004" cy="87.3737" r="4.92983" fill="white" fill-opacity="0.33"/>
<circle cx="281.437" cy="87.3737" r="4.92983" fill="white" fill-opacity="0.33"/>
<circle cx="297.87" cy="87.3737" r="4.92983" fill="white" fill-opacity="0.33"/>
<circle cx="314.302" cy="87.3737" r="4.92983" fill="white" fill-opacity="0.33"/>
<circle cx="330.735" cy="87.3737" r="4.92983" fill="white" fill-opacity="0.33"/>
<circle cx="347.168" cy="87.3737" r="4.92983" fill="white" fill-opacity="0.33"/>
<circle cx="2.07997" cy="103.806" r="4.92983" fill="white" fill-opacity="0.33"/>
<circle cx="18.5126" cy="103.806" r="4.92983" fill="white" fill-opacity="0.33"/>
<circle cx="34.9455" cy="103.806" r="4.92983" fill="white" fill-opacity="0.33"/>
<circle cx="51.3781" cy="103.806" r="4.92983" fill="white" fill-opacity="0.33"/>
<circle cx="67.8107" cy="103.806" r="4.92983" fill="white" fill-opacity="0.33"/>
<circle cx="84.2438" cy="103.806" r="4.92983" fill="white" fill-opacity="0.33"/>
<circle cx="100.676" cy="103.806" r="4.92983" fill="white" fill-opacity="0.33"/>
<circle cx="117.109" cy="103.806" r="4.92983" fill="white" fill-opacity="0.33"/>
<circle cx="133.542" cy="103.806" r="4.92983" fill="white" fill-opacity="0.33"/>
<circle cx="149.975" cy="103.806" r="4.92983" fill="white" fill-opacity="0.33"/>
<circle cx="166.407" cy="103.806" r="4.92983" fill="white" fill-opacity="0.33"/>
<circle cx="182.84" cy="103.806" r="4.92983" fill="white" fill-opacity="0.33"/>
<circle cx="199.273" cy="103.806" r="4.92983" fill="white" fill-opacity="0.33"/>
<circle cx="215.706" cy="103.806" r="4.92983" fill="white" fill-opacity="0.33"/>
<circle cx="232.138" cy="103.806" r="4.92983" fill="white" fill-opacity="0.33"/>
<circle cx="248.571" cy="103.806" r="4.92983" fill="white" fill-opacity="0.33"/>
<circle cx="281.437" cy="103.806" r="4.92983" fill="white" fill-opacity="0.33"/>
<circle cx="297.87" cy="103.806" r="4.92983" fill="white" fill-opacity="0.33"/>
<circle cx="314.302" cy="103.806" r="4.92983" fill="white" fill-opacity="0.33"/>
<circle cx="330.735" cy="103.806" r="4.92983" fill="white" fill-opacity="0.33"/>
<circle cx="347.168" cy="103.806" r="4.92983" fill="white" fill-opacity="0.33"/>
<circle cx="2.07997" cy="120.239" r="4.92983" fill="white" fill-opacity="0.33"/>
<circle cx="18.5126" cy="120.239" r="4.92983" fill="white" fill-opacity="0.33"/>
<circle cx="34.9455" cy="120.239" r="4.92983" fill="white" fill-opacity="0.33"/>
<circle cx="51.3781" cy="120.239" r="4.92983" fill="white" fill-opacity="0.33"/>
<circle cx="67.8107" cy="120.239" r="4.92983" fill="white" fill-opacity="0.33"/>
<circle cx="84.2438" cy="120.239" r="4.92983" fill="white" fill-opacity="0.33"/>
<circle cx="100.676" cy="120.239" r="4.92983" fill="white" fill-opacity="0.33"/>
<circle cx="117.109" cy="120.239" r="4.92983" fill="white" fill-opacity="0.33"/>
<circle cx="133.542" cy="120.239" r="4.92983" fill="white" fill-opacity="0.33"/>
<circle cx="149.975" cy="120.239" r="4.92983" fill="white" fill-opacity="0.33"/>
<circle cx="166.407" cy="120.239" r="4.92983" fill="white" fill-opacity="0.33"/>
<circle cx="182.84" cy="120.239" r="4.92983" fill="white" fill-opacity="0.33"/>
<circle cx="199.273" cy="120.239" r="4.92983" fill="white" fill-opacity="0.33"/>
<circle cx="215.706" cy="120.239" r="4.92983" fill="white" fill-opacity="0.33"/>
<circle cx="232.138" cy="120.239" r="4.92983" fill="white" fill-opacity="0.33"/>
<circle cx="248.571" cy="120.239" r="4.92983" fill="white" fill-opacity="0.33"/>
<circle cx="265.004" cy="120.239" r="4.92983" fill="white" fill-opacity="0.33"/>
<circle cx="297.87" cy="120.239" r="4.92983" fill="white" fill-opacity="0.33"/>
<circle cx="314.302" cy="120.239" r="4.92983" fill="white" fill-opacity="0.33"/>
<circle cx="330.735" cy="120.239" r="4.92983" fill="white" fill-opacity="0.33"/>
<circle cx="347.168" cy="120.239" r="4.92983" fill="white" fill-opacity="0.33"/>
<circle cx="2.07997" cy="136.673" r="4.92983" fill="white" fill-opacity="0.33"/>
<circle cx="18.5126" cy="136.673" r="4.92983" fill="white" fill-opacity="0.33"/>
<circle cx="34.9455" cy="136.673" r="4.92983" fill="white" fill-opacity="0.33"/>
<circle cx="51.3781" cy="136.673" r="4.92983" fill="white" fill-opacity="0.33"/>
<circle cx="67.8107" cy="136.673" r="4.92983" fill="white" fill-opacity="0.33"/>
<circle cx="84.2438" cy="136.673" r="4.92983" fill="white" fill-opacity="0.33"/>
<circle cx="100.676" cy="136.673" r="4.92983" fill="white" fill-opacity="0.33"/>
<circle cx="117.109" cy="136.673" r="4.92983" fill="white" fill-opacity="0.33"/>
<circle cx="133.542" cy="136.673" r="4.92983" fill="white" fill-opacity="0.33"/>
<circle cx="149.975" cy="136.673" r="4.92983" fill="white" fill-opacity="0.33"/>
<circle cx="166.407" cy="136.673" r="4.92983" fill="white" fill-opacity="0.33"/>
<circle cx="182.84" cy="136.673" r="4.92983" fill="white" fill-opacity="0.33"/>
<circle cx="199.273" cy="136.673" r="4.92983" fill="white" fill-opacity="0.33"/>
<circle cx="215.706" cy="136.673" r="4.92983" fill="white" fill-opacity="0.33"/>
<circle cx="232.138" cy="136.673" r="4.92983" fill="white" fill-opacity="0.33"/>
<circle cx="248.571" cy="136.673" r="4.92983" fill="white" fill-opacity="0.33"/>
<circle cx="265.004" cy="136.673" r="4.92983" fill="white" fill-opacity="0.33"/>
<circle cx="281.437" cy="136.673" r="4.92983" fill="white" fill-opacity="0.33"/>
<circle cx="297.87" cy="136.673" r="4.92983" fill="white" fill-opacity="0.33"/>
<circle cx="330.735" cy="136.673" r="4.92983" fill="white" fill-opacity="0.33"/>
<circle cx="347.168" cy="136.673" r="4.92983" fill="white" fill-opacity="0.33"/>
<circle cx="2.07997" cy="153.105" r="4.92983" fill="white" fill-opacity="0.33"/>
<circle cx="18.5126" cy="153.105" r="4.92983" fill="white" fill-opacity="0.33"/>
<circle cx="34.9455" cy="153.105" r="4.92983" fill="white" fill-opacity="0.33"/>
<circle cx="51.3781" cy="153.105" r="4.92983" fill="white" fill-opacity="0.33"/>
<circle cx="67.8107" cy="153.105" r="4.92983" fill="white" fill-opacity="0.33"/>
<circle cx="84.2438" cy="153.105" r="4.92983" fill="white" fill-opacity="0.33"/>
<circle cx="100.676" cy="153.105" r="4.92983" fill="white" fill-opacity="0.33"/>
<circle cx="117.109" cy="153.105" r="4.92983" fill="white" fill-opacity="0.33"/>
<circle cx="133.542" cy="153.105" r="4.92983" fill="white" fill-opacity="0.33"/>
<circle cx="149.975" cy="153.105" r="4.92983" fill="white" fill-opacity="0.33"/>
<circle cx="166.407" cy="153.105" r="4.92983" fill="white" fill-opacity="0.33"/>
<circle cx="182.84" cy="153.105" r="4.92983" fill="white" fill-opacity="0.33"/>
<circle cx="199.273" cy="153.105" r="4.92983" fill="white" fill-opacity="0.33"/>
<circle cx="215.706" cy="153.105" r="4.92983" fill="white" fill-opacity="0.33"/>
<circle cx="232.138" cy="153.105" r="4.92983" fill="white" fill-opacity="0.33"/>
<circle cx="248.571" cy="153.105" r="4.92983" fill="white" fill-opacity="0.33"/>
<circle cx="265.004" cy="153.105" r="4.92983" fill="white" fill-opacity="0.33"/>
<circle cx="281.437" cy="153.105" r="4.92983" fill="white" fill-opacity="0.33"/>
<circle cx="297.87" cy="153.105" r="4.92983" fill="white" fill-opacity="0.33"/>
<circle cx="314.302" cy="153.105" r="4.92983" fill="white" fill-opacity="0.33"/>
<circle cx="347.168" cy="153.105" r="4.92983" fill="white" fill-opacity="0.33"/>
<circle cx="2.07997" cy="169.538" r="4.92983" fill="white" fill-opacity="0.33"/>
<circle cx="18.5126" cy="169.538" r="4.92983" fill="white" fill-opacity="0.33"/>
<circle cx="34.9455" cy="169.538" r="4.92983" fill="white" fill-opacity="0.33"/>
<circle cx="51.3781" cy="169.538" r="4.92983" fill="white" fill-opacity="0.33"/>
<circle cx="67.8107" cy="169.538" r="4.92983" fill="white" fill-opacity="0.33"/>
<circle cx="84.2438" cy="169.538" r="4.92983" fill="white" fill-opacity="0.33"/>
<circle cx="100.676" cy="169.538" r="4.92983" fill="white" fill-opacity="0.33"/>
<circle cx="117.109" cy="169.538" r="4.92983" fill="white" fill-opacity="0.33"/>
<circle cx="133.542" cy="169.538" r="4.92983" fill="white" fill-opacity="0.33"/>
<circle cx="149.975" cy="169.538" r="4.92983" fill="white" fill-opacity="0.33"/>
<circle cx="166.407" cy="169.538" r="4.92983" fill="white" fill-opacity="0.33"/>
<circle cx="182.84" cy="169.538" r="4.92983" fill="white" fill-opacity="0.33"/>
<circle cx="199.273" cy="169.538" r="4.92983" fill="white" fill-opacity="0.33"/>
<circle cx="215.706" cy="169.538" r="4.92983" fill="white" fill-opacity="0.33"/>
<circle cx="232.138" cy="169.538" r="4.92983" fill="white" fill-opacity="0.33"/>
<circle cx="248.571" cy="169.538" r="4.92983" fill="white" fill-opacity="0.33"/>
<circle cx="265.004" cy="169.538" r="4.92983" fill="white" fill-opacity="0.33"/>
<circle cx="281.437" cy="169.538" r="4.92983" fill="white" fill-opacity="0.33"/>
<circle cx="297.87" cy="169.538" r="4.92983" fill="white" fill-opacity="0.33"/>
<circle cx="314.302" cy="169.538" r="4.92983" fill="white" fill-opacity="0.33"/>
<circle cx="330.735" cy="169.538" r="4.92983" fill="white" fill-opacity="0.33"/>
<circle cx="347.168" cy="169.538" r="4.92983" fill="white" fill-opacity="0.33"/>
<circle cx="2.07997" cy="185.97" r="4.92983" fill="white" fill-opacity="0.33"/>
<circle cx="18.5126" cy="185.97" r="4.92983" fill="white" fill-opacity="0.33"/>
<circle cx="34.9455" cy="185.97" r="4.92983" fill="white" fill-opacity="0.33"/>
<circle cx="51.3781" cy="185.97" r="4.92983" fill="white" fill-opacity="0.33"/>
<circle cx="67.8107" cy="185.97" r="4.92983" fill="white" fill-opacity="0.33"/>
<circle cx="84.2438" cy="185.97" r="4.92983" fill="white" fill-opacity="0.33"/>
<circle cx="100.676" cy="185.97" r="4.92983" fill="white" fill-opacity="0.33"/>
<circle cx="117.109" cy="185.97" r="4.92983" fill="white" fill-opacity="0.33"/>
<circle cx="133.542" cy="185.97" r="4.92983" fill="white" fill-opacity="0.33"/>
<circle cx="149.975" cy="185.97" r="4.92983" fill="white" fill-opacity="0.33"/>
<circle cx="166.407" cy="185.97" r="4.92983" fill="white" fill-opacity="0.33"/>
<circle cx="182.84" cy="185.97" r="4.92983" fill="white" fill-opacity="0.33"/>
<circle cx="199.273" cy="185.97" r="4.92983" fill="white" fill-opacity="0.33"/>
<circle cx="215.706" cy="185.97" r="4.92983" fill="white" fill-opacity="0.33"/>
<circle cx="232.138" cy="185.97" r="4.92983" fill="white" fill-opacity="0.33"/>
<circle cx="248.571" cy="185.97" r="4.92983" fill="white" fill-opacity="0.33"/>
<circle cx="265.004" cy="185.97" r="4.92983" fill="white" fill-opacity="0.33"/>
<circle cx="281.437" cy="185.97" r="4.92983" fill="white" fill-opacity="0.33"/>
<circle cx="297.87" cy="185.97" r="4.92983" fill="white" fill-opacity="0.33"/>
<circle cx="314.302" cy="185.97" r="4.92983" fill="white" fill-opacity="0.33"/>
<circle cx="330.735" cy="185.97" r="4.92983" fill="white" fill-opacity="0.33"/>
<circle cx="2.07997" cy="202.403" r="4.92983" fill="white" fill-opacity="0.33"/>
<circle cx="18.5126" cy="202.403" r="4.92983" fill="white" fill-opacity="0.33"/>
<circle cx="34.9455" cy="202.403" r="4.92983" fill="white" fill-opacity="0.33"/>
<circle cx="51.3781" cy="202.403" r="4.92983" fill="white" fill-opacity="0.33"/>
<circle cx="67.8107" cy="202.403" r="4.92983" fill="white" fill-opacity="0.33"/>
<circle cx="84.2438" cy="202.403" r="4.92983" fill="white" fill-opacity="0.33"/>
<circle cx="100.676" cy="202.403" r="4.92983" fill="white" fill-opacity="0.33"/>
<circle cx="117.109" cy="202.403" r="4.92983" fill="white" fill-opacity="0.33"/>
<circle cx="133.542" cy="202.403" r="4.92983" fill="white" fill-opacity="0.33"/>
<circle cx="149.975" cy="202.403" r="4.92983" fill="white" fill-opacity="0.33"/>
<circle cx="166.407" cy="202.403" r="4.92983" fill="white" fill-opacity="0.33"/>
<circle cx="182.84" cy="202.403" r="4.92983" fill="white" fill-opacity="0.33"/>
<circle cx="199.273" cy="202.403" r="4.92983" fill="white" fill-opacity="0.33"/>
<circle cx="215.706" cy="202.403" r="4.92983" fill="white" fill-opacity="0.33"/>
<circle cx="232.138" cy="202.403" r="4.92983" fill="white" fill-opacity="0.33"/>
<circle cx="248.571" cy="202.403" r="4.92983" fill="white" fill-opacity="0.33"/>
<circle cx="265.004" cy="202.403" r="4.92983" fill="white" fill-opacity="0.33"/>
<circle cx="281.437" cy="202.403" r="4.92983" fill="white" fill-opacity="0.33"/>
<circle cx="297.87" cy="202.403" r="4.92983" fill="white" fill-opacity="0.33"/>
<circle cx="314.302" cy="202.403" r="4.92983" fill="white" fill-opacity="0.33"/>
<circle cx="330.735" cy="202.403" r="4.92983" fill="white" fill-opacity="0.33"/>
<circle cx="2.07997" cy="218.836" r="4.92983" fill="white" fill-opacity="0.33"/>
<circle cx="18.5126" cy="218.836" r="4.92983" fill="white" fill-opacity="0.33"/>
<circle cx="34.9455" cy="218.836" r="4.92983" fill="white" fill-opacity="0.33"/>
<circle cx="51.3781" cy="218.836" r="4.92983" fill="white" fill-opacity="0.33"/>
<circle cx="67.8107" cy="218.836" r="4.92983" fill="white" fill-opacity="0.33"/>
<circle cx="84.2438" cy="218.836" r="4.92983" fill="white" fill-opacity="0.33"/>
<circle cx="100.676" cy="218.836" r="4.92983" fill="white" fill-opacity="0.33"/>
<circle cx="117.109" cy="218.836" r="4.92983" fill="white" fill-opacity="0.33"/>
<circle cx="133.542" cy="218.836" r="4.92983" fill="white" fill-opacity="0.33"/>
<circle cx="149.975" cy="218.836" r="4.92983" fill="white" fill-opacity="0.33"/>
<circle cx="166.407" cy="218.836" r="4.92983" fill="white" fill-opacity="0.33"/>
<circle cx="182.84" cy="218.836" r="4.92983" fill="white" fill-opacity="0.33"/>
<circle cx="199.273" cy="218.836" r="4.92983" fill="white" fill-opacity="0.33"/>
<circle cx="215.706" cy="218.836" r="4.92983" fill="white" fill-opacity="0.33"/>
<circle cx="232.138" cy="218.836" r="4.92983" fill="white" fill-opacity="0.33"/>
<circle cx="248.571" cy="218.836" r="4.92983" fill="white" fill-opacity="0.33"/>
<circle cx="265.004" cy="218.836" r="4.92983" fill="white" fill-opacity="0.33"/>
<circle cx="281.437" cy="218.836" r="4.92983" fill="white" fill-opacity="0.33"/>
<circle cx="297.87" cy="218.836" r="4.92983" fill="white" fill-opacity="0.33"/>
<circle cx="314.302" cy="218.836" r="4.92983" fill="white" fill-opacity="0.33"/>
<circle cx="330.735" cy="218.836" r="4.92983" fill="white" fill-opacity="0.33"/>
<circle cx="347.168" cy="218.836" r="4.92983" fill="white" fill-opacity="0.33"/>
<circle cx="2.07997" cy="235.269" r="4.92983" fill="white" fill-opacity="0.33"/>
<circle cx="18.5126" cy="235.269" r="4.92983" fill="white" fill-opacity="0.33"/>
<circle cx="34.9455" cy="235.269" r="4.92983" fill="white" fill-opacity="0.33"/>
<circle cx="51.3781" cy="235.269" r="4.92983" fill="white" fill-opacity="0.33"/>
<circle cx="67.8107" cy="235.269" r="4.92983" fill="white" fill-opacity="0.33"/>
<circle cx="84.2438" cy="235.269" r="4.92983" fill="white" fill-opacity="0.33"/>
<circle cx="100.676" cy="235.269" r="4.92983" fill="white" fill-opacity="0.33"/>
<circle cx="117.109" cy="235.269" r="4.92983" fill="white" fill-opacity="0.33"/>
<circle cx="133.542" cy="235.269" r="4.92983" fill="white" fill-opacity="0.33"/>
<circle cx="149.975" cy="235.269" r="4.92983" fill="white" fill-opacity="0.33"/>
<circle cx="166.407" cy="235.269" r="4.92983" fill="white" fill-opacity="0.33"/>
<circle cx="182.84" cy="235.269" r="4.92983" fill="white" fill-opacity="0.33"/>
<circle cx="199.273" cy="235.269" r="4.92983" fill="white" fill-opacity="0.33"/>
<circle cx="215.706" cy="235.269" r="4.92983" fill="white" fill-opacity="0.33"/>
<circle cx="232.138" cy="235.269" r="4.92983" fill="white" fill-opacity="0.33"/>
<circle cx="248.571" cy="235.269" r="4.92983" fill="white" fill-opacity="0.33"/>
<circle cx="265.004" cy="235.269" r="4.92983" fill="white" fill-opacity="0.33"/>
<circle cx="281.437" cy="235.269" r="4.92983" fill="white" fill-opacity="0.33"/>
<circle cx="297.87" cy="235.269" r="4.92983" fill="white" fill-opacity="0.33"/>
<circle cx="314.302" cy="235.269" r="4.92983" fill="white" fill-opacity="0.33"/>
<circle cx="330.735" cy="235.269" r="4.92983" fill="white" fill-opacity="0.33"/>
<circle cx="2.07997" cy="251.701" r="4.92983" fill="white" fill-opacity="0.33"/>
<circle cx="18.5126" cy="251.701" r="4.92983" fill="white" fill-opacity="0.33"/>
<circle cx="34.9455" cy="251.701" r="4.92983" fill="white" fill-opacity="0.33"/>
<circle cx="51.3781" cy="251.701" r="4.92983" fill="white" fill-opacity="0.33"/>
<circle cx="67.8107" cy="251.701" r="4.92983" fill="white" fill-opacity="0.33"/>
<circle cx="84.2438" cy="251.701" r="4.92983" fill="white" fill-opacity="0.33"/>
<circle cx="100.676" cy="251.701" r="4.92983" fill="white" fill-opacity="0.33"/>
<circle cx="117.109" cy="251.701" r="4.92983" fill="white" fill-opacity="0.33"/>
<circle cx="133.542" cy="251.701" r="4.92983" fill="white" fill-opacity="0.33"/>
<circle cx="149.975" cy="251.701" r="4.92983" fill="white" fill-opacity="0.33"/>
<circle cx="166.407" cy="251.701" r="4.92983" fill="white" fill-opacity="0.33"/>
<circle cx="182.84" cy="251.701" r="4.92983" fill="white" fill-opacity="0.33"/>
<circle cx="199.273" cy="251.701" r="4.92983" fill="white" fill-opacity="0.33"/>
<circle cx="215.706" cy="251.701" r="4.92983" fill="white" fill-opacity="0.33"/>
<circle cx="232.138" cy="251.701" r="4.92983" fill="white" fill-opacity="0.33"/>
<circle cx="248.571" cy="251.701" r="4.92983" fill="white" fill-opacity="0.33"/>
<circle cx="265.004" cy="251.701" r="4.92983" fill="white" fill-opacity="0.33"/>
<circle cx="281.437" cy="251.701" r="4.92983" fill="white" fill-opacity="0.33"/>
<circle cx="297.87" cy="251.701" r="4.92983" fill="white" fill-opacity="0.33"/>
<circle cx="314.302" cy="251.701" r="4.92983" fill="white" fill-opacity="0.33"/>
<circle cx="330.735" cy="251.701" r="4.92983" fill="white" fill-opacity="0.33"/>
<circle cx="2.07997" cy="268.134" r="4.92983" fill="white" fill-opacity="0.33"/>
<circle cx="18.5126" cy="268.134" r="4.92983" fill="white" fill-opacity="0.33"/>
<circle cx="34.9455" cy="268.134" r="4.92983" fill="white" fill-opacity="0.33"/>
<circle cx="51.3781" cy="268.134" r="4.92983" fill="white" fill-opacity="0.33"/>
<circle cx="67.8107" cy="268.134" r="4.92983" fill="white" fill-opacity="0.33"/>
<circle cx="84.2438" cy="268.134" r="4.92983" fill="white" fill-opacity="0.33"/>
<circle cx="100.676" cy="268.134" r="4.92983" fill="white" fill-opacity="0.33"/>
<circle cx="117.109" cy="268.134" r="4.92983" fill="white" fill-opacity="0.33"/>
<circle cx="133.542" cy="268.134" r="4.92983" fill="white" fill-opacity="0.33"/>
<circle cx="149.975" cy="268.134" r="4.92983" fill="white" fill-opacity="0.33"/>
<circle cx="166.407" cy="268.134" r="4.92983" fill="white" fill-opacity="0.33"/>
<circle cx="182.84" cy="268.134" r="4.92983" fill="white" fill-opacity="0.33"/>
<circle cx="199.273" cy="268.134" r="4.92983" fill="white" fill-opacity="0.33"/>
<circle cx="215.706" cy="268.134" r="4.92983" fill="white" fill-opacity="0.33"/>
<circle cx="232.138" cy="268.134" r="4.92983" fill="white" fill-opacity="0.33"/>
<circle cx="248.571" cy="268.134" r="4.92983" fill="white" fill-opacity="0.33"/>
<circle cx="265.004" cy="268.134" r="4.92983" fill="white" fill-opacity="0.33"/>
<circle cx="281.437" cy="268.134" r="4.92983" fill="white" fill-opacity="0.33"/>
<circle cx="297.87" cy="268.134" r="4.92983" fill="white" fill-opacity="0.33"/>
<circle cx="314.302" cy="268.134" r="4.92983" fill="white" fill-opacity="0.33"/>
<circle cx="330.735" cy="268.134" r="4.92983" fill="white" fill-opacity="0.33"/>
<circle cx="347.168" cy="268.134" r="4.92983" fill="white" fill-opacity="0.33"/>
<circle cx="2.07997" cy="284.567" r="4.92983" fill="white" fill-opacity="0.33"/>
<circle cx="18.5126" cy="284.567" r="4.92983" fill="white" fill-opacity="0.33"/>
<circle cx="34.9455" cy="284.567" r="4.92983" fill="white" fill-opacity="0.33"/>
<circle cx="51.3781" cy="284.567" r="4.92983" fill="white" fill-opacity="0.33"/>
<circle cx="67.8107" cy="284.567" r="4.92983" fill="white" fill-opacity="0.33"/>
<circle cx="84.2438" cy="284.567" r="4.92983" fill="white" fill-opacity="0.33"/>
<circle cx="100.676" cy="284.567" r="4.92983" fill="white" fill-opacity="0.33"/>
<circle cx="117.109" cy="284.567" r="4.92983" fill="white" fill-opacity="0.33"/>
<circle cx="133.542" cy="284.567" r="4.92983" fill="white" fill-opacity="0.33"/>
<circle cx="149.975" cy="284.567" r="4.92983" fill="white" fill-opacity="0.33"/>
<circle cx="166.407" cy="284.567" r="4.92983" fill="white" fill-opacity="0.33"/>
<circle cx="182.84" cy="284.567" r="4.92983" fill="white" fill-opacity="0.33"/>
<circle cx="199.273" cy="284.567" r="4.92983" fill="white" fill-opacity="0.33"/>
<circle cx="215.706" cy="284.567" r="4.92983" fill="white" fill-opacity="0.33"/>
<circle cx="232.138" cy="284.567" r="4.92983" fill="white" fill-opacity="0.33"/>
<circle cx="248.571" cy="284.567" r="4.92983" fill="white" fill-opacity="0.33"/>
<circle cx="265.004" cy="284.567" r="4.92983" fill="white" fill-opacity="0.33"/>
<circle cx="281.437" cy="284.567" r="4.92983" fill="white" fill-opacity="0.33"/>
<circle cx="297.87" cy="284.567" r="4.92983" fill="white" fill-opacity="0.33"/>
<circle cx="314.302" cy="284.567" r="4.92983" fill="white" fill-opacity="0.33"/>
<circle cx="330.735" cy="284.567" r="4.92983" fill="white" fill-opacity="0.33"/>
<circle cx="347.168" cy="284.567" r="4.92983" fill="white" fill-opacity="0.33"/>
<circle cx="2.07997" cy="301" r="4.92983" fill="white" fill-opacity="0.33"/>
<circle cx="18.5126" cy="301" r="4.92983" fill="white" fill-opacity="0.33"/>
<circle cx="34.9455" cy="301" r="4.92983" fill="white" fill-opacity="0.33"/>
<circle cx="51.3781" cy="301" r="4.92983" fill="white" fill-opacity="0.33"/>
<circle cx="67.8107" cy="301" r="4.92983" fill="white" fill-opacity="0.33"/>
<circle cx="84.2438" cy="301" r="4.92983" fill="white" fill-opacity="0.33"/>
<circle cx="100.676" cy="301" r="4.92983" fill="white" fill-opacity="0.33"/>
<circle cx="117.109" cy="301" r="4.92983" fill="white" fill-opacity="0.33"/>
<circle cx="133.542" cy="301" r="4.92983" fill="white" fill-opacity="0.33"/>
<circle cx="149.975" cy="301" r="4.92983" fill="white" fill-opacity="0.33"/>
<circle cx="166.407" cy="301" r="4.92983" fill="white" fill-opacity="0.33"/>
<circle cx="182.84" cy="301" r="4.92983" fill="white" fill-opacity="0.33"/>
<circle cx="199.273" cy="301" r="4.92983" fill="white" fill-opacity="0.33"/>
<circle cx="215.706" cy="301" r="4.92983" fill="white" fill-opacity="0.33"/>
<circle cx="232.138" cy="301" r="4.92983" fill="white" fill-opacity="0.33"/>
<circle cx="248.571" cy="301" r="4.92983" fill="white" fill-opacity="0.33"/>
<circle cx="265.004" cy="301" r="4.92983" fill="white" fill-opacity="0.33"/>
<circle cx="281.437" cy="301" r="4.92983" fill="white" fill-opacity="0.33"/>
<circle cx="297.87" cy="301" r="4.92983" fill="white" fill-opacity="0.33"/>
<circle cx="314.302" cy="301" r="4.92983" fill="white" fill-opacity="0.33"/>
<circle cx="330.735" cy="301" r="4.92983" fill="white" fill-opacity="0.33"/>
<circle cx="347.168" cy="301" r="4.92983" fill="white" fill-opacity="0.33"/>
<circle cx="2.07997" cy="317.433" r="4.92983" fill="white" fill-opacity="0.33"/>
<circle cx="18.5126" cy="317.433" r="4.92983" fill="white" fill-opacity="0.33"/>
<circle cx="34.9455" cy="317.433" r="4.92983" fill="white" fill-opacity="0.33"/>
<circle cx="51.3781" cy="317.433" r="4.92983" fill="white" fill-opacity="0.33"/>
<circle cx="67.8107" cy="317.433" r="4.92983" fill="white" fill-opacity="0.33"/>
<circle cx="84.2438" cy="317.433" r="4.92983" fill="white" fill-opacity="0.33"/>
<circle cx="100.676" cy="317.433" r="4.92983" fill="white" fill-opacity="0.33"/>
<circle cx="117.109" cy="317.433" r="4.92983" fill="white" fill-opacity="0.33"/>
<circle cx="133.542" cy="317.433" r="4.92983" fill="white" fill-opacity="0.33"/>
<circle cx="149.975" cy="317.433" r="4.92983" fill="white" fill-opacity="0.33"/>
<circle cx="166.407" cy="317.433" r="4.92983" fill="white" fill-opacity="0.33"/>
<circle cx="182.84" cy="317.433" r="4.92983" fill="white" fill-opacity="0.33"/>
<circle cx="199.273" cy="317.433" r="4.92983" fill="white" fill-opacity="0.33"/>
<circle cx="215.706" cy="317.433" r="4.92983" fill="white" fill-opacity="0.33"/>
<circle cx="232.138" cy="317.433" r="4.92983" fill="white" fill-opacity="0.33"/>
<circle cx="248.571" cy="317.433" r="4.92983" fill="white" fill-opacity="0.33"/>
<circle cx="265.004" cy="317.433" r="4.92983" fill="white" fill-opacity="0.33"/>
<circle cx="281.437" cy="317.433" r="4.92983" fill="white" fill-opacity="0.33"/>
<circle cx="297.87" cy="317.433" r="4.92983" fill="white" fill-opacity="0.33"/>
<circle cx="314.302" cy="317.433" r="4.92983" fill="white" fill-opacity="0.33"/>
<circle cx="330.735" cy="317.433" r="4.92983" fill="white" fill-opacity="0.33"/>
<circle cx="347.168" cy="317.433" r="4.92983" fill="white" fill-opacity="0.33"/>
<circle cx="2.07997" cy="333.865" r="4.92983" fill="white" fill-opacity="0.33"/>
<circle cx="18.5126" cy="333.865" r="4.92983" fill="white" fill-opacity="0.33"/>
<circle cx="34.9455" cy="333.865" r="4.92983" fill="white" fill-opacity="0.33"/>
<circle cx="51.3781" cy="333.865" r="4.92983" fill="white" fill-opacity="0.33"/>
<circle cx="67.8107" cy="333.865" r="4.92983" fill="white" fill-opacity="0.33"/>
<circle cx="84.2438" cy="333.865" r="4.92983" fill="white" fill-opacity="0.33"/>
<circle cx="100.676" cy="333.865" r="4.92983" fill="white" fill-opacity="0.33"/>
<circle cx="117.109" cy="333.865" r="4.92983" fill="white" fill-opacity="0.33"/>
<circle cx="133.542" cy="333.865" r="4.92983" fill="white" fill-opacity="0.33"/>
<circle cx="149.975" cy="333.865" r="4.92983" fill="white" fill-opacity="0.33"/>
<circle cx="166.407" cy="333.865" r="4.92983" fill="white" fill-opacity="0.33"/>
<circle cx="182.84" cy="333.865" r="4.92983" fill="white" fill-opacity="0.33"/>
<circle cx="199.273" cy="333.865" r="4.92983" fill="white" fill-opacity="0.33"/>
<circle cx="215.706" cy="333.865" r="4.92983" fill="white" fill-opacity="0.33"/>
<circle cx="232.138" cy="333.865" r="4.92983" fill="white" fill-opacity="0.33"/>
<circle cx="248.571" cy="333.865" r="4.92983" fill="white" fill-opacity="0.33"/>
<circle cx="265.004" cy="333.865" r="4.92983" fill="white" fill-opacity="0.33"/>
<circle cx="281.437" cy="333.865" r="4.92983" fill="white" fill-opacity="0.33"/>
<circle cx="297.87" cy="333.865" r="4.92983" fill="white" fill-opacity="0.33"/>
<circle cx="314.302" cy="333.865" r="4.92983" fill="white" fill-opacity="0.33"/>
<circle cx="330.735" cy="333.865" r="4.92983" fill="white" fill-opacity="0.33"/>
<circle cx="347.168" cy="333.865" r="4.92983" fill="white" fill-opacity="0.33"/>
<circle cx="2.07997" cy="350.298" r="4.92983" fill="white" fill-opacity="0.33"/>
<circle cx="18.5126" cy="350.298" r="4.92983" fill="white" fill-opacity="0.33"/>
<circle cx="34.9455" cy="350.298" r="4.92983" fill="white" fill-opacity="0.33"/>
<circle cx="51.3781" cy="350.298" r="4.92983" fill="white" fill-opacity="0.33"/>
<circle cx="67.8107" cy="350.298" r="4.92983" fill="white" fill-opacity="0.33"/>
<circle cx="84.2438" cy="350.298" r="4.92983" fill="white" fill-opacity="0.33"/>
<circle cx="100.676" cy="350.298" r="4.92983" fill="white" fill-opacity="0.33"/>
<circle cx="117.109" cy="350.298" r="4.92983" fill="white" fill-opacity="0.33"/>
<circle cx="133.542" cy="350.298" r="4.92983" fill="white" fill-opacity="0.33"/>
<circle cx="149.975" cy="350.298" r="4.92983" fill="white" fill-opacity="0.33"/>
<circle cx="166.407" cy="350.298" r="4.92983" fill="white" fill-opacity="0.33"/>
<circle cx="182.84" cy="350.298" r="4.92983" fill="white" fill-opacity="0.33"/>
<circle cx="199.273" cy="350.298" r="4.92983" fill="white" fill-opacity="0.33"/>
<circle cx="215.706" cy="350.298" r="4.92983" fill="white" fill-opacity="0.33"/>
<circle cx="232.138" cy="350.298" r="4.92983" fill="white" fill-opacity="0.33"/>
<circle cx="248.571" cy="350.298" r="4.92983" fill="white" fill-opacity="0.33"/>
<circle cx="265.004" cy="350.298" r="4.92983" fill="white" fill-opacity="0.33"/>
<circle cx="281.437" cy="350.298" r="4.92983" fill="white" fill-opacity="0.33"/>
<circle cx="297.87" cy="350.298" r="4.92983" fill="white" fill-opacity="0.33"/>
<circle cx="314.302" cy="350.298" r="4.92983" fill="white" fill-opacity="0.33"/>
<circle cx="330.735" cy="350.298" r="4.92983" fill="white" fill-opacity="0.33"/>
<circle cx="347.168" cy="350.298" r="4.92983" fill="white" fill-opacity="0.33"/>
<circle cx="2.07997" cy="366.731" r="4.92983" fill="white" fill-opacity="0.33"/>
<circle cx="18.5126" cy="366.731" r="4.92983" fill="white" fill-opacity="0.33"/>
<circle cx="34.9455" cy="366.731" r="4.92983" fill="white" fill-opacity="0.33"/>
<circle cx="51.3781" cy="366.731" r="4.92983" fill="white" fill-opacity="0.33"/>
<circle cx="67.8107" cy="366.731" r="4.92983" fill="white" fill-opacity="0.33"/>
<circle cx="84.2438" cy="366.731" r="4.92983" fill="white" fill-opacity="0.33"/>
<circle cx="100.676" cy="366.731" r="4.92983" fill="white" fill-opacity="0.33"/>
<circle cx="117.109" cy="366.731" r="4.92983" fill="white" fill-opacity="0.33"/>
<circle cx="133.542" cy="366.731" r="4.92983" fill="white" fill-opacity="0.33"/>
<circle cx="149.975" cy="366.731" r="4.92983" fill="white" fill-opacity="0.33"/>
<circle cx="166.407" cy="366.731" r="4.92983" fill="white" fill-opacity="0.33"/>
<circle cx="182.84" cy="366.731" r="4.92983" fill="white" fill-opacity="0.33"/>
<circle cx="199.273" cy="366.731" r="4.92983" fill="white" fill-opacity="0.33"/>
<circle cx="215.706" cy="366.731" r="4.92983" fill="white" fill-opacity="0.33"/>
<circle cx="232.138" cy="366.731" r="4.92983" fill="white" fill-opacity="0.33"/>
<circle cx="248.571" cy="366.731" r="4.92983" fill="white" fill-opacity="0.33"/>
<circle cx="265.004" cy="366.731" r="4.92983" fill="white" fill-opacity="0.33"/>
<circle cx="281.437" cy="366.731" r="4.92983" fill="white" fill-opacity="0.33"/>
<circle cx="297.87" cy="366.731" r="4.92983" fill="white" fill-opacity="0.33"/>
<circle cx="314.302" cy="366.731" r="4.92983" fill="white" fill-opacity="0.33"/>
<circle cx="330.735" cy="366.731" r="4.92983" fill="white" fill-opacity="0.33"/>
<circle cx="347.168" cy="366.731" r="4.92983" fill="white" fill-opacity="0.33"/>
<circle cx="2.07997" cy="383.164" r="4.92983" fill="white" fill-opacity="0.33"/>
<circle cx="18.5126" cy="383.164" r="4.92983" fill="white" fill-opacity="0.33"/>
<circle cx="34.9455" cy="383.164" r="4.92983" fill="white" fill-opacity="0.33"/>
<circle cx="51.3781" cy="383.164" r="4.92983" fill="white" fill-opacity="0.33"/>
<circle cx="67.8107" cy="383.164" r="4.92983" fill="white" fill-opacity="0.33"/>
<circle cx="84.2438" cy="383.164" r="4.92983" fill="white" fill-opacity="0.33"/>
<circle cx="100.676" cy="383.164" r="4.92983" fill="white" fill-opacity="0.33"/>
<circle cx="117.109" cy="383.164" r="4.92983" fill="white" fill-opacity="0.33"/>
<circle cx="133.542" cy="383.164" r="4.92983" fill="white" fill-opacity="0.33"/>
<circle cx="149.975" cy="383.164" r="4.92983" fill="white" fill-opacity="0.33"/>
<circle cx="166.407" cy="383.164" r="4.92983" fill="white" fill-opacity="0.33"/>
<circle cx="182.84" cy="383.164" r="4.92983" fill="white" fill-opacity="0.33"/>
<circle cx="199.273" cy="383.164" r="4.92983" fill="white" fill-opacity="0.33"/>
<circle cx="215.706" cy="383.164" r="4.92983" fill="white" fill-opacity="0.33"/>
<circle cx="232.138" cy="383.164" r="4.92983" fill="white" fill-opacity="0.33"/>
<circle cx="248.571" cy="383.164" r="4.92983" fill="white" fill-opacity="0.33"/>
<circle cx="265.004" cy="383.164" r="4.92983" fill="white" fill-opacity="0.33"/>
<circle cx="281.437" cy="383.164" r="4.92983" fill="white" fill-opacity="0.33"/>
<circle cx="297.87" cy="383.164" r="4.92983" fill="white" fill-opacity="0.33"/>
<circle cx="314.302" cy="383.164" r="4.92983" fill="white" fill-opacity="0.33"/>
<circle cx="330.735" cy="383.164" r="4.92983" fill="white" fill-opacity="0.33"/>
<circle cx="347.168" cy="383.164" r="4.92983" fill="white" fill-opacity="0.33"/>
</g>
</svg>
