<svg width="40" height="42" viewBox="0 0 40 42" fill="none" xmlns="http://www.w3.org/2000/svg">
<path d="M21.7341 9.3516L19.1222 8.9718L17.9549 6.6052C17.2411 5.16178 15.1845 5.16686 14.4751 6.6052L13.307 8.9718L10.6959 9.3516C9.10594 9.58178 8.46954 11.5381 9.62052 12.6607L11.5105 14.5023L11.0643 17.1036C10.8545 18.3275 11.8144 19.3734 12.9748 19.3734C13.5899 19.3734 13.7111 19.2372 16.215 17.9206L18.5504 19.1486C19.9733 19.8963 21.6369 18.688 21.3657 17.1036L20.9195 14.5023L22.8095 12.6607C23.9601 11.5386 23.3239 9.58203 21.7341 9.3516ZM19.0057 12.9314C18.5488 13.3777 18.3396 14.0192 18.4479 14.6484L18.7621 16.4793L17.1182 15.6147C16.5638 15.3239 15.8873 15.3128 15.3118 15.6147L13.6679 16.4793L13.9821 14.6484C14.0904 14.0192 13.8812 13.3777 13.4243 12.9314L12.0938 11.6345L13.9321 11.3679C14.5645 11.2761 15.11 10.879 15.393 10.3064L16.215 8.64039L17.037 10.3064C17.3191 10.879 17.8655 11.2761 18.4979 11.3679L20.3363 11.6345L19.0057 12.9314Z" fill="#52607E"/>
<path d="M34.43 32.1095C34.43 30.882 34.2848 28.3554 35.9255 25.6241C38.1511 21.9146 36.0248 17.0811 31.7706 16.2397V2.05078C31.7706 0.91957 30.8502 0 29.7198 0H2.71021C1.57899 0 0.659424 0.91957 0.659424 2.05078V39.9492C0.659424 41.0804 1.57899 42 2.71021 42H37.5054C38.5177 42 39.3404 41.1772 39.3404 40.165V37.2045C39.3404 34.4556 37.1543 32.2087 34.43 32.1095ZM33.2061 19.667C34.5174 20.9478 34.6896 22.9007 33.8156 24.3567C32.6073 26.3689 31.9691 28.7118 31.9691 31.1333V32.1054C31.3802 32.1054 29.7023 32.1054 29.1111 32.1054C29.1111 30.716 29.2528 27.6559 27.2679 24.3625C26.9258 23.7948 26.738 23.1418 26.724 22.4757C26.6571 19.0906 30.7578 17.2719 33.2061 19.667ZM21.7398 37.2045V39.5391H3.12036V2.46094H29.3097V16.2422C25.0767 17.0857 22.9182 21.9096 25.1597 25.6323C26.7634 28.2921 26.6502 30.7599 26.6502 32.1095C23.9251 32.2087 21.7398 34.4556 21.7398 37.2045ZM36.8795 39.5391C36.3311 39.5391 24.7662 39.5391 24.2008 39.5391V37.2045C24.2008 35.8132 25.2827 34.6705 26.6502 34.5729C26.8071 34.5626 34.2748 34.5626 34.43 34.5729C35.7967 34.6705 36.8795 35.8132 36.8795 37.2045V39.5391Z" fill="#52607E"/>
<path d="M20.3735 23.7891H12.0562C11.3766 23.7891 10.8257 24.34 10.8257 25.0195C10.8257 25.6991 11.3766 26.25 12.0562 26.25H20.3735C21.053 26.25 21.604 25.6991 21.604 25.0195C21.604 24.34 21.053 23.7891 20.3735 23.7891Z" fill="#52607E"/>
<path d="M20.3735 30.3926H12.0562C11.3766 30.3926 10.8257 30.9435 10.8257 31.623C10.8257 32.3026 11.3766 32.8535 12.0562 32.8535H20.3735C21.053 32.8535 21.604 32.3026 21.604 31.623C21.604 30.9435 21.053 30.3926 20.3735 30.3926Z" fill="#52607E"/>
</svg>
