<svg width="42" height="41" viewBox="0 0 42 41" fill="none" xmlns="http://www.w3.org/2000/svg">
<path d="M41.125 41H0.875C0.392 41 0 40.608 0 40.125C0 39.642 0.392 39.25 0.875 39.25H41.125C41.608 39.25 42 39.642 42 40.125C42 40.608 41.608 41 41.125 41Z" fill="#52607E"/>
<path d="M11.3751 41.0001H2.62508C2.14208 41.0001 1.75008 40.6081 1.75008 40.1251V30.5001C1.75008 29.5358 2.53583 28.7501 3.50008 28.7501H10.5001C11.4643 28.7501 12.2501 29.5358 12.2501 30.5001V40.1251C12.2501 40.6081 11.8581 41.0001 11.3751 41.0001ZM3.50008 39.2501H10.5001V30.5001H3.50008V39.2501Z" fill="#52607E"/>
<path d="M25.375 41.0001H16.625C16.142 41.0001 15.75 40.6081 15.75 40.1251V20.0001C15.75 19.0358 16.5358 18.2501 17.5 18.2501H24.5C25.4643 18.2501 26.25 19.0358 26.25 20.0001V40.1251C26.25 40.6081 25.858 41.0001 25.375 41.0001ZM17.5 39.2501H24.5V20.0001H17.5V39.2501Z" fill="#52607E"/>
<path d="M39.3749 41.0001H30.6249C30.1419 41.0001 29.7499 40.6081 29.7499 40.1251V9.50008C29.7499 8.53583 30.5357 7.75008 31.4999 7.75008H38.4999C39.4642 7.75008 40.2499 8.53583 40.2499 9.50008V40.1251C40.2499 40.6081 39.8579 41.0001 39.3749 41.0001ZM31.4999 39.2501H38.4999V9.50008H31.4999V39.2501Z" fill="#52607E"/>
<path d="M4.37496 18.25C4.15096 18.25 3.92696 18.1643 3.75546 17.9945C3.41421 17.6533 3.41421 17.0985 3.75546 16.7573L19.5055 1.00726C19.8467 0.666007 20.4015 0.666007 20.7427 1.00726C21.084 1.34851 21.084 1.90326 20.7427 2.24451L4.99271 17.9945C4.82296 18.1643 4.59896 18.25 4.37496 18.25Z" fill="#52607E"/>
<path d="M20.1251 9.5C19.6421 9.5 19.2501 9.108 19.2501 8.625V2.5H13.1251C12.6421 2.5 12.2501 2.108 12.2501 1.625C12.2501 1.142 12.6421 0.75 13.1251 0.75H20.1251C20.6081 0.75 21.0001 1.142 21.0001 1.625V8.625C21.0001 9.108 20.6081 9.5 20.1251 9.5Z" fill="#52607E"/>
</svg>
