<svg width="42" height="42" viewBox="0 0 42 42" fill="none" xmlns="http://www.w3.org/2000/svg">
<path d="M40.0906 21.1761V15.2731C40.0906 13.2715 38.538 11.6436 36.5763 11.4858L31.0944 1.91063C30.5863 1.02507 29.766 0.392127 28.7844 0.129303C27.8075 -0.131731 26.7859 0.0053634 25.9115 0.514277L7.11895 11.455H3.81839C1.71267 11.455 0.000244141 13.1673 0.000244141 15.2731V38.1818C0.000244141 40.2876 1.71258 42 3.81839 42H36.2724C38.3782 42 40.0906 40.2877 40.0906 38.1818V32.2788C41.1992 31.8835 41.9996 30.8339 41.9996 29.5911V23.8639C41.9996 22.6211 41.1992 21.5715 40.0906 21.1761ZM34.358 11.455H26.0383L32.2782 7.82216L34.358 11.455ZM31.3297 6.16548L22.2442 11.455H18.4756L30.3874 4.51972L31.3297 6.16548ZM26.8725 2.16415C27.3041 1.91153 27.8084 1.84441 28.2904 1.9731C28.7779 2.10357 29.1843 2.41865 29.437 2.85956L29.4389 2.86305L14.6816 11.455H10.9132L26.8725 2.16415ZM38.1815 38.1818C38.1815 39.2342 37.3248 40.0909 36.2724 40.0909H3.81839C2.76602 40.0909 1.90936 39.2342 1.90936 38.1818V15.2731C1.90936 14.2208 2.76602 13.3641 3.81839 13.3641H36.2724C37.3248 13.3641 38.1815 14.2208 38.1815 15.2731V21.0003H32.4543C29.2961 21.0003 26.7271 23.5693 26.7271 26.7275C26.7271 29.8857 29.2961 32.4547 32.4543 32.4547H38.1815V38.1818ZM40.0906 29.5911C40.0906 30.1177 39.6628 30.5456 39.136 30.5456H32.4543C30.3486 30.5456 28.6361 28.8333 28.6361 26.7275C28.6361 24.6218 30.3485 22.9093 32.4543 22.9093H39.136C39.6627 22.9093 40.0906 23.3372 40.0906 23.8639V29.5911Z" fill="#52607E"/>
<path d="M32.4543 24.8185C31.4019 24.8185 30.5453 25.6751 30.5453 26.7275C30.5453 27.7799 31.4019 28.6365 32.4543 28.6365C33.5067 28.6365 34.3633 27.7799 34.3633 26.7275C34.3634 25.6751 33.5068 24.8185 32.4543 24.8185Z" fill="#52607E"/>
</svg>
