<svg width="42" height="42" viewBox="0 0 42 42" fill="none" xmlns="http://www.w3.org/2000/svg">
<path d="M37.4883 27.2116C35.4271 27.2116 33.6856 28.6015 33.1485 30.4929H28.793V25.6895H33.2401C38.0704 25.6895 42 21.7599 42 16.9297C42 13.0569 39.4314 9.65473 35.785 8.54666C34.6827 4.13305 30.6986 0.967541 26.0845 0.967541C24.2958 0.967541 22.5823 1.4288 21.0701 2.31006C19.4686 0.845478 17.3687 0.0227051 15.1623 0.0227051C10.4297 0.0227051 6.5616 3.7954 6.40722 8.49104C2.66159 9.538 0 12.9675 0 16.9297C0 21.7599 3.92963 25.6895 8.75987 25.6895H13.207V30.4929H8.8515C8.31444 28.6015 6.57292 27.2116 4.51172 27.2116C2.02396 27.2116 0 29.2356 0 31.7234C0 34.2111 2.02396 36.2351 4.51172 36.2351C6.57292 36.2351 8.31436 34.8452 8.8515 32.9538H14.4375C15.117 32.9538 15.668 32.4029 15.668 31.7234V25.6895H19.7695V33.1258C17.8781 33.6628 16.4883 35.4043 16.4883 37.4655C16.4883 39.9533 18.5122 41.9773 21 41.9773C23.4878 41.9773 25.5117 39.9533 25.5117 37.4655C25.5117 35.4043 24.1219 33.6629 22.2305 33.1258V25.6895H26.332V31.7234C26.332 32.4029 26.883 32.9538 27.5625 32.9538H33.1485C33.6856 34.8452 35.4271 36.2351 37.4883 36.2351C39.976 36.2351 42 34.2111 42 31.7234C42 29.2356 39.976 27.2116 37.4883 27.2116ZM4.51172 33.7741C3.38092 33.7741 2.46094 32.8542 2.46094 31.7234C2.46094 30.5926 3.38092 29.6726 4.51172 29.6726C5.64252 29.6726 6.5625 30.5926 6.5625 31.7234C6.5625 32.8542 5.64252 33.7741 4.51172 33.7741ZM23.0508 37.4655C23.0508 38.5963 22.1308 39.5163 21 39.5163C19.8692 39.5163 18.9492 38.5963 18.9492 37.4655C18.9492 36.3347 19.8692 35.4148 21 35.4148C22.1308 35.4148 23.0508 36.3347 23.0508 37.4655ZM8.75987 23.2286C5.28667 23.2286 2.46094 20.403 2.46094 16.9297C2.46094 13.8254 4.77479 11.146 7.84301 10.6973C8.49048 10.6026 8.95051 10.0177 8.89014 9.36623C8.87234 9.17403 8.86331 8.97765 8.86331 8.7825C8.86331 5.30937 11.689 2.48372 15.1622 2.48372C17.0153 2.48372 18.7628 3.28927 19.9566 4.69381C20.3757 5.1869 21.105 5.27106 21.6255 4.8865C22.916 3.93264 24.4579 3.42848 26.0844 3.42848C29.8273 3.42848 32.94 6.1748 33.5218 9.74735C33.6041 10.2525 33.9906 10.654 34.4922 10.7555C37.4165 11.3475 39.539 13.9441 39.539 16.9297C39.539 20.403 36.7132 23.2286 33.24 23.2286H8.75987ZM37.4883 33.7741C36.3575 33.7741 35.4375 32.8542 35.4375 31.7234C35.4375 30.5926 36.3575 29.6726 37.4883 29.6726C38.6191 29.6726 39.5391 30.5926 39.5391 31.7234C39.5391 32.8542 38.6191 33.7741 37.4883 33.7741Z" fill="#52607E"/>
</svg>
