<svg width="42" height="38" viewBox="0 0 42 38" fill="none" xmlns="http://www.w3.org/2000/svg">
<path d="M38.3086 5.46484H30.9104L29.5501 1.38436C29.3826 0.88184 28.9124 0.542969 28.3828 0.542969H13.6172C13.0875 0.542969 12.6174 0.88184 12.4499 1.38436L11.0896 5.46484H3.69141C1.65596 5.46484 0 7.12081 0 9.15625V16.5391C0 17.0061 0.264469 17.4329 0.682582 17.6408L1.23047 17.9132V33.7656C1.23047 35.8011 2.88643 37.457 4.92188 37.457H37.0781C39.1136 37.457 40.7695 35.8011 40.7695 33.7656V17.9132L41.3174 17.6408C41.7355 17.4329 42 17.0061 42 16.5391V9.15625C42 7.12081 40.344 5.46484 38.3086 5.46484ZM14.5041 3.00391H27.496L28.3163 5.46484H13.6838L14.5041 3.00391ZM38.3086 33.7656C38.3086 34.4441 37.7566 34.9961 37.0781 34.9961H4.92188C4.24339 34.9961 3.69141 34.4441 3.69141 33.7656V19.1369L14.9376 24.729C15.3069 26.3774 16.7809 27.6133 18.5391 27.6133H23.4609C25.2191 27.6133 26.6931 26.3774 27.0624 24.729L38.3086 19.1369V33.7656ZM17.3086 23.9219C17.3086 23.2434 17.8606 22.6914 18.5391 22.6914H23.4609C24.1394 22.6914 24.6914 23.2434 24.6914 23.9219C24.6914 24.6004 24.1394 25.1523 23.4609 25.1523H18.5391C17.8606 25.1523 17.3086 24.6004 17.3086 23.9219ZM39.5391 15.7767L26.7035 22.159C26.0768 21.0111 24.8584 20.2305 23.4609 20.2305H18.5391C17.1417 20.2305 15.9232 21.0111 15.2965 22.159L2.46094 15.7767V9.15625C2.46094 8.47777 3.01293 7.92578 3.69141 7.92578C4.46734 7.92578 37.5742 7.92578 38.3086 7.92578C38.9871 7.92578 39.5391 8.47777 39.5391 9.15625V15.7767Z" fill="#52607E"/>
</svg>
